<?xml version="1.0" encoding="utf-8"?>
<!-- Generator: Adobe Illustrator 25.3.1, SVG Export Plug-In . SVG Version: 6.00 Build 0)  -->
<svg version="1.1" id="Layer_1" xmlns="http://www.w3.org/2000/svg" xmlns:xlink="http://www.w3.org/1999/xlink" x="0px" y="0px"
	 viewBox="0 0 761.76514 648.2171" style="enable-background:new 0 0 761.76514 648.2171;" xml:space="preserve">
<style type="text/css">
	.st0{fill:#D0CAC6;}
	.st1{fill:#767272;}
</style>
<g>
	<path class="st0" d="M467.90527,178.13193l0.25623,3.11745c0,0,4.16306,3.00208,7.68683,3.33095
		c6.4057,0.59787,20.88257-4.44119,29.33807-11.04041l-23.78647-4.50407l-4.86835,5.89323L467.90527,178.13193z"/>
	<path class="st0" d="M456.07608,181.07855c0,0-3.7153,3.16014-7.77225,3.75801c-4.05695,0.59785-27.758-5.46872-35.91458-11.29665
		l28.09964-6.3279l9.13879,7.33272l5.80783,2.67099L456.07608,181.07855z"/>
	<path class="st0" d="M397.67752,165.7903l-2.43417,1.42172l-0.25623,3.52573c0,0,3.26691,7.73582,9.99289,11.70735
		c6.72595,3.97153,19.0249,9.15883,26.51956,10.47266c7.49466,1.31381,17.03915,0.60919,17.03915,0.60919l2.0498,0.67076
		l4.28915,4.71002l6.28024,1.08897l8.90393-1.72394l4.84769-2.11949l2.07047-1.95557c0,0,19.15302-1.55522,27.03201-5.43683
		c7.879-3.88162,20.30603-13.04428,21.33093-15.22096c1.02496-2.17667,1.08899-3.58592,1.08899-3.58592l-0.44836-2.54468
		l-2.69043-0.97845c0,0-8.77582,7.66663-20.24197,13.63402c-11.46619,5.96741-25.07053,7.65352-25.07053,7.65352l-7.79068-3.22348
		l-1.6655-1.28114l-0.89679,4.93239c0,0-1.60144,0.96086-4.35587,0.96086c-2.75446,0-6.79004-2.56229-6.79004-2.56229
		l0.12811-2.11388l-3.01068,0.32028c0,0-1.98578,2.49823-3.97153,3.39502c-1.98578,0.8968-3.26691,0.90913-7.23843,0.61472
		c-3.97153-0.29443-17.67972-1.76775-30.87546-9.77486C398.31808,170.9789,397.67752,165.7903,397.67752,165.7903z"/>
	<path class="st1" d="M441.65515,121.19447c4.17007-16.08643,34.03821-17.31886,39.03671-0.96454
		c3.67831,6.19572,2.3031,17.19453,1.26782,24.70915c-2.60623,7.98149,0.24939,16.83717-2.68845,24.41418
		c-9.05841,14.28047-35.67657,7.99861-37.19382-9.91232C447.67221,147.34337,440.79495,132.78308,441.65515,121.19447z"/>
	<g>
		<path d="M449.32452,169.87788c0.22058,0.19312,1.72455,1.2431,1.11609,0.71088
			c-7.45615-7.98749,3.71381-18.80276,12.58484-17.14923c7.7132,0.41422,16.96127,8.71999,12.82892,16.70587
			c7.40915-9.51675-6.18619-20.31325-15.6214-19.36897C450.89645,149.70453,441.69025,163.03455,449.32452,169.87788z"/>
		<path d="M527.59674,168.45271c-1.23358-5.72627-36.66345-8.87607-44.07581-10.77936
			c0.22092-13.49501,5.39368-27.95593-0.05118-40.8429c-3.14639-4.16364-6.8392-7.97718-11.37387-10.61878
			c-9.9032-1.78788-22.69049-2.63977-28.98392,6.69735c-6.58655,6.29148-5.2345,14.69295-3.36478,22.68886
			c1.2605,7.56836-0.41602,15.26328-1.00073,22.80637c-14.17819,2.6291-29.11206,2.50459-42.89395,6.51782
			c-4.95642,2.705,0.09143,8.2579,0.89694,12.07762c7.97238,10.97469,39.33386,20.07307,52.27557,17.80562
			c4.48547,5.56374,14.14642,9.33096,20.66858,5.38354c-0.01465-0.14362-0.01776-0.28729-0.03003-0.43115
			c3.15958-0.51027,6.03024-2.36055,8.42883-4.18903C490.8443,197.46973,527.29602,182.46271,527.59674,168.45271z
			 M488.7049,161.46559c11.08694,1.11415,21.06305,2.33165,31.81342,4.73462c-6.57312,6.84827-47.85196,30.34146-51.40875,14.61121
			c-0.005-0.00366-0.00958-0.00781-0.01465-0.01141c0.00519-0.34119,0.01318-0.68225,0.01947-1.02344
			c0.27646-0.41898,0.69302-0.81305,1.16309-0.96136c-0.00128-0.00006-0.00153-0.00049-0.00311-0.00049
			c9.21384-2.84843,13.38889-8.08873,13.17285-17.867C485.19958,161.12135,486.95276,161.28889,488.7049,161.46559z
			 M441.65515,121.19447c4.17007-16.08643,34.03821-17.31886,39.03671-0.96454c3.67831,6.19572,2.3031,17.19453,1.26782,24.70915
			c-2.60623,7.98149,0.24939,16.83717-2.68845,24.41418c-9.05841,14.28047-35.67657,7.99861-37.19382-9.91232
			C447.67221,147.34337,440.79495,132.78308,441.65515,121.19447z M454.5603,192.73372
			c-0.04071,1.53809-0.07495,3.07446-0.17773,4.60553c-0.85422-0.89375-2.26529-1.7063-3.46313-3.53748
			c1.28583-0.77625,2.56726-1.7301,3.69434-2.74561C454.73785,191.59422,454.7457,192.1839,454.5603,192.73372z
			 M454.65161,190.10915c-0.00519,0.1062-0.00836,0.21246-0.01276,0.31866c-14.59058,7.95216-54.27234-4.21455-58.87396-21.32861
			c-0.05011-1.20589,1.10382-2.6144,2.18729-1.45468c9.34854,15.0446,28.99203,18.65338,45.40463,21.90547
			c4.00037,0.7207,7.48465-1.22273,10.22455-3.95448c0.28287-0.19337,0.76614-0.4447,1.06866-0.15042
			C454.7236,186.99631,454.73886,188.56346,454.65161,190.10915z M454.80841,182.09584
			c-0.03723,0.32019-0.06299,0.64117-0.08746,0.96222c-2.39999,0.97868-3.93631,4.08943-6.75287,4.5473
			c-0.04108,0.03912-0.08936,0.07239-0.12799,0.11304c-13.01215-0.34717-38.87891-9.16905-46.34528-19.55652
			c-0.41873-0.45837-0.63922-1.01427-0.91046-1.59271c13.21152-1.6097,23.6185-1.93718,38.39502-3.99347
			c0.14249,8.51143,8.5491,12.87764,15.74268,15.09338C454.82489,179.11507,454.9631,180.61198,454.80841,182.09584z
			 M466.60376,183.82735c-0.78149,4.56577,0.53989,10.79913-2.15906,14.22736c-1.51761,0.34056-3.48599,0.2977-6.25806-0.23853
			c-1.13123-6.34911-0.77539-17.47321-0.77539-17.47321s-0.0412-1.24155,0.50116-1.07938
			c0.30902,0.09239,2.67963,0.12515,2.99988,0.19424c1.08881,0.10197,2.88144-0.13084,4.19165,0.01599
			c0.32806,0.02359,1.21011-0.21597,1.41342,0.15276c0.22882-0.00623,0.03482,0.30165,0.26328,0.29671
			C466.78238,181.22658,466.72293,182.53319,466.60376,183.82735z M469.53113,197.27449
			c-0.05908-1.61652-0.10773-3.23328-0.15454-4.85028c1.7301,1.0231,3.59613,1.78058,5.53296,2.27014
			C473.15411,195.63039,471.36816,196.51125,469.53113,197.27449z M525.38403,171.20821
			c-8.88623,12.18797-42.96341,30.25394-56.14246,17.02661c-0.10791-1.12573-0.15009-2.26343-0.16217-3.37622
			c11.4675,11.49478,46.61023-8.13199,56.0744-17.44928C525.85669,168.03236,525.85553,169.49397,525.38403,171.20821z"/>
	</g>
</g>
<g>
	<path class="st0" d="M251.59221,435.71869c-0.30641,6.20297-0.93971,12.38205-1.90141,18.5177
		c-3.51244,22.40933-12.61349,78.58459-18.40767,97.2547c-6.93739,22.35382-15.24554,45.35229-16.65479,44.71173
		c-1.4093-0.64056,7.34515-45.18146,11.82916-89.50888s1.7509-66.44861,1.7509-66.44861l-1.41492-10.90015
		c-5.11423-0.90341-8.79149-1.39859-8.79149-1.39859s-3.758,38.94666-9.01678,38.86121
		c-14.34076-0.23291-14.47076-39.20282-14.47076-39.20282s-28.61212,2.81848-33.54553,9.12805
		c0,0,11.02002,64.2453,19.62378,96.86481c14.73315,55.85767,26.3808,73.45459,30.83276,73.87903
		c4.45197,0.42438,12.12146-8.75348,14.92529-16.39862c19.92169-54.32025,31.10866-142.5271,31.28114-150.14941
		c0.04282-1.89188-2.37703-3.64441-6.03969-5.21017V435.71869z"/>
	<polygon class="st0" points="205.01978,424.90964 208.45872,459.77225 209.8027,461.51245 213.64612,456.55872 
		217.14789,439.04984 217.14789,424.07022 	"/>
	<path class="st0" d="M228.08025,364.57294l-3.758-1.90259l-19.9917-0.9585l-10.60492,3.71515l-0.66125,8.11389v8.71173
		l2.56036-0.93945c0,0,4.77081-3.39502,13.36047-3.1922c8.58972,0.20288,15.83514,1.91107,15.83514,1.91107l2.91827,1.62274
		l1.53735-3.16016l0.58698-8.88257L228.08025,364.57294z M225.32585,372.06763c-0.44843,4.93237-1.02496,4.67615-3.07477,4.61206
		c-2.0498-0.06403-2.00006-1.06531-1.99292-5.27289c0.00714-4.20752-0.63342-5.23242,1.99292-5.29651
		C224.39897,366.05792,225.77422,367.13519,225.32585,372.06763z"/>
	<path class="st0" d="M218.21552,387.88968L224.07672,386l2.27402-3.8114l-3.54829-2.56226l-10.86452-1.50534l-8.93594,0.28824
		l-5.98932,1.85767l-2.49823,3.01068l3.01068,3.58719l6.37367,0.64056l2.53151-4.03558l1.24344,7.89142
		c0.67297,4.27097,0.75569,8.61099,0.24236,12.90405c-0.45886,3.83759-1.04019,8.40414-1.48579,10.91272
		c-0.0168,0.0946-1.44255,6.91815-1.44255,6.91815l4.54805,1.97412l4.61209-2.16632L215.397,396L218.21552,387.88968z"/>
	<g>
		<path d="M204.18327,636.18988c-0.02545-0.01569-0.0506-0.03241-0.07605-0.04816
			C204.26128,636.25977,204.37199,636.35724,204.18327,636.18988z"/>
		<path d="M230.25316,363.32959c-0.01331-0.00922-0.02765-0.01617-0.04095-0.02521
			C230.25169,363.32996,230.27892,363.34772,230.25316,363.32959z"/>
		<path d="M230.07292,363.21741c-0.43011-0.26984-0.10493-0.06442,0.13928,0.08698
			C230.16557,363.27411,230.101,363.23248,230.07292,363.21741z"/>
		<path d="M261.84427,431.03537c-11.56071-9.00015-32.5106-11.05243-46.22989-14.56955
			c1.03047-9.18048-2.03065-23.15036,5.55705-29.01886c10.85582,0.42123,14.50612-22.46005,5.59589-25.60547
			c4.51921-12.18176,1.19771-25.35269,2.87399-37.93408c9.1324-26.86731,27.33492-74.96713-14.08984-83.28967
			c-38.29109,4.18401-25.96606,45.48438-21.41084,70.48865c0.43973,17.2691-9.25934,35.02386,1.11589,51.26025
			c-4.72855,1.17282-3.59967,4.8783-3.10123,8.91577c-2.34703,9.23221-2.17525,18.22424,10.50052,17.4173
			c2.51366,9.48654-0.84827,18.6282-0.68024,27.96375c-17.41028,0.46674-41.79565,5.93341-51.78853,17.26181
			c4.27298,40.13651,15.18187,82.38852,28.46962,120.41428c9.76222,30.93597,37.73987,93.85876,54.15933,28.62488
			c13.2878-47.7915,29.8372-104.67975,29.85756-150.19901C262.67386,432.09238,262.37534,431.44882,261.84427,431.03537z
			 M214.84813,394.94244c-2.28537,8.62906-1.28873,17.62286-2.16013,26.42065c-6.29572,3.98093-9.62949-2.44141-7.9059-8.32785
			c2.42342-8.65149,1.15585-17.25894,0.60944-26.02301C209.56097,372.84131,219.76498,385.99841,214.84813,394.94244z
			 M193.72563,380.58899c0.60133-4.86774,0.06027-10.44809,2.04596-14.90576c8.16144-4.80835,22.47018-2.84692,30.19774-1.04395
			c4.83713,2.21573,1.25633,10.78214,1.81105,15.05847C216.90628,376.36737,203.94724,374.73483,193.72563,380.58899z
			 M203.5836,383.66132c0.49303,4.34036-11.53122,1.2406-4.99303-2.44522c6.61061-4.79623,39.02917-0.35611,20.66692,5.16666
			C219.07925,378.69589,206.51796,376.76306,203.5836,383.66132z M202.44109,425.64667
			c3.1492,0.12543,11.73734-1.17627,13.07812-0.57977C215.93433,470.83453,203.53394,472.60434,202.44109,425.64667z
			 M256.14374,447.66754c-3.81206,17.12143-28.18646,213.76044-56.51785,141.54572
			c-24.86693-48.04926-38.27916-100.60031-44.99852-154.01746c-0.00116,0.00061-0.00232,0.00128-0.00354,0.00189
			c-0.00159-0.00473-0.00317-0.00946-0.00479-0.01419c-0.26225-0.77194,0.0164-1.62524,0.74622-1.98862
			c11.37035-5.66153,23.82768-9.94873,36.63959-11.15552c3.42281-0.32239,6.32047,2.28229,6.52521,5.71414
			c0.6201,10.39459,3.76044,22.06549,5.40443,31.25c9.89378,11.80893,13.72237-8.60101,14.19655-16.47839
			c1.2375-20.55814,0.6297-22.13269,21.55144-15.70648C253.0948,430.60446,259.32773,431.65366,256.14374,447.66754z"/>
	</g>
	<path class="st1" d="M194.47575,351.76239c-5.14075-17.64957,8.63762-33.37958,3.35922-50.98184
		c-1.59485-9.07474-6.04047-21.50931-4.42125-30.07248c1.7347-25.9386,32.5085-38.69513,40.96884-9.33301
		c6.96106,20.47699-2.94199,40.5448-8.69003,60.12891c-0.52057,13.35403,1.02472,26.81412,0.49135,40.15692
		c-9.19159-2.44128-20.64137-3.64603-29.39148,0.05096C195.61101,358.60699,195.11333,355.1662,194.47575,351.76239z"/>
</g>
<g>
	<path class="st0" d="M204.27602,111.54922l-2.30606,2.37295l-1.60143,0.77526l-13.32384-0.77526l-9.03203-0.79884l-3.01068-0.98817
		l-1.4733-2.11388l27.8007-2.3504l5.82918-4.11935c0,0,12.23488-3.07473,19.92171-15.62989
		c7.68684-12.55516,15.11745-23.82919,19.40926-26.96797c4.29181-3.13879,8.71175-4.87561,8.71175-4.87561l0.91466,5.83647
		l-6.67978,3.58719l-8.90392,10.44128l-10.37723,16.78292l-7.68683,9.35232l-9.80072,7.09806L204.27602,111.54922z"/>
	<path class="st0" d="M37.37131,106.0534c0,0,108.79271-25.9225,176.97096-23.01321c0,0-7.99893,20.74499-15.58064,23.51697
		C191.17993,109.32914,37.37131,106.0534,37.37131,106.0534z"/>
	<path d="M387.54282,43.78135c-4.67645-2.83374-10.375-3.32208-15.6759-4.17371
		c-27.48856-2.41932-55.16299-0.68075-82.60678,1.47382c-7.3132,0.59491-14.72464,1.01715-21.5621,1.84894
		c-3.32236,0.21417-13.34142-1.74501-13.54462,2.63623c-14.42116,5.11808-21.84219,21.21869-29.96045,33.31885
		c0.82246-3.07971,1.57597-6.20162,1.94513-9.37598c-0.48268-0.74757-0.95563-1.50377-1.5058-2.20477
		c-65.19987-0.00523-133.30084,8.63291-192.28789,37.3577c2.45934,6.88668,22.13111,2.57581,28.36283,2.86024
		c37.27447,2.44955,74.71946,3.50356,112.04804,3.46981c4.13068,5.29765,12.3362,3.17224,18.33745,4.06249
		c2.55661-0.30099,14.05235,1.71284,13.28542-1.84539c20.12239-2.66564,29.16817-23.72174,39.6178-38.58418
		c1.87874-3.33305,6.02507-9.81653,9.88129-10.21416c1.14148,0.3023,0.99496,2.28123,2.13278,2.76333
		c5.06461,1.67025,10.70822,0.98167,15.91879,0.28928c0.40253-0.94238,0.63055-1.97223,0.80212-3.00293
		c11.45157,2.77766,23.34573,5.24657,35.21442,4.08701c10.4921-1.38802,15.99615-2.17451,25.89948,1.86963
		c16.3208,7.03638,38.12375,9.95686,51.51404-4.3557C390.13245,60.13524,394.75662,49.59007,387.54282,43.78135z
		 M200.48581,113.86589c-0.03253,0.02246-0.06714,0.0368-0.10046,0.05627c-9.1058-1.00139-17.40672,0.25596-25.65594-2.68335
		c0.0036-0.04425,0.01453-0.08649,0.02069-0.13025c8.63892,0.44946,17.78343-2.56551,25.9646-1.81024
		C202.07201,110.20242,201.77971,112.96847,200.48581,113.86589z M199.12186,106.61235
		c-53.65321,0.47265-108.2142-0.29541-161.75055-1.17017c20.55228-11.47528,44.24111-15.13674,66.88855-20.52116
		c32.24915-8.2467,64.49515-11.01781,97.13965-13.38552c-0.00623,0.01031-0.01257,0.02063-0.0188,0.03094
		c4.19739-0.46176,8.30106-0.52452,12.50134-0.79968c-0.02948,0.03229-0.05713,0.06635-0.08661,0.09869
		c0.71175-0.0944,1.43359-0.13065,2.15143-0.12653c0.02631-0.01984,0.05255-0.03967,0.07892-0.05969
		c2.39551-0.09019,4.81248-0.18143,7.20758-0.18817C221.77303,79.7692,209.35327,105.78479,199.12186,106.61235z
		 M254.20877,60.55711c-20.1042,12.08495-24.41086,45.99566-49.64233,49.20575c-0.10361-0.79623-0.31068-1.65836-0.97241-2.16052
		c11.09145-7.5248,20.61797-18.50046,27.78481-29.90758c5.38379-12.80298,10.75052-18.87256,22.8167-26.09365
		C254.60295,54.55812,254.63301,57.64711,254.20877,60.55711z M268.70578,61.05485
		c-0.10498,0.94004-0.07574,1.41957-0.23669,2.28711c1.00418,4.88158-6.91827,2.85525-10.67859,3.23627
		c-0.17685-1.18543-0.44183-2.73491-0.68896-4.07257c0.08203,0.36781-3.16682-18.60711,3.81726-16.85138
		c1.67688,0.26528,3.40298-0.00539,5.0741,0.18915C269.57019,44.58001,268.40485,58.64843,268.70578,61.05485z"/>
	<path class="st1" d="M383.82736,54.64762c-9.05435,22.18172-31.1756,19.77893-50.32733,11.94357
		c-8.75302-3.81507-19.69623-3.15842-28.49695-1.78682c-10.76581,0.734-21.34747-1.60305-31.87756-3.4969
		c0.36761-4.54456,0.04193-9.1106-0.31812-13.65222c27.73828-2.05574,56.46448-4.97927,84.46909-4.39849
		C367.07007,44.44516,389.60056,40.7536,383.82736,54.64762z"/>
	<path class="st0" d="M257.87564,62.66717c0,2.11388,0.25092,2.87722,4.12634,2.8452
		c3.87546-0.03203,5.91458,0.28559,5.73309-2.78648c-0.12518-2.1189-0.12277-2.56495-5.34875-2.37011
		C257.47729,60.53881,257.87564,62.66717,257.87564,62.66717z"/>
</g>
<g>
	<path class="st0" d="M685.33899,139.98407c-0.09222,0.07475-9.99799,18.65292-19.22217,32.42517
		c-21.81549,32.57172-20.48578,24.1761-8.92529,1.28113c10.7276-21.24553,6.1524-27.45435,4.99646-27.16013
		c-4.94629,1.25893-13.49976,4.31856-14.19928,4.41992l-1.34521,18.38434c-0.28424,6.1626-3.758,29.03915-7.94305,28.69751
		c-5.12524-0.4184-7.7099-23.78554-7.27875-32.21863l0.80896-15.8241c3.35901-5.37756-13.3244,33.36705,4.7442,51.82208
		c12.16687,12.42705,46.94977-49.8363,48.10278-54.32031C686.23065,143.00711,689.05432,136.97339,685.33899,139.98407z"/>
	<path class="st0" d="M631.26984,110.80782c0,0-0.51245-5.5089,1.55872-8.64769c2.07117-3.13879,5.61566-5.38078,9.39502-4.6121
		c3.77936,0.76868,7.60144,3.35232,8.45551,5.97865c0.85413,2.62634,1.2171,7.51601,0.51245,9.01067
		c-0.70459,1.49466-4.86829,2.62634-4.86829,2.62634s-0.4057-5.0605-0.23492-5.1032c0.17084-0.0427-0.87543-3.70805-0.87543-3.70805
		l-3.11743-1.89938l-3.9715,0.71775l-1.90039,3.30961l0.04272,5.29537L631.26984,110.80782z"/>
	<path class="st1" d="M626.79163,94.89404c-0.31531,4.03216-1.56848,8.64352-0.4881,12.72113
		c-7.94513-5.82932-3.72858-15.68291-2.94037-23.80013c0.3714-8.19256-4.2832-18.43512-2.8316-25.64886
		c4.17139-16.08464,34.03778-17.32058,39.03735-0.96458c6.09534,11.63624-1.16785,27.50159-0.00281,40.12481
		c0.01953-0.21552,0.05365,0.57538,0,0c0.03656,1.45595,0.16138,2.96572-0.19244,4.40399
		c-0.61987,2.87402-1.16461,6.31223-3.36523,8.55182c-0.01794-3.99443,0.53833-10.31623,0.45105-13.76994
		c-0.03369-1.3316-0.59088-2.61183-1.6015-3.47953C647.32312,86.56364,631.00409,84.72011,626.79163,94.89404z"/>
	<g>
		<path d="M697.47986,126.49512c-1.95587-5.63223-7.10413,2.19424-9.95227,3.54048
			c-11.31458,7.6228-25.05566,11.15007-38.43317,12.28661c-0.30029-0.82202-1.11426-1.29176-1.89673-1.58698
			c-0.08826-4.15353-0.69238-15.72289,0.15356-19.82129c-0.01819-0.71449,0.09735-1.36633,0.11261-2.09631
			c3.82983-0.72247,7.39673-3.21759,9.16473-6.50031c8.6972-4.89391,5.789-34.1766,8.17535-44.70899
			c1.20892-21.84864-18.01312-29.56709-36.6701-23.7383c-11.2876,8.61258-12.81958,16.74433-9.38257,29.96719
			c1.65381,21.26774-9.21838,30.82549,15.27148,42.41108c0.78674,7.43237,0.11688,16.38835,0.05994,23.82629
			c-1.25287,0.44455-2.19489,1.41058-2.5307,2.70062c-13.4964-2.15453-25.30902-6.19383-37.05109-12.75731
			c-3.12256-1.03185-7.62646-10.26378-11.61481-5.06111c-3.49591,15.94917,5.40302,35.53786,13.21796,46.29942
			c10.79169,14.8607,20.51318,32.87138,39.24774,37.71507C662.94025,216.10408,697.66089,151.53053,697.47986,126.49512z
			 M626.79163,94.89404c-0.31531,4.03216-1.56848,8.64352-0.4881,12.72113c-7.94513-5.82932-3.72858-15.68291-2.94037-23.80013
			c0.3714-8.19256-4.2832-18.43512-2.8316-25.64886c4.17139-16.08464,34.03778-17.32058,39.03735-0.96458
			c6.09534,11.63624-1.16785,27.50159-0.00281,40.12481c0.01953-0.21552,0.05365,0.57538,0,0
			c0.03656,1.45595,0.16138,2.96572-0.19244,4.40399c-0.61987,2.87402-1.16461,6.31223-3.36523,8.55182
			c-0.01843-4.10475,0.56946-10.66722,0.44232-14.04944c-0.04437-1.1786-0.56525-2.29795-1.45093-3.07679
			C647.52991,86.58743,631.0307,84.6558,626.79163,94.89404z M629.86084,97.79315c-1.00366,1.08482-1.80518,2.36372-2.43457,3.7113
			c0.25372-2.45081,0.75787-5.12048,2.00226-7.18817c5.22052-7.41454,16.92645-5.04399,23.80341-0.24219
			c1.02332,0.71455,1.65509,1.86128,1.67999,3.10917c0.02966,1.49146,0.09705,3.08227-0.00208,4.32119
			C648.5896,93.15094,637.12274,90.89307,629.86084,97.79315z M634.2312,112.16064
			c-10.41473-7.62273,1.84821-21.08525,11.53955-15.23865c1.79486,0.51471,2.85077,1.90868,4.29449,3.06866
			c4.91278,3.04227,4.31506,10.87321-1.87878,13.42468C651.6214,100.44276,632.565,99.32172,634.2312,112.16064z
			 M636.97485,132.25531c0.21875-3.87396-0.07367-12.25217,0.86053-15.95843c0.33533-3.9407-0.27539-10.90644,4.83807-9.8335
			c2.29712,1.27907,1.61255,3.20924,1.31726,6.26019c0.0553,8.53455,0.19751,18.6849,0.38245,27.26051
			c-2.30444-0.71262-4.91998-0.99934-7.32703-0.65186C637.14899,136.97168,637.1861,134.61017,636.97485,132.25531z
			 M694.77649,133.85925c-9.43768,27.22774-23.55847,57.44077-50.05573,71.59581
			c-16.96417,5.97044-38.32721-23.30299-45.99182-35.94844c-8.32745-13.73889-16.91339-29.50241-13.45776-43.61343
			c0.17493-0.01721,0.17291-0.0307,0.06226-0.03735c12.13275,11.74876,28.96216,16.73343,45.6601,19.23907
			c-0.82001,6.53581-0.21375,13.10535,0.30566,19.63727c0.86206-6.98299,2.26813-13.90694,3.64722-20.77122
			c1.79993-3.7576,6.34027-2.67606,9.6864-2.35609c-0.20312-0.04425,0.2901,0.05365,0.33331,0.0722
			c0.35175,0.24017,0.39038,0.2688,0.11591,0.08594c0.17401,0.11209,0.34705,0.22221,0.46838,0.39539
			c0.29742,0.36476,0.62439,0.91208,0.73395,1.50287c-0.00604-0.02582-0.00848-0.04919-0.01489-0.07538
			c0.07043,0.28668,0.05444,0.22595,0.01489,0.07538c0.40771,1.43413,0.52124,3.09862,0.33636,4.52832
			c-0.00934,0.20625-0.10553,1.14761-0.04321,0.59784c0.21198,5.08369,0.28424,10.19196,0.70453,15.25665
			c1.02014-6.28096,2.64685-12.48055,2.25964-18.91296c9.77673-0.18942,19.15344-3.29689,28.15765-6.92133
			c-0.0022-0.00604-0.00433-0.01196-0.00653-0.01801c6.43829-3.10315,12.86456-7.21701,17.36371-12.42206
			C695.80945,127.59484,695.64349,131.13429,694.77649,133.85925z"/>
		<path d="M649.62933,87.53598c5.07843,2.65761,6.98798,4.04836,7.90387,4.0334c-0.06409-6.02135-23.89325-13.13168-31.6734-1.57277
			c0.00366-0.00539,0.01025,0.00793,0.01575,0.01141c-0.02081,0.02655-0.04834,0.04944-0.06824,0.07648
			C632.94592,85.70528,642.28662,84.88117,649.62933,87.53598z"/>
	</g>
	<path class="st0" d="M650.42285,93.395l-0.60852,2.46619c0,0,1.0249,0.73666,1.85767,1.37722
		c0.8327,0.64057,1.95374,2.08186,1.95374,2.08186l-0.12811-3.58719c0,0-1.15302-1.21709-1.5694-1.5694
		S650.42285,93.395,650.42285,93.395z"/>
</g>
<g>
	<path class="st0" d="M400.96997,401.46976c0,0-1.62277,7.17438-1.8363,10.88968s-0.77325,13.0676-0.77325,13.0676h4.56979
		v-11.33807l2.71591-12.6192H400.96997z"/>
	<path class="st0" d="M437.8454,429.5694c-0.09225,0.2142-5.38287,44.94669-14.60709,84.40912
		c-21.81546,93.32971-12.48581,41.69293-4.60046-24.45181c3.47018-29.10913,5.50229-58.06723,4.34634-57.22421
		c-4.94629,3.6073-16.04074,7.5936-16.7402,7.88406l-2.23294,19.28043c-0.28424,17.65805-5.14783,31.08463-9.44583,31.08463
		c-8.42224,0-9.24649-52.78293-9.24649-52.78293c-9.39502,24.34164-6.75253,100.71533,11.3161,153.59564
		c12.16684,35.60791,43.98639-135.99402,45.1394-148.84232C442.92725,429.67389,441.56073,420.94272,437.8454,429.5694z"/>
	<g>
		<path d="M418.25317,378.83643c-0.01331-0.00836-0.02765-0.01465-0.04095-0.02295
			C418.25171,378.83679,418.27893,378.85291,418.25317,378.83643z"/>
		<path d="M449.72504,425.78107c0.40164-11.74203-8.06265-10.45944-16.02109-5.94754
			c-8.1445,3.66989-16.69058,5.85312-25.32724,7.95749c-0.37045-1.90088-2.24487-3.23495-4.44202-3.54358
			c-0.83862-7.72443-0.09039-14.8829,3.00677-21.90515c16.61923-1.25687,11.30252-11.97574,11.18176-23.57849
			c0.02924,0.01733,0.06006,0.0318,0.08899,0.04968c-0.24539-0.14038-0.58237-0.33096-0.09058-0.0506
			c-0.53766-0.31964-1.12177-0.55817-1.7146-0.77557c2.24542-17.16531-2.15366-35.43915,4.00662-51.90344
			c6.79416-21.25983,15.19067-45.0657,4.57724-66.54849c-16.50525-28.32759-46.63153-12.20697-49.11142,16.13416
			c-1.69467,10.58395,2.01779,20.89529,4.13248,31.12582c7.22943,24.24875-7.61951,47.95404,1.97131,71.72284
			c-4.03107,3.4469-1.09045,12.0408-2.6185,17.30249c2.55841,3.81204,6.59747,6.51184,11.29105,6.07568
			c1.51221,7.24292,1.19626,14.65784-1.16901,21.55731c-3.01999,0.02151-5.80136,0.64819-5.98737,4.03345
			c-11.93219,1.43979-34.99268-14.03076-43.9949-5.92935c-1.43805,45.2193,11.03845,89.01151,27.15134,130.89548
			c10.99271,28.93372,34.79541,83.44092,52.36295,23.50323C434.84372,527.4682,449.74316,477.04404,449.72504,425.78107z
			 M402.84814,407.57068c-1.59103,5.36346-1.62726,10.53058-1.59296,16.12006c-2.80817-0.44928-5.68439-0.53833-8.54541-0.4306
			c0.08008-0.16058,0.15533-0.32294,0.22577-0.48724c0.01373,0.00299,0.02625,0.00305,0.0401,0.00629
			c2.17679-6.67438,1.33728-13.80234,0.33551-20.61566c3.52634,0.48581,7.14059,0.34363,10.69989,0.15747
			C403.89813,404.09613,403.34381,405.95715,402.84814,407.57068z M389.27216,399.57562
			c-10.04465-0.68832-7.60486-10.67392-6.06134-17.39728c9.40836,5.12622,23.98715,4.8934,32.75293-0.66827
			c1.43448,5.34726,0.16635,12.18744-0.5191,15.15308c-2.30862,1.8577-5.46429,2.73416-8.18713,3.12726
			c0-0.00043-0.00012-0.00098-0.00012-0.0014C401.31781,400.52347,395.22607,399.6601,389.27216,399.57562z M445.27557,448.13684
			c-4.38495,22.28677-27.97458,166.93958-47.42914,151.18549c-22.5206-18.23694-44.61914-92.05524-52.9754-141.16418
			c0.04907-0.01038,0.0907-0.03552,0.13843-0.04895c-1.86172-5.37335-1.73587-11.89462-2.03253-17.72906
			c-0.01904,0.01392-0.03979,0.02588-0.05884,0.03979c0.01382-5.08926-0.69406-15.26712,3.99869-17.74542
			c8.91583,2.66376,21.08362,4.50809,31.43475,7.03076c3.1001,0.19858,4.80414,2.18106,4.9791,5.32242
			c-0.14685,8.31131,1.547,16.57266,3.38098,24.68771c-0.504-11.63272,0.85645-21.44617,2.6297-32.48471
			c3.51617-1.2244,10.13995-0.48895,13.54144-0.23337c1.83704,11.23239,1.02704,22.71976,0.35992,34.04535
			c4.7742-8.41086,1.78513-25.26514,9.32178-30.15857C441.52087,421.45517,447.82297,407.13785,445.27557,448.13684z
			 M381.276,358.64105c-0.34369-16.52124,9.23441-31.03702,4.55792-47.67365c-5.31903-19.86276-8.88806-48.14346,9.92899-60.35623
			c29.45932-12.34169,32.4194,36.71817,26.04828,56.10883c-2.00381,9.28934-6.81589,17.76358-8.11655,27.21817
			c-0.9935,15.51584,2.70572,31.71887-1.73868,46.72324C387.51675,384.34665,383.7601,385.25867,381.276,358.64105z"/>
	</g>
	<path class="st1" d="M381.276,358.64105c-0.34369-16.52124,9.23441-31.03702,4.55792-47.67365
		c-5.31903-19.86276-8.88806-48.14346,9.92899-60.35623c29.45932-12.34169,32.4194,36.71817,26.04828,56.10883
		c-2.00381,9.28934-6.81589,17.76358-8.11655,27.21817c-0.9935,15.51584,2.70572,31.71887-1.73868,46.72324
		C387.51675,384.34665,383.7601,385.25867,381.276,358.64105z"/>
	<path class="st0" d="M410.81979,385.48834c3.91608-1.36609,3.67117-0.28714,3.66113,6.03006
		c-0.00714,4.4816,0.64609,4.46671-2.58432,4.99713s-2.44073-0.76172-2.87146-5.28427S407.733,386.56512,410.81979,385.48834z"/>
</g>
<g>
	<g>
		<polygon class="st0" points="638.33716,419.37778 637.56091,420.29913 638.69897,419.37778 		"/>
		<path class="st0" d="M582.09973,462.73257c2.41498-3.82867,3.87646-6.09363,3.87646-6.09363
			C584.55145,458.37753,583.258,460.47052,582.09973,462.73257z"/>
		<path class="st0" d="M520.6853,571.93988l35.90466-48.67432l42.63678-57.00934l21.12555-25.53171l-4.13495,4.90793
			l-10.3653,11.32709l1.06854-3.52637l-3.88251,0.21371l-9.90228,15.42331l-6.74713,9.85919
			c-2.07446,3.03122-4.71796,5.65036-7.84644,7.57507c-1.0517,0.647-2.01239,1.11292-2.61072,1.12363
			c-1.64325,0.0293,0.7533-14.32028,6.16821-24.89551c-5.91559,9.37836-17.58569,28.19363-27.75378,46.48099
			c-14.31909,25.75305-41.14075,70.95441-41.14075,70.95441l1.48999-0.33392l-0.26111-0.14691L520.6853,571.93988z"/>
		<path class="st0" d="M643.35956,422.5509l-1.92346-3.17313h-1.37738l1.9137,1.67709c0,0-47.55432,63.15369-64.43805,84.41867
			c-16.88373,21.26492-58.13135,73.30527-58.13135,73.30527l17.09747-10.25848l37.40063-36.65265l54.60498-66.46631
			l10.68591-18.37976l4.80865-17.31116L643.35956,422.5509z"/>
		<polygon class="st0" points="639.40576,418.80557 638.69897,419.37778 640.05872,419.37778 		"/>
		<polygon class="st0" points="515.28894,580.16797 519.40302,578.77881 514.69519,579.83405 		"/>
		<polygon class="st0" points="636.62744,421.05487 620.35229,440.72452 637.56091,420.29913 		"/>
	</g>
	<path class="st0" d="M634.15063,398.72678c0,0,6.13733-4.64304,4.10931-12.96844c0,0,7.64868,7.24088,7.25806,14.37604
		c-0.39062,7.13519-3.46893,8.89243-3.46893,8.89243s-3.41553,4.42957-5.92383,5.60367
		c-2.5083,1.17407-6.83112,1.91678-6.83112,1.91678l-1.06738-0.85733l1.17413-5.54239l4.10931-6.29742L634.15063,398.72678z"/>
	<path class="st0" d="M605.85199,452.10345c0,0,6.76288-7.43274,9.75739-14.34296s6.37329-22.06268,6.69354-26.33212
		c0.32019-4.26944,9.8197-15.47675,9.8197-15.47675l2.02802,4.18274l-1.54089,4.88983l-3.47571,4.37619l-1.6153,7.14685
		l-4.72491,15.44287l-1.34039,7.40891l-12.39563,15.67267L605.85199,452.10345z"/>
	<g>
		<path d="M618.93738,399.18301c-0.00128-0.00574-0.00372-0.01291-0.005-0.01846
			C618.9093,399.09247,618.9212,399.13135,618.93738,399.18301z"/>
		<path d="M618.93738,399.18301c0.00006,0.00006,0.00006,0.00021,0.00018,0.00046
			C618.9375,399.18329,618.93744,399.18311,618.93738,399.18301z"/>
		<path d="M618.96832,399.27429c-0.01202-0.02911-0.01959-0.0611-0.03076-0.09082
			C618.95874,399.25082,618.98828,399.34271,618.96832,399.27429z"/>
		<path d="M712.4751,277.49338c-16.97711-5.98203-36.45538,1.18719-49.54205,12.92227
			c-14.80615,14.48212-11.21283,25.03784-18.10803,43.76303c-2.49182,14.29837-20.85004,23.55417-22.65594,37.9534
			c-8.90039,8.93481-20.68683,29.20499-8.02661,40.16815c-2.04297,18.38168-3.35419,30.36862-13.93787,37.90738
			c-3.65796-0.27899-7.25171-1.65399-10.9129-1.49622c-1.22821,0.2489-2.00262,1.1713-2.55029,2.31625
			c-0.19659,0.04312-0.39191,0.08975-0.58197,0.15024c-20.91498-5.16016-22.9837-31.76288-32.65717-22.50604
			c-10.91815,6.54337-14.77936,20.8183-20.99066,31.37726c-16.35687,38.24075-25.29858,80.28256-22.58231,121.96817
			c0.07632,0.07684,0.15955,0.14752,0.25418,0.20789c-0.01196,0.0224-0.02396,0.04474-0.03592,0.06714
			c19.07156,1.22845,44.49948-27.84302,57.42978-40.96674c-0.2204,0.1925-0.44537,0.37909-0.66644,0.57068
			c18.09705-17.79926,34.36731-37.20303,49.7442-57.48193c10.02692-13.40408,21.36383-26.45035,26.59015-42.8895
			c2.74884-7.32248,6.32251-24.10672-5.62988-23.99924c-5.39331,3.98172-9.763,9.82855-13.6991,15.26776
			c0.92371-2.92422,4.8606-13.98309,5.01471-15.81323c14.48401,0.68988,19.87836-17.2254,25.79297-27.82547
			c1.7309-2.0762,0.56274-4.51175-0.20496-6.87292c5.77252-8.56607,11.28217-17.3364,17.43433-25.60873
			c15.42511-20.82953,35.12146-25.7399,43.81134-53.31708C718.20447,295.31961,721.12122,282.44382,712.4751,277.49338z
			 M634.24475,426.4744c1.63452-1.96335,4.31372-5.03381,5.59045-6.18912
			c19.49603,24.58633-100.10785,153.65839-126.72821,158.96936c-4.74472-44.80988,9.16669-91.65988,30.48889-131.30634
			c3.75336-6.08167,7.10162-15.61258,14.67737-17.21774c8.87244,8.20831,14.62146,20.03824,27.07086,23.53848
			c-3.36829,6.21146-5.78223,13.20386-7.86426,19.99707c3.47314-6.31918,8.0282-13.96033,11.30255-19.78006
			c2.70605-4.50037,7.86224-2.82202,12.19788-2.15866c0.86804,0.13278,1.24725,1.16269,0.65723,1.81311
			c-5.14435,5.67126-8.90594,12.7301-11.90857,19.75571c4.02496-5.41171,10.93292-15.38477,13.76056-19.32352
			c0.573-0.79819,1.77899-0.72385,2.25525,0.13553l0.013,0.02341c-30.25415,40.5994-60.7785,81.15259-89.55737,122.78436
			C559.11511,530.07227,592.6618,475.04233,634.24475,426.4744z M628.0528,410.41782
			c-3.78583,8.02121-4.8067,16.70572-7.22406,22.26996c-1.21741,8.41174-8.00146,13.31174-13.00171,19.41568
			c-0.21936-0.41092-0.4834-0.79315-0.79083-1.13715c-1.18439-0.11179-2.19305-0.26889-3.29517-0.38171
			c7.45502-6.4559,8.57751-13.46817,12.00702-25.94354c0.41394-7.82925,3.32886-28.91547,14.69324-29.16794
			c0.18567,0.069,0.31793,0.11792,0.0119,0.00562c1.87726,0.41608,3.03369,6.31949,1.31787,8.91452
			c-0.00354-0.00092-0.00732-0.00076-0.01086-0.00177C630.69043,406.49338,629.05774,408.26151,628.0528,410.41782z
			 M642.85718,405.63242c-1.48126,4.67874-8.63086,9.8981-13.0459,10.0575c-1.09717-0.89139-0.33728-3.46085,0.27777-4.81995
			c-0.00482,0.00259-0.00433-0.00305-0.02393,0.02267c0.93817-3.59552,4.32312-6.01666,5.52802-9.48914
			c0.53461-5.24194-3.81-8.67142-8.75262-8.27856c-5.48486,4.28952-9.63715,10.3111-12.1488,16.79745
			c-9.80115-10.78455,4.80762-26.93155,14.6554-25.2175c7.98804,0.40637,14.56921,7.70535,14.17981,16.29483
			C643.74719,402.58737,643.36011,404.13046,642.85718,405.63242z M646.93286,393.59183
			c-4.03961-12.09982-20.26361-15.50449-30.35114-8.77292c7.91003-15.81906,28.6604-18.68829,34.40247,1.59747
			C650.97717,386.42737,647.92596,391.36737,646.93286,393.59183z"/>
	</g>
	<path class="st1" d="M708.36798,304.5856c-5.59711,14.84317-14.82947,24.75607-25.12384,34.98557
		c-15.41425,14.61362-19.62616,21.86316-30.21014,40.18329c-4.52484-10.00696-18.26129-13.42307-28.09131-9.1394
		c3.72284-8.12112,10.39325-15.10352,16.85889-21.19489c17.06976-18.06488,9.91559-35.17703,25.5119-54.28494
		c10.60681-12.09317,29.65613-17.9071,40.90491-14.82095C713.62396,283.11588,711.46478,296.82202,708.36798,304.5856z"/>
	<path class="st0" d="M645.87256,389.36725c1.14746,1.27216,1.20081,0.9606,2.60175-0.44031
		c1.40088-1.40091,1.15186-1.77444,0.15118-3.65567s-0.8717-1.66779-2.27258-0.14679
		C644.95197,386.64548,644.03137,387.3259,645.87256,389.36725z"/>
</g>
</svg>
