<?xml version="1.0" encoding="UTF-8" standalone="no"?>
<!-- Created with Inkscape (http://www.inkscape.org/) -->

<svg
   version="1.1"
   id="svg2"
   width="157"
   height="154"
   viewBox="0 0 157 154"
   sodipodi:docname="warningNote.svg"
   inkscape:version="1.1 (c68e22c387, 2021-05-23)"
   inkscape:export-filename="C:\Users\amuly\source\repos\roseblight-fnf-mod\assets\week7\images\griswell\warningNote.png"
   inkscape:export-xdpi="96"
   inkscape:export-ydpi="96"
   xmlns:inkscape="http://www.inkscape.org/namespaces/inkscape"
   xmlns:sodipodi="http://sodipodi.sourceforge.net/DTD/sodipodi-0.dtd"
   xmlns="http://www.w3.org/2000/svg"
   xmlns:svg="http://www.w3.org/2000/svg">
  <defs
     id="defs6">
    <inkscape:path-effect
       effect="powerstroke"
       id="path-effect2228"
       is_visible="true"
       lpeversion="1"
       offset_points="2.7932334,2.6794872"
       not_jump="true"
       sort_points="true"
       interpolator_type="CentripetalCatmullRom"
       interpolator_beta="0.75"
       start_linecap_type="peak"
       linejoin_type="spiro"
       miter_limit="4"
       scale_width="1"
       end_linecap_type="peak" />
    <inkscape:path-effect
       effect="simplify"
       id="path-effect2226"
       is_visible="true"
       lpeversion="1"
       steps="1"
       threshold="0.0040133779"
       smooth_angles="0"
       helper_size="0"
       simplify_individual_paths="false"
       simplify_just_coalesce="false"
       step="1" />
    <filter
       inkscape:collect="always"
       style="color-interpolation-filters:sRGB"
       id="filter9009"
       x="-0.080871698"
       y="-0.080866761"
       width="1.1617434"
       height="1.1617335">
      <feGaussianBlur
         inkscape:collect="always"
         stdDeviation="4.6687944"
         id="feGaussianBlur9011" />
    </filter>
  </defs>
  <sodipodi:namedview
     id="namedview4"
     pagecolor="#ffffff"
     bordercolor="#666666"
     borderopacity="1.0"
     inkscape:pageshadow="2"
     inkscape:pageopacity="0.0"
     inkscape:pagecheckerboard="0"
     showgrid="false"
     inkscape:snap-global="true"
     inkscape:snap-bbox="false"
     inkscape:snap-bbox-edge-midpoints="true"
     inkscape:snap-bbox-midpoints="true"
     inkscape:bbox-nodes="true"
     inkscape:bbox-paths="true"
     inkscape:zoom="1.7727273"
     inkscape:cx="44.564103"
     inkscape:cy="90.538461"
     inkscape:window-width="1360"
     inkscape:window-height="705"
     inkscape:window-x="-8"
     inkscape:window-y="-8"
     inkscape:window-maximized="1"
     inkscape:current-layer="g9244"
     inkscape:snap-midpoints="true"
     inkscape:object-paths="true"
     inkscape:snap-smooth-nodes="true"
     inkscape:snap-intersection-paths="true" />
  <g
     inkscape:groupmode="layer"
     inkscape:label="Image"
     id="g8"
     style="display:inline">
    <g
       id="g9096"
       transform="matrix(0.90380021,0,0,0.97104586,7.5516847,22.617667)">
      <path
         sodipodi:type="star"
         style="fill:#ffffff;fill-rule:evenodd;stroke-width:13.36;stroke-linecap:round;paint-order:stroke markers fill"
         id="path2703"
         inkscape:flatsided="true"
         sodipodi:sides="3"
         sodipodi:cx="78.5"
         sodipodi:cy="77"
         sodipodi:r1="100.29207"
         sodipodi:r2="50.146034"
         sodipodi:arg1="-1.5707963"
         sodipodi:arg2="-0.52359878"
         inkscape:rounded="0"
         inkscape:randomized="0"
         inkscape:transform-center-y="-25.073017"
         d="m 78.500003,-23.292068 86.855477,150.438108 -173.7109604,-1e-5 z" />
      <path
         sodipodi:type="star"
         style="fill:#342f2f;fill-rule:evenodd;stroke-width:13.36;stroke-linecap:round;paint-order:stroke markers fill"
         id="path2886"
         inkscape:flatsided="true"
         sodipodi:sides="3"
         sodipodi:cx="78.5"
         sodipodi:cy="77"
         sodipodi:r1="87.746964"
         sodipodi:r2="29.194138"
         sodipodi:arg1="-1.5707963"
         sodipodi:arg2="-0.52359878"
         inkscape:rounded="0"
         inkscape:randomized="0"
         inkscape:transform-center-y="-14.597069"
         d="m 78.500002,-10.746964 75.991098,131.620444 -151.9822007,0 z" />
      <path
         sodipodi:type="star"
         style="fill:#ffffff;fill-rule:evenodd;stroke-width:13.36;stroke-linecap:round;paint-order:stroke markers fill"
         id="path3109"
         inkscape:flatsided="true"
         sodipodi:sides="3"
         sodipodi:cx="78.5"
         sodipodi:cy="77"
         sodipodi:r1="70.79493"
         sodipodi:r2="35.397465"
         sodipodi:arg1="-1.5707963"
         sodipodi:arg2="-0.52359878"
         inkscape:rounded="0"
         inkscape:randomized="0"
         inkscape:transform-center-y="-17.698732"
         d="M 78.500002,6.2050705 139.81021,112.39747 17.189792,112.39746 Z" />
    </g>
  </g>
  <g
     inkscape:groupmode="layer"
     id="layer2"
     inkscape:label="glow"
     style="display:inline;mix-blend-mode:color-dodge;filter:url(#filter9009)"
     sodipodi:insensitive="true">
    <path
       id="path3246-19"
       style="fill:#ffffff;fill-rule:evenodd;stroke:none;stroke-width:2.5;stroke-linecap:round;stroke-miterlimit:4;stroke-dasharray:none;paint-order:stroke markers fill"
       d="m 121.48047,107.69922 c -3.45421,0.0337 -6.32814,2.33288 -8.59232,4.72562 -2.16506,2.22414 -3.985,5.18032 -3.65768,8.40328 0.38307,3.67798 2.79881,6.69823 5.1394,9.39337 2.95199,3.22047 6.02484,6.37985 9.55059,8.97945 2.55805,1.87967 5.80148,3.36172 9.0296,2.57626 3.30075,-0.80083 5.84378,-3.29323 7.98158,-5.80064 1.85206,-2.21277 3.04137,-5.18986 2.38165,-8.0893 -0.79593,-3.66325 -3.35358,-6.5854 -5.78926,-9.30173 -3.10895,-3.24195 -6.2562,-6.54294 -10.06638,-8.97204 -1.79255,-1.11175 -3.8369,-1.94632 -5.97718,-1.91427 z m 1.94922,9.39062 c 1.86228,0.29709 3.2644,1.72767 4.64142,2.90234 2.0308,1.95575 4.16829,3.90673 5.58123,6.37696 0.60991,0.97504 0.58958,2.26423 -0.15646,3.16234 -0.94406,1.22457 -2.0616,2.47456 -3.55643,3.00172 -1.57545,0.31368 -2.9188,-0.88635 -4.0907,-1.76227 -2.3581,-2.04545 -4.65083,-4.23252 -6.44055,-6.80413 -0.68937,-0.99866 -1.19349,-2.38529 -0.42187,-3.48828 0.91301,-1.34793 2.09921,-2.63481 3.62109,-3.28321 0.26362,-0.0876 0.5451,-0.12344 0.82227,-0.10547 z" />
    <path
       id="path3246-1-85"
       style="fill:#ffffff;fill-rule:evenodd;stroke:none;stroke-width:2.5;stroke-linecap:round;stroke-miterlimit:4;stroke-dasharray:none;paint-order:stroke markers fill"
       d="m 130.07031,123.03516 c -2.48421,-0.009 -4.68761,1.98086 -5.38476,4.28711 -0.63883,2.53739 0.9155,4.91728 2.4271,6.80929 2.53353,3.06786 5.38553,5.86519 8.33293,8.53256 1.94957,1.6471 4.10274,3.51525 6.78489,3.61322 2.48569,0.0162 4.69978,-1.96995 5.39453,-4.28125 0.64091,-2.4997 -0.87561,-4.86155 -2.36026,-6.73549 -2.54613,-3.10104 -5.42559,-5.91881 -8.39586,-8.61027 -1.95184,-1.64451 -4.11218,-3.52819 -6.79857,-3.61517 z" />
    <path
       id="path3246-8-8"
       style="fill:#ffffff;fill-rule:evenodd;stroke:none;stroke-width:2.5;stroke-linecap:round;stroke-miterlimit:4;stroke-dasharray:none;paint-order:stroke markers fill"
       d="m 98.425781,84.636719 c -3.457549,0.02882 -6.334443,2.331221 -8.600136,4.72562 -2.165133,2.223775 -3.986169,5.180179 -3.657676,8.403286 0.377026,3.643355 2.757786,6.644035 5.073446,9.318205 2.944448,3.22679 6.019655,6.38078 9.532865,8.99502 2.55369,1.88488 5.7778,3.40304 9.01541,2.65639 3.31577,-0.75835 5.87386,-3.24996 8.02086,-5.75086 1.88408,-2.2236 3.10799,-5.22805 2.44024,-8.15962 -0.78819,-3.6308 -3.31163,-6.537273 -5.72674,-9.230882 -3.07529,-3.227448 -6.20535,-6.488533 -9.95764,-8.939581 -1.83853,-1.156552 -3.93231,-2.051824 -6.140629,-2.017578 z m 1.941409,9.390625 c 1.88165,0.303662 3.29791,1.752881 4.68555,2.94484 2.01482,1.943291 4.13599,3.880806 5.5371,6.334456 0.61759,0.98282 0.58288,2.28225 -0.17036,3.18367 -0.96847,1.22739 -2.09626,2.53183 -3.64032,3.00128 -1.61131,0.23237 -2.94554,-1.00029 -4.13822,-1.90245 -2.3008,-2.0255 -4.554578,-4.16967 -6.305002,-6.70047 -0.711533,-1.01911 -1.191499,-2.455905 -0.358989,-3.557379 0.927929,-1.328461 2.110962,-2.620413 3.648265,-3.222855 0.240392,-0.06699 0.492526,-0.09865 0.741976,-0.08109 z" />
    <path
       id="path3246-1-0-5"
       style="fill:#ffffff;fill-rule:evenodd;stroke:none;stroke-width:2.5;stroke-linecap:round;stroke-miterlimit:4;stroke-dasharray:none;paint-order:stroke markers fill"
       d="m 107.00586,99.972656 c -2.48456,-0.0063 -4.68748,1.980594 -5.38477,4.289064 -0.63391,2.53716 0.91644,4.91636 2.42906,6.80734 2.55516,3.0912 5.42713,5.91456 8.40636,8.59437 1.92717,1.62628 4.06282,3.4574 6.71146,3.55141 2.48619,0.0142 4.7007,-1.97031 5.39453,-4.2832 0.6403,-2.5014 -0.87687,-4.86101 -2.36238,-6.73535 -2.59136,-3.14841 -5.51293,-6.01807 -8.54463,-8.73974 -1.90701,-1.59773 -4.03351,-3.40634 -6.64963,-3.483894 z" />
    <path
       id="path3246-80-3"
       style="fill:#ffffff;fill-rule:evenodd;stroke:none;stroke-width:2.5;stroke-linecap:round;stroke-miterlimit:4;stroke-dasharray:none;paint-order:stroke markers fill"
       d="m 75.363281,61.574219 c -3.455596,0.02788 -6.331342,2.32919 -8.597125,4.720845 -2.165694,2.226342 -3.991031,5.183804 -3.660687,8.410014 0.381946,3.67823 2.799998,6.695793 5.139397,9.391416 2.929526,3.19536 5.978421,6.328148 9.466911,8.91986 2.554107,1.886233 5.778939,3.401871 9.017323,2.656161 3.328818,-0.763626 5.894672,-3.269519 8.046291,-5.783843 1.870272,-2.218338 3.07516,-5.209858 2.412898,-8.12641 C 96.390022,78.09817 93.83451,75.172133 91.394244,72.45742 88.28868,69.216756 85.142525,65.919871 81.336803,63.490041 c -1.79041,-1.111757 -3.83528,-1.946033 -5.973522,-1.915822 z m 1.941407,9.390625 c 1.881299,0.303978 3.297587,1.751695 4.685547,2.942886 2.014595,1.94488 4.134821,3.883679 5.539062,6.336411 0.599149,0.969289 0.593777,2.251316 -0.148749,3.144698 -0.941767,1.234104 -2.066619,2.488542 -3.566095,3.019364 -1.608208,0.315871 -2.966803,-0.92596 -4.160156,-1.816406 -2.330573,-2.045782 -4.61844,-4.20938 -6.384766,-6.773438 -0.691088,-0.996995 -1.174849,-2.389021 -0.398437,-3.482421 0.912101,-1.340986 2.093872,-2.619677 3.609375,-3.265626 0.265951,-0.08405 0.545128,-0.127659 0.824219,-0.105468 z" />
    <path
       id="path3246-1-00-0"
       style="fill:#ffffff;fill-rule:evenodd;stroke:none;stroke-width:2.5;stroke-linecap:round;stroke-miterlimit:4;stroke-dasharray:none;paint-order:stroke markers fill"
       d="m 83.943359,76.910156 c -2.484687,-0.0062 -4.687882,1.980018 -5.384765,4.289063 -0.636454,2.537473 0.917434,4.915954 2.429054,6.807343 2.555086,3.091268 5.427162,5.91453 8.406358,8.594364 1.930211,1.62885 4.070874,3.464854 6.725135,3.551414 2.484755,0.006 4.689029,-1.978903 5.384769,-4.289059 0.63536,-2.536151 -0.91518,-4.916443 -2.428998,-6.805439 -2.576354,-3.118129 -5.474121,-5.9645 -8.481923,-8.663789 -1.906506,-1.595845 -4.034528,-3.409138 -6.64963,-3.483897 z" />
    <path
       id="path3246-89-9"
       style="fill:#ffffff;fill-rule:evenodd;stroke:none;stroke-width:2.5;stroke-linecap:round;stroke-miterlimit:4;stroke-dasharray:none;paint-order:stroke markers fill"
       d="m 52.292969,38.509766 c -3.475377,0.03644 -6.357985,2.359721 -8.632813,4.767578 -2.14446,2.219111 -3.946995,5.161323 -3.617187,8.365234 0.386688,3.713308 2.842321,6.748825 5.205349,9.466585 2.958761,3.212815 6.028331,6.375361 9.563908,8.960655 2.54378,1.852109 5.763545,3.301809 8.959732,2.51619 3.294475,-0.800521 5.832324,-3.290176 7.966323,-5.793039 1.884059,-2.235713 3.065834,-5.26588 2.367968,-8.195186 -0.85495,-3.694167 -3.453824,-6.633887 -5.930639,-9.373733 -3.191207,-3.302865 -6.413412,-6.692502 -10.374829,-9.083425 -1.675216,-0.961958 -3.55297,-1.659145 -5.507812,-1.630859 z m 1.976562,9.394531 c 1.899626,0.331608 3.32899,1.795871 4.731642,3.008808 1.985097,1.924956 4.077357,3.841492 5.461718,6.264629 0.611624,0.977701 0.592857,2.273074 -0.160604,3.171948 -0.961409,1.241022 -2.102091,2.534606 -3.644367,3.016215 -1.610405,0.235983 -2.945057,-0.996354 -4.136088,-1.897892 -2.302865,-2.03052 -4.568237,-4.171805 -6.314801,-6.712146 -0.715269,-1.016665 -1.179121,-2.454179 -0.35526,-3.551632 0.912632,-1.307186 2.07244,-2.566171 3.566198,-3.196415 0.274668,-0.08749 0.563506,-0.129368 0.851562,-0.103515 z" />
    <path
       id="path3246-1-4-7"
       style="fill:#ffffff;fill-rule:evenodd;stroke:none;stroke-width:2.5;stroke-linecap:round;stroke-miterlimit:4;stroke-dasharray:none;paint-order:stroke markers fill"
       d="m 60.880859,53.847656 c -2.484755,-0.0062 -4.689032,1.978907 -5.384765,4.289063 -0.635365,2.536151 0.91518,4.916443 2.428994,6.805439 2.576354,3.118129 5.474121,5.9645 8.481923,8.663789 1.932236,1.620093 4.090591,3.455618 6.749606,3.481707 2.44591,-0.04487 4.596586,-2.009395 5.284789,-4.286873 0.636454,-2.537473 -0.917434,-4.915954 -2.429054,-6.807343 -2.555086,-3.091268 -5.427162,-5.91453 -8.406358,-8.594364 -1.924578,-1.620066 -4.077448,-3.47394 -6.725135,-3.551418 z" />
    <path
       id="path3246-4-9"
       style="fill:#ffffff;fill-rule:evenodd;stroke:none;stroke-width:2.5;stroke-linecap:round;stroke-miterlimit:4;stroke-dasharray:none;paint-order:stroke markers fill"
       d="m 29.230469,15.447266 c -3.451895,0.03559 -6.32343,2.33063 -8.58828,4.71995 -2.163725,2.226741 -3.992362,5.183141 -3.66172,8.408956 0.378171,3.680522 2.800404,6.698004 5.139298,9.395409 2.904474,3.17403 5.934237,6.276569 9.385536,8.861792 2.552731,1.890665 5.759585,3.442164 9.008606,2.732092 3.325415,-0.720034 5.896353,-3.204924 8.048302,-5.698284 1.922515,-2.235011 3.176209,-5.275557 2.497888,-8.241392 -0.811362,-3.697853 -3.404333,-6.640239 -5.86674,-9.379695 -3.158333,-3.275211 -6.345682,-6.631102 -10.242589,-9.039513 -1.727331,-1.033636 -3.681572,-1.786809 -5.720301,-1.759315 z m 1.976562,9.394531 c 1.89967,0.331642 3.328987,1.795866 4.731642,3.008808 1.987273,1.922717 4.07662,3.842273 5.461718,6.264629 0.617761,0.982847 0.588595,2.284261 -0.168997,3.185213 -0.971747,1.233836 -2.107144,2.547215 -3.662939,3.008614 -1.604558,0.212019 -2.927866,-1.007475 -4.11502,-1.909371 -2.303686,-2.025593 -4.562575,-4.169627 -6.308904,-6.706331 -0.685122,-0.993006 -1.174038,-2.374886 -0.408203,-3.466797 0.911141,-1.349226 2.098965,-2.631585 3.619141,-3.28125 0.274899,-0.08917 0.562825,-0.131188 0.851562,-0.103515 z" />
    <path
       id="path3246-1-8-6"
       style="fill:#ffffff;fill-rule:evenodd;stroke:none;stroke-width:2.5;stroke-linecap:round;stroke-miterlimit:4;stroke-dasharray:none;paint-order:stroke markers fill"
       d="m 37.832031,30.785156 c -2.48592,-0.01437 -4.69888,1.969592 -5.394531,4.28125 -0.6406,2.500601 0.876279,4.863547 2.36238,6.737308 2.59136,3.148409 5.512931,6.018067 8.544631,8.739733 1.931885,1.621488 4.090592,3.453273 6.749606,3.481707 2.445769,-0.04472 4.596196,-2.009969 5.284789,-4.286873 0.633915,-2.537157 -0.916436,-4.916363 -2.429054,-6.807343 -2.555158,-3.091201 -5.427131,-5.914562 -8.406358,-8.594364 -1.921179,-1.617399 -4.069918,-3.466627 -6.711463,-3.551418 z" />
    <path
       id="path3246-1-1-1"
       style="fill:#ffffff;fill-rule:evenodd;stroke:none;stroke-width:2.5;stroke-linecap:round;stroke-miterlimit:4;stroke-dasharray:none;paint-order:stroke markers fill"
       d="M 14.769531,7.7226562 C 12.283841,7.706505 10.069754,9.6926092 9.375,12.003906 c -0.6407175,2.499637 0.875665,4.861546 2.360255,6.735495 2.546131,3.10104 5.425595,5.918808 8.395869,8.610271 1.952776,1.650562 4.110613,3.521445 6.798564,3.615172 2.484208,0.0094 4.687609,-1.980865 5.384765,-4.28711 C 32.95328,24.140337 31.398954,21.760451 29.887352,19.868438 27.353823,16.80058 24.501816,14.003246 21.554423,11.335875 19.606033,9.6949309 17.449855,7.813807 14.769531,7.7226562 Z" />
    <path
       id="path3246-5-3"
       style="fill:#ffffff;fill-rule:evenodd;stroke:none;stroke-width:2.5;stroke-linecap:round;stroke-miterlimit:4;stroke-dasharray:none;paint-order:stroke markers fill"
       d="m 35.355469,107.69922 c -3.62156,0.0602 -6.701688,2.31504 -9.363524,4.55055 -3.247718,2.85714 -6.3454,5.91547 -9.046503,9.30062 -2.029307,2.60391 -3.86305,5.81261 -3.347283,9.23693 0.530199,3.43678 3.040244,6.11799 5.550843,8.33022 2.225923,1.97237 5.250644,3.34412 8.267483,2.73429 3.682618,-0.72033 6.630508,-3.26482 9.349891,-5.69339 3.255817,-3.0965 6.545109,-6.24861 9.016827,-10.02953 1.62182,-2.4821 2.607851,-5.63686 1.62705,-8.54967 -1.019154,-3.08152 -3.400293,-5.48067 -5.852327,-7.49951 -1.763677,-1.3953 -3.913935,-2.41224 -6.202457,-2.38051 z m -1.472657,9.39258 c 1.557675,0.26354 2.662351,1.57377 3.656428,2.70054 0.78715,0.86395 1.171037,2.1582 0.568182,3.2311 -1.240157,2.43213 -3.311706,4.299 -5.217969,6.20459 -1.485227,1.31516 -2.968678,2.87257 -4.961719,3.35009 -1.572348,0.16241 -2.736932,-1.1783 -3.742303,-2.19454 -0.870607,-0.9044 -1.688882,-2.22487 -1.074103,-3.49491 1.068218,-2.34932 3.031347,-4.127 4.808385,-5.94205 1.571756,-1.44704 3.129158,-3.10639 5.211179,-3.78276 0.245397,-0.0605 0.499059,-0.095 0.75192,-0.0721 z" />
    <path
       id="path3246-1-04-3"
       style="fill:#ffffff;fill-rule:evenodd;stroke:none;stroke-width:2.5;stroke-linecap:round;stroke-miterlimit:4;stroke-dasharray:none;paint-order:stroke markers fill"
       d="m 26.730469,123.04102 c -2.733208,0.21025 -4.883606,2.15385 -6.874801,3.84896 -2.972125,2.75057 -5.908351,5.57703 -8.421479,8.76133 -1.40234,1.81728 -2.7382587,4.16507 -2.0020178,6.52617 0.8317438,2.5114 3.5181468,4.57915 6.2377508,4.01197 2.743507,-0.60047 4.854825,-2.62797 6.891889,-4.43182 2.888043,-2.75986 5.813863,-5.53283 8.18233,-8.76544 1.300119,-1.78923 2.302855,-4.19729 1.327999,-6.36261 -0.938557,-2.0101 -3.026916,-3.73081 -5.341671,-3.58856 z" />
    <path
       id="path3246-8-2-3"
       style="fill:#ffffff;fill-rule:evenodd;stroke:none;stroke-width:2.5;stroke-linecap:round;stroke-miterlimit:4;stroke-dasharray:none;paint-order:stroke markers fill"
       d="m 58.417969,84.636719 c -3.62159,0.05925 -6.701628,2.315325 -9.363524,4.550551 -3.248152,2.856867 -6.344548,5.916181 -9.046503,9.300618 -2.028796,2.604492 -3.863618,5.812202 -3.347283,9.236932 0.530719,3.43734 3.041833,6.11892 5.553211,8.33168 2.225868,1.97106 5.248878,3.34305 8.265115,2.73283 3.68383,-0.72221 6.634376,-3.26582 9.353178,-5.69797 3.247788,-3.08402 6.521426,-6.22937 8.994009,-9.99175 1.630362,-2.49063 2.63447,-5.656179 1.646581,-8.582872 -1.004851,-3.052516 -3.357802,-5.429278 -5.775502,-7.439859 -1.776403,-1.423621 -3.96123,-2.475042 -6.279282,-2.44016 z m -1.472657,9.392578 c 1.552255,0.268053 2.65992,1.564061 3.649131,2.692336 0.791549,0.865641 1.180759,2.161934 0.575479,3.239305 -1.237675,2.433972 -3.314655,4.296212 -5.217969,6.204592 -1.485223,1.31512 -2.968722,2.87265 -4.961719,3.35009 -1.573106,0.16012 -2.736891,-1.17744 -3.742303,-2.19454 -0.870534,-0.90291 -1.68794,-2.22583 -1.074103,-3.49491 1.084641,-2.37933 3.078694,-4.175835 4.881846,-6.011957 1.55448,-1.426603 3.096665,-3.065503 5.15917,-3.71851 0.23886,-0.05635 0.484976,-0.08892 0.730468,-0.06641 z" />
    <path
       id="path3246-1-0-0-0"
       style="fill:#ffffff;fill-rule:evenodd;stroke:none;stroke-width:2.5;stroke-linecap:round;stroke-miterlimit:4;stroke-dasharray:none;paint-order:stroke markers fill"
       d="m 49.796875,99.978516 c -2.735155,0.207764 -4.886858,2.152964 -6.878707,3.848964 -2.974666,2.74806 -5.906702,5.57875 -8.421292,8.76147 -1.424203,1.84007 -2.772132,4.23624 -1.972377,6.62148 0.872729,2.46219 3.52131,4.48099 6.209876,3.91457 2.712164,-0.58682 4.801497,-2.58686 6.818285,-4.36413 2.918483,-2.77703 5.864276,-5.57729 8.257887,-8.83314 1.295102,-1.79378 2.304302,-4.20021 1.319666,-6.3663 -0.935334,-2.01106 -3.022204,-3.720275 -5.333338,-3.582914 z" />
    <path
       id="path3246-80-2-6"
       style="fill:#ffffff;fill-rule:evenodd;stroke:none;stroke-width:2.5;stroke-linecap:round;stroke-miterlimit:4;stroke-dasharray:none;paint-order:stroke markers fill"
       d="m 81.480469,61.574219 c -3.622492,0.05844 -6.701128,2.315197 -9.363524,4.550551 -3.223778,2.834507 -6.294062,5.871781 -8.986086,9.220933 -2.032662,2.601611 -3.892374,5.787888 -3.420521,9.217446 0.483132,3.447428 2.988092,6.144912 5.489534,8.366442 2.217633,1.98065 5.21851,3.384131 8.243487,2.816503 3.692233,-0.687441 6.657406,-3.220288 9.377346,-5.649931 3.208842,-3.038827 6.436325,-6.139294 8.912895,-9.824545 1.723932,-2.536216 2.820413,-5.800121 1.800303,-8.822838 -1.007514,-3.048851 -3.35577,-5.427023 -5.774152,-7.434401 -1.776682,-1.423027 -3.960896,-2.476551 -6.279282,-2.44016 z m -1.451172,9.392578 c 1.541936,0.281198 2.642371,1.568961 3.627646,2.692336 0.771834,0.852154 1.183342,2.118438 0.597409,3.187275 -1.204611,2.435498 -3.280728,4.28509 -5.166461,6.188748 -1.506565,1.33297 -3.001514,2.923801 -5.021485,3.414063 -1.541446,0.178592 -2.697399,-1.125918 -3.688478,-2.116856 -0.890684,-0.917666 -1.765096,-2.251208 -1.147459,-3.556972 1.065888,-2.356168 3.036193,-4.135512 4.815615,-5.954368 1.575011,-1.452213 3.137878,-3.121981 5.23126,-3.78782 0.245896,-0.05909 0.499236,-0.0885 0.751953,-0.06641 z" />
    <path
       id="path3246-1-00-2-3"
       style="fill:#ffffff;fill-rule:evenodd;stroke:none;stroke-width:2.5;stroke-linecap:round;stroke-miterlimit:4;stroke-dasharray:none;paint-order:stroke markers fill"
       d="m 72.873047,76.916016 c -2.705886,0.192574 -4.845099,2.108201 -6.816935,3.783327 -3.004076,2.762509 -5.956681,5.617398 -8.493272,8.822878 -1.426965,1.839938 -2.774811,4.238988 -1.975841,6.625706 0.873594,2.463361 3.520545,4.477223 6.209876,3.916523 2.777689,-0.610609 4.903702,-2.676099 6.965585,-4.501368 2.872817,-2.75053 5.785291,-5.512688 8.135978,-8.73691 1.285466,-1.784196 2.272755,-4.17765 1.294275,-6.327237 -0.932858,-2.007139 -3.013767,-3.714187 -5.319666,-3.582919 z" />
    <path
       id="path3246-89-6-2"
       style="fill:#ffffff;fill-rule:evenodd;stroke:none;stroke-width:2.5;stroke-linecap:round;stroke-miterlimit:4;stroke-dasharray:none;paint-order:stroke markers fill"
       d="m 104.53516,38.509766 c -3.65381,0.06659 -6.747438,2.357088 -9.429008,4.614122 -3.24217,2.866465 -6.342946,5.924274 -9.035353,9.318858 -2.000066,2.586479 -3.796177,5.768388 -3.28514,9.157078 0.530929,3.437208 3.041605,6.117776 5.55286,8.330135 2.225266,1.975638 5.252121,3.341803 8.269359,2.734299 3.680492,-0.727163 6.633152,-3.264294 9.349282,-5.697902 3.25566,-3.091589 6.53858,-6.245187 9.01159,-10.021044 1.64678,-2.510877 2.62799,-5.719115 1.59851,-8.6586 -1.05015,-3.03058 -3.39331,-5.402157 -5.82412,-7.396003 -1.76422,-1.397187 -3.91776,-2.413324 -6.20798,-2.380943 z m -1.44336,9.394531 c 1.57635,0.290982 2.69393,1.618292 3.69257,2.773515 0.76334,0.854951 1.09415,2.121368 0.5086,3.165938 -1.25983,2.456515 -3.35597,4.341551 -5.28945,6.262702 -1.45851,1.289765 -2.919436,2.811492 -4.874614,3.280267 -1.541044,0.175563 -2.697314,-1.123782 -3.688478,-2.116856 -0.891613,-0.918186 -1.761439,-2.252711 -1.147459,-3.556972 1.067657,-2.355565 3.03718,-4.134132 4.815615,-5.954368 1.57783,-1.457155 3.146086,-3.126163 5.244936,-3.793679 0.24156,-0.05697 0.49058,-0.08011 0.73828,-0.06055 z" />
    <path
       id="path3246-1-4-5-3"
       style="fill:#ffffff;fill-rule:evenodd;stroke:none;stroke-width:2.5;stroke-linecap:round;stroke-miterlimit:4;stroke-dasharray:none;paint-order:stroke markers fill"
       d="m 95.935547,53.853516 c -2.705505,0.192442 -4.844558,2.107091 -6.814881,3.783444 -2.983824,2.736495 -5.906404,5.573527 -8.435926,8.742314 -1.426987,1.839753 -2.810256,4.208782 -2.065069,6.610705 0.828031,2.480549 3.455999,4.537657 6.152111,4.025773 2.718978,-0.545642 4.81808,-2.540497 6.832228,-4.312239 2.946787,-2.795629 5.915324,-5.620365 8.331537,-8.900779 1.295423,-1.794091 2.305773,-4.199789 1.319663,-6.366299 -0.93137,-2.008554 -3.014021,-3.713807 -5.319663,-3.582919 z" />
    <path
       id="path3246-4-5-1"
       style="fill:#ffffff;fill-rule:evenodd;stroke:none;stroke-width:2.5;stroke-linecap:round;stroke-miterlimit:4;stroke-dasharray:none;paint-order:stroke markers fill"
       d="m 127.59766,15.447266 c -3.65367,0.06702 -6.74793,2.356553 -9.42901,4.614122 -3.21767,2.842219 -6.29179,5.876916 -8.97129,9.237019 -2.02699,2.60318 -3.86231,5.808331 -3.34873,9.231293 0.52574,3.440834 3.04119,6.125887 5.55469,8.339296 2.22676,1.976261 5.2568,3.342256 8.2748,2.730464 3.67759,-0.728285 6.62726,-3.263966 9.34154,-5.695604 3.25762,-3.092248 6.54055,-6.248271 9.0155,-10.02495 1.62148,-2.485405 2.60961,-5.643839 1.62334,-8.558912 -1.02341,-3.080475 -3.40368,-5.479287 -5.85719,-7.497091 -1.76478,-1.393273 -3.91539,-2.408168 -6.20365,-2.375637 z m -1.44532,9.392578 c 1.57377,0.293205 2.69144,1.615105 3.68982,2.768709 0.76693,0.856367 1.10074,2.124965 0.51331,3.172697 -1.26001,2.455715 -3.35494,4.341269 -5.28751,6.262691 -1.46113,1.286946 -2.92073,2.811308 -4.87655,3.280278 -1.5815,0.171196 -2.75299,-1.175871 -3.7629,-2.19926 -0.86534,-0.8983 -1.67159,-2.212479 -1.07304,-3.474568 1.05398,-2.324723 2.98922,-4.088635 4.74469,-5.885821 1.59881,-1.479122 3.18305,-3.178406 5.31,-3.860273 0.24268,-0.05893 0.49297,-0.08067 0.74218,-0.06445 z" />
    <path
       id="path3246-1-8-5-5"
       style="fill:#ffffff;fill-rule:evenodd;stroke:none;stroke-width:2.5;stroke-linecap:round;stroke-miterlimit:4;stroke-dasharray:none;paint-order:stroke markers fill"
       d="m 118.99805,30.791016 c -2.70551,0.192609 -4.84447,2.107286 -6.81488,3.783444 -2.98386,2.736465 -5.90634,5.573593 -8.43593,8.742314 -1.42777,1.839317 -2.80781,4.209165 -2.06507,6.610705 0.82851,2.478767 3.45629,4.540538 6.15211,4.02382 2.7199,-0.542364 4.81796,-2.539268 6.8322,-4.310324 2.86805,-2.718138 5.75094,-5.467434 8.13254,-8.632974 1.35507,-1.796862 2.49318,-4.201041 1.59551,-6.449407 -0.87505,-2.095627 -3.03333,-3.90359 -5.39648,-3.767578 z" />
    <path
       id="path3246-1-1-5-5"
       style="fill:#ffffff;fill-rule:evenodd;stroke:none;stroke-width:2.5;stroke-linecap:round;stroke-miterlimit:4;stroke-dasharray:none;paint-order:stroke markers fill"
       d="m 142.06055,7.7285156 c -2.70481,0.1927729 -4.84373,2.106698 -6.81499,3.7813744 -2.98155,2.740981 -5.90748,5.576321 -8.43765,8.746431 -1.42817,1.841152 -2.80632,4.211169 -2.06303,6.614451 0.83592,2.47262 3.45634,4.53706 6.1519,4.018027 2.68649,-0.533186 4.76612,-2.495907 6.75855,-4.242674 2.87,-2.716385 5.75399,-5.463071 8.14757,-8.619601 1.38036,-1.81523 2.56496,-4.246073 1.65413,-6.53043 -0.87428,-2.0970217 -3.03322,-3.9029069 -5.39648,-3.7675784 z" />
  </g>
  <g
     inkscape:groupmode="layer"
     id="g9244"
     inkscape:label="glow copy"
     style="display:inline;mix-blend-mode:color-dodge;filter:url(#filter9009)"
     sodipodi:insensitive="true">
    <path
       id="path9200"
       style="fill:#ffffff;fill-rule:evenodd;stroke:none;stroke-width:2.5;stroke-linecap:round;stroke-miterlimit:4;stroke-dasharray:none;paint-order:stroke markers fill"
       d="m 121.48047,107.69922 c -3.45421,0.0337 -6.32814,2.33288 -8.59232,4.72562 -2.16506,2.22414 -3.985,5.18032 -3.65768,8.40328 0.38307,3.67798 2.79881,6.69823 5.1394,9.39337 2.95199,3.22047 6.02484,6.37985 9.55059,8.97945 2.55805,1.87967 5.80148,3.36172 9.0296,2.57626 3.30075,-0.80083 5.84378,-3.29323 7.98158,-5.80064 1.85206,-2.21277 3.04137,-5.18986 2.38165,-8.0893 -0.79593,-3.66325 -3.35358,-6.5854 -5.78926,-9.30173 -3.10895,-3.24195 -6.2562,-6.54294 -10.06638,-8.97204 -1.79255,-1.11175 -3.8369,-1.94632 -5.97718,-1.91427 z m 1.94922,9.39062 c 1.86228,0.29709 3.2644,1.72767 4.64142,2.90234 2.0308,1.95575 4.16829,3.90673 5.58123,6.37696 0.60991,0.97504 0.58958,2.26423 -0.15646,3.16234 -0.94406,1.22457 -2.0616,2.47456 -3.55643,3.00172 -1.57545,0.31368 -2.9188,-0.88635 -4.0907,-1.76227 -2.3581,-2.04545 -4.65083,-4.23252 -6.44055,-6.80413 -0.68937,-0.99866 -1.19349,-2.38529 -0.42187,-3.48828 0.91301,-1.34793 2.09921,-2.63481 3.62109,-3.28321 0.26362,-0.0876 0.5451,-0.12344 0.82227,-0.10547 z" />
    <path
       id="path9202"
       style="fill:#ffffff;fill-rule:evenodd;stroke:none;stroke-width:2.5;stroke-linecap:round;stroke-miterlimit:4;stroke-dasharray:none;paint-order:stroke markers fill"
       d="m 130.07031,123.03516 c -2.48421,-0.009 -4.68761,1.98086 -5.38476,4.28711 -0.63883,2.53739 0.9155,4.91728 2.4271,6.80929 2.53353,3.06786 5.38553,5.86519 8.33293,8.53256 1.94957,1.6471 4.10274,3.51525 6.78489,3.61322 2.48569,0.0162 4.69978,-1.96995 5.39453,-4.28125 0.64091,-2.4997 -0.87561,-4.86155 -2.36026,-6.73549 -2.54613,-3.10104 -5.42559,-5.91881 -8.39586,-8.61027 -1.95184,-1.64451 -4.11218,-3.52819 -6.79857,-3.61517 z" />
    <path
       id="path9204"
       style="fill:#ffffff;fill-rule:evenodd;stroke:none;stroke-width:2.5;stroke-linecap:round;stroke-miterlimit:4;stroke-dasharray:none;paint-order:stroke markers fill"
       d="m 98.425781,84.636719 c -3.457549,0.02882 -6.334443,2.331221 -8.600136,4.72562 -2.165133,2.223775 -3.986169,5.180179 -3.657676,8.403286 0.377026,3.643355 2.757786,6.644035 5.073446,9.318205 2.944448,3.22679 6.019655,6.38078 9.532865,8.99502 2.55369,1.88488 5.7778,3.40304 9.01541,2.65639 3.31577,-0.75835 5.87386,-3.24996 8.02086,-5.75086 1.88408,-2.2236 3.10799,-5.22805 2.44024,-8.15962 -0.78819,-3.6308 -3.31163,-6.537273 -5.72674,-9.230882 -3.07529,-3.227448 -6.20535,-6.488533 -9.95764,-8.939581 -1.83853,-1.156552 -3.93231,-2.051824 -6.140629,-2.017578 z m 1.941409,9.390625 c 1.88165,0.303662 3.29791,1.752881 4.68555,2.94484 2.01482,1.943291 4.13599,3.880806 5.5371,6.334456 0.61759,0.98282 0.58288,2.28225 -0.17036,3.18367 -0.96847,1.22739 -2.09626,2.53183 -3.64032,3.00128 -1.61131,0.23237 -2.94554,-1.00029 -4.13822,-1.90245 -2.3008,-2.0255 -4.554578,-4.16967 -6.305002,-6.70047 -0.711533,-1.01911 -1.191499,-2.455905 -0.358989,-3.557379 0.927929,-1.328461 2.110962,-2.620413 3.648265,-3.222855 0.240392,-0.06699 0.492526,-0.09865 0.741976,-0.08109 z" />
    <path
       id="path9206"
       style="fill:#ffffff;fill-rule:evenodd;stroke:none;stroke-width:2.5;stroke-linecap:round;stroke-miterlimit:4;stroke-dasharray:none;paint-order:stroke markers fill"
       d="m 107.00586,99.972656 c -2.48456,-0.0063 -4.68748,1.980594 -5.38477,4.289064 -0.63391,2.53716 0.91644,4.91636 2.42906,6.80734 2.55516,3.0912 5.42713,5.91456 8.40636,8.59437 1.92717,1.62628 4.06282,3.4574 6.71146,3.55141 2.48619,0.0142 4.7007,-1.97031 5.39453,-4.2832 0.6403,-2.5014 -0.87687,-4.86101 -2.36238,-6.73535 -2.59136,-3.14841 -5.51293,-6.01807 -8.54463,-8.73974 -1.90701,-1.59773 -4.03351,-3.40634 -6.64963,-3.483894 z" />
    <path
       id="path9208"
       style="fill:#ffffff;fill-rule:evenodd;stroke:none;stroke-width:2.5;stroke-linecap:round;stroke-miterlimit:4;stroke-dasharray:none;paint-order:stroke markers fill"
       d="m 75.363281,61.574219 c -3.455596,0.02788 -6.331342,2.32919 -8.597125,4.720845 -2.165694,2.226342 -3.991031,5.183804 -3.660687,8.410014 0.381946,3.67823 2.799998,6.695793 5.139397,9.391416 2.929526,3.19536 5.978421,6.328148 9.466911,8.91986 2.554107,1.886233 5.778939,3.401871 9.017323,2.656161 3.328818,-0.763626 5.894672,-3.269519 8.046291,-5.783843 1.870272,-2.218338 3.07516,-5.209858 2.412898,-8.12641 C 96.390022,78.09817 93.83451,75.172133 91.394244,72.45742 88.28868,69.216756 85.142525,65.919871 81.336803,63.490041 c -1.79041,-1.111757 -3.83528,-1.946033 -5.973522,-1.915822 z m 1.941407,9.390625 c 1.881299,0.303978 3.297587,1.751695 4.685547,2.942886 2.014595,1.94488 4.134821,3.883679 5.539062,6.336411 0.599149,0.969289 0.593777,2.251316 -0.148749,3.144698 -0.941767,1.234104 -2.066619,2.488542 -3.566095,3.019364 -1.608208,0.315871 -2.966803,-0.92596 -4.160156,-1.816406 -2.330573,-2.045782 -4.61844,-4.20938 -6.384766,-6.773438 -0.691088,-0.996995 -1.174849,-2.389021 -0.398437,-3.482421 0.912101,-1.340986 2.093872,-2.619677 3.609375,-3.265626 0.265951,-0.08405 0.545128,-0.127659 0.824219,-0.105468 z" />
    <path
       id="path9210"
       style="fill:#ffffff;fill-rule:evenodd;stroke:none;stroke-width:2.5;stroke-linecap:round;stroke-miterlimit:4;stroke-dasharray:none;paint-order:stroke markers fill"
       d="m 83.943359,76.910156 c -2.484687,-0.0062 -4.687882,1.980018 -5.384765,4.289063 -0.636454,2.537473 0.917434,4.915954 2.429054,6.807343 2.555086,3.091268 5.427162,5.91453 8.406358,8.594364 1.930211,1.62885 4.070874,3.464854 6.725135,3.551414 2.484755,0.006 4.689029,-1.978903 5.384769,-4.289059 0.63536,-2.536151 -0.91518,-4.916443 -2.428998,-6.805439 -2.576354,-3.118129 -5.474121,-5.9645 -8.481923,-8.663789 -1.906506,-1.595845 -4.034528,-3.409138 -6.64963,-3.483897 z" />
    <path
       id="path9212"
       style="fill:#ffffff;fill-rule:evenodd;stroke:none;stroke-width:2.5;stroke-linecap:round;stroke-miterlimit:4;stroke-dasharray:none;paint-order:stroke markers fill"
       d="m 52.292969,38.509766 c -3.475377,0.03644 -6.357985,2.359721 -8.632813,4.767578 -2.14446,2.219111 -3.946995,5.161323 -3.617187,8.365234 0.386688,3.713308 2.842321,6.748825 5.205349,9.466585 2.958761,3.212815 6.028331,6.375361 9.563908,8.960655 2.54378,1.852109 5.763545,3.301809 8.959732,2.51619 3.294475,-0.800521 5.832324,-3.290176 7.966323,-5.793039 1.884059,-2.235713 3.065834,-5.26588 2.367968,-8.195186 -0.85495,-3.694167 -3.453824,-6.633887 -5.930639,-9.373733 -3.191207,-3.302865 -6.413412,-6.692502 -10.374829,-9.083425 -1.675216,-0.961958 -3.55297,-1.659145 -5.507812,-1.630859 z m 1.976562,9.394531 c 1.899626,0.331608 3.32899,1.795871 4.731642,3.008808 1.985097,1.924956 4.077357,3.841492 5.461718,6.264629 0.611624,0.977701 0.592857,2.273074 -0.160604,3.171948 -0.961409,1.241022 -2.102091,2.534606 -3.644367,3.016215 -1.610405,0.235983 -2.945057,-0.996354 -4.136088,-1.897892 -2.302865,-2.03052 -4.568237,-4.171805 -6.314801,-6.712146 -0.715269,-1.016665 -1.179121,-2.454179 -0.35526,-3.551632 0.912632,-1.307186 2.07244,-2.566171 3.566198,-3.196415 0.274668,-0.08749 0.563506,-0.129368 0.851562,-0.103515 z" />
    <path
       id="path9214"
       style="fill:#ffffff;fill-rule:evenodd;stroke:none;stroke-width:2.5;stroke-linecap:round;stroke-miterlimit:4;stroke-dasharray:none;paint-order:stroke markers fill"
       d="m 60.880859,53.847656 c -2.484755,-0.0062 -4.689032,1.978907 -5.384765,4.289063 -0.635365,2.536151 0.91518,4.916443 2.428994,6.805439 2.576354,3.118129 5.474121,5.9645 8.481923,8.663789 1.932236,1.620093 4.090591,3.455618 6.749606,3.481707 2.44591,-0.04487 4.596586,-2.009395 5.284789,-4.286873 0.636454,-2.537473 -0.917434,-4.915954 -2.429054,-6.807343 -2.555086,-3.091268 -5.427162,-5.91453 -8.406358,-8.594364 -1.924578,-1.620066 -4.077448,-3.47394 -6.725135,-3.551418 z" />
    <path
       id="path9216"
       style="fill:#ffffff;fill-rule:evenodd;stroke:none;stroke-width:2.5;stroke-linecap:round;stroke-miterlimit:4;stroke-dasharray:none;paint-order:stroke markers fill"
       d="m 29.230469,15.447266 c -3.451895,0.03559 -6.32343,2.33063 -8.58828,4.71995 -2.163725,2.226741 -3.992362,5.183141 -3.66172,8.408956 0.378171,3.680522 2.800404,6.698004 5.139298,9.395409 2.904474,3.17403 5.934237,6.276569 9.385536,8.861792 2.552731,1.890665 5.759585,3.442164 9.008606,2.732092 3.325415,-0.720034 5.896353,-3.204924 8.048302,-5.698284 1.922515,-2.235011 3.176209,-5.275557 2.497888,-8.241392 -0.811362,-3.697853 -3.404333,-6.640239 -5.86674,-9.379695 -3.158333,-3.275211 -6.345682,-6.631102 -10.242589,-9.039513 -1.727331,-1.033636 -3.681572,-1.786809 -5.720301,-1.759315 z m 1.976562,9.394531 c 1.89967,0.331642 3.328987,1.795866 4.731642,3.008808 1.987273,1.922717 4.07662,3.842273 5.461718,6.264629 0.617761,0.982847 0.588595,2.284261 -0.168997,3.185213 -0.971747,1.233836 -2.107144,2.547215 -3.662939,3.008614 -1.604558,0.212019 -2.927866,-1.007475 -4.11502,-1.909371 -2.303686,-2.025593 -4.562575,-4.169627 -6.308904,-6.706331 -0.685122,-0.993006 -1.174038,-2.374886 -0.408203,-3.466797 0.911141,-1.349226 2.098965,-2.631585 3.619141,-3.28125 0.274899,-0.08917 0.562825,-0.131188 0.851562,-0.103515 z" />
    <path
       id="path9218"
       style="fill:#ffffff;fill-rule:evenodd;stroke:none;stroke-width:2.5;stroke-linecap:round;stroke-miterlimit:4;stroke-dasharray:none;paint-order:stroke markers fill"
       d="m 37.832031,30.785156 c -2.48592,-0.01437 -4.69888,1.969592 -5.394531,4.28125 -0.6406,2.500601 0.876279,4.863547 2.36238,6.737308 2.59136,3.148409 5.512931,6.018067 8.544631,8.739733 1.931885,1.621488 4.090592,3.453273 6.749606,3.481707 2.445769,-0.04472 4.596196,-2.009969 5.284789,-4.286873 0.633915,-2.537157 -0.916436,-4.916363 -2.429054,-6.807343 -2.555158,-3.091201 -5.427131,-5.914562 -8.406358,-8.594364 -1.921179,-1.617399 -4.069918,-3.466627 -6.711463,-3.551418 z" />
    <path
       id="path9220"
       style="fill:#ffffff;fill-rule:evenodd;stroke:none;stroke-width:2.5;stroke-linecap:round;stroke-miterlimit:4;stroke-dasharray:none;paint-order:stroke markers fill"
       d="M 14.769531,7.7226562 C 12.283841,7.706505 10.069754,9.6926092 9.375,12.003906 c -0.6407175,2.499637 0.875665,4.861546 2.360255,6.735495 2.546131,3.10104 5.425595,5.918808 8.395869,8.610271 1.952776,1.650562 4.110613,3.521445 6.798564,3.615172 2.484208,0.0094 4.687609,-1.980865 5.384765,-4.28711 C 32.95328,24.140337 31.398954,21.760451 29.887352,19.868438 27.353823,16.80058 24.501816,14.003246 21.554423,11.335875 19.606033,9.6949309 17.449855,7.813807 14.769531,7.7226562 Z" />
    <path
       id="path9222"
       style="fill:#ffffff;fill-rule:evenodd;stroke:none;stroke-width:2.5;stroke-linecap:round;stroke-miterlimit:4;stroke-dasharray:none;paint-order:stroke markers fill"
       d="m 35.355469,107.69922 c -3.62156,0.0602 -6.701688,2.31504 -9.363524,4.55055 -3.247718,2.85714 -6.3454,5.91547 -9.046503,9.30062 -2.029307,2.60391 -3.86305,5.81261 -3.347283,9.23693 0.530199,3.43678 3.040244,6.11799 5.550843,8.33022 2.225923,1.97237 5.250644,3.34412 8.267483,2.73429 3.682618,-0.72033 6.630508,-3.26482 9.349891,-5.69339 3.255817,-3.0965 6.545109,-6.24861 9.016827,-10.02953 1.62182,-2.4821 2.607851,-5.63686 1.62705,-8.54967 -1.019154,-3.08152 -3.400293,-5.48067 -5.852327,-7.49951 -1.763677,-1.3953 -3.913935,-2.41224 -6.202457,-2.38051 z m -1.472657,9.39258 c 1.557675,0.26354 2.662351,1.57377 3.656428,2.70054 0.78715,0.86395 1.171037,2.1582 0.568182,3.2311 -1.240157,2.43213 -3.311706,4.299 -5.217969,6.20459 -1.485227,1.31516 -2.968678,2.87257 -4.961719,3.35009 -1.572348,0.16241 -2.736932,-1.1783 -3.742303,-2.19454 -0.870607,-0.9044 -1.688882,-2.22487 -1.074103,-3.49491 1.068218,-2.34932 3.031347,-4.127 4.808385,-5.94205 1.571756,-1.44704 3.129158,-3.10639 5.211179,-3.78276 0.245397,-0.0605 0.499059,-0.095 0.75192,-0.0721 z" />
    <path
       id="path9224"
       style="fill:#ffffff;fill-rule:evenodd;stroke:none;stroke-width:2.5;stroke-linecap:round;stroke-miterlimit:4;stroke-dasharray:none;paint-order:stroke markers fill"
       d="m 26.730469,123.04102 c -2.733208,0.21025 -4.883606,2.15385 -6.874801,3.84896 -2.972125,2.75057 -5.908351,5.57703 -8.421479,8.76133 -1.40234,1.81728 -2.7382587,4.16507 -2.0020178,6.52617 0.8317438,2.5114 3.5181468,4.57915 6.2377508,4.01197 2.743507,-0.60047 4.854825,-2.62797 6.891889,-4.43182 2.888043,-2.75986 5.813863,-5.53283 8.18233,-8.76544 1.300119,-1.78923 2.302855,-4.19729 1.327999,-6.36261 -0.938557,-2.0101 -3.026916,-3.73081 -5.341671,-3.58856 z" />
    <path
       id="path9226"
       style="fill:#ffffff;fill-rule:evenodd;stroke:none;stroke-width:2.5;stroke-linecap:round;stroke-miterlimit:4;stroke-dasharray:none;paint-order:stroke markers fill"
       d="m 58.417969,84.636719 c -3.62159,0.05925 -6.701628,2.315325 -9.363524,4.550551 -3.248152,2.856867 -6.344548,5.916181 -9.046503,9.300618 -2.028796,2.604492 -3.863618,5.812202 -3.347283,9.236932 0.530719,3.43734 3.041833,6.11892 5.553211,8.33168 2.225868,1.97106 5.248878,3.34305 8.265115,2.73283 3.68383,-0.72221 6.634376,-3.26582 9.353178,-5.69797 3.247788,-3.08402 6.521426,-6.22937 8.994009,-9.99175 1.630362,-2.49063 2.63447,-5.656179 1.646581,-8.582872 -1.004851,-3.052516 -3.357802,-5.429278 -5.775502,-7.439859 -1.776403,-1.423621 -3.96123,-2.475042 -6.279282,-2.44016 z m -1.472657,9.392578 c 1.552255,0.268053 2.65992,1.564061 3.649131,2.692336 0.791549,0.865641 1.180759,2.161934 0.575479,3.239305 -1.237675,2.433972 -3.314655,4.296212 -5.217969,6.204592 -1.485223,1.31512 -2.968722,2.87265 -4.961719,3.35009 -1.573106,0.16012 -2.736891,-1.17744 -3.742303,-2.19454 -0.870534,-0.90291 -1.68794,-2.22583 -1.074103,-3.49491 1.084641,-2.37933 3.078694,-4.175835 4.881846,-6.011957 1.55448,-1.426603 3.096665,-3.065503 5.15917,-3.71851 0.23886,-0.05635 0.484976,-0.08892 0.730468,-0.06641 z" />
    <path
       id="path9228"
       style="fill:#ffffff;fill-rule:evenodd;stroke:none;stroke-width:2.5;stroke-linecap:round;stroke-miterlimit:4;stroke-dasharray:none;paint-order:stroke markers fill"
       d="m 49.796875,99.978516 c -2.735155,0.207764 -4.886858,2.152964 -6.878707,3.848964 -2.974666,2.74806 -5.906702,5.57875 -8.421292,8.76147 -1.424203,1.84007 -2.772132,4.23624 -1.972377,6.62148 0.872729,2.46219 3.52131,4.48099 6.209876,3.91457 2.712164,-0.58682 4.801497,-2.58686 6.818285,-4.36413 2.918483,-2.77703 5.864276,-5.57729 8.257887,-8.83314 1.295102,-1.79378 2.304302,-4.20021 1.319666,-6.3663 -0.935334,-2.01106 -3.022204,-3.720275 -5.333338,-3.582914 z" />
    <path
       id="path9230"
       style="fill:#ffffff;fill-rule:evenodd;stroke:none;stroke-width:2.5;stroke-linecap:round;stroke-miterlimit:4;stroke-dasharray:none;paint-order:stroke markers fill"
       d="m 81.480469,61.574219 c -3.622492,0.05844 -6.701128,2.315197 -9.363524,4.550551 -3.223778,2.834507 -6.294062,5.871781 -8.986086,9.220933 -2.032662,2.601611 -3.892374,5.787888 -3.420521,9.217446 0.483132,3.447428 2.988092,6.144912 5.489534,8.366442 2.217633,1.98065 5.21851,3.384131 8.243487,2.816503 3.692233,-0.687441 6.657406,-3.220288 9.377346,-5.649931 3.208842,-3.038827 6.436325,-6.139294 8.912895,-9.824545 1.723932,-2.536216 2.820413,-5.800121 1.800303,-8.822838 -1.007514,-3.048851 -3.35577,-5.427023 -5.774152,-7.434401 -1.776682,-1.423027 -3.960896,-2.476551 -6.279282,-2.44016 z m -1.451172,9.392578 c 1.541936,0.281198 2.642371,1.568961 3.627646,2.692336 0.771834,0.852154 1.183342,2.118438 0.597409,3.187275 -1.204611,2.435498 -3.280728,4.28509 -5.166461,6.188748 -1.506565,1.33297 -3.001514,2.923801 -5.021485,3.414063 -1.541446,0.178592 -2.697399,-1.125918 -3.688478,-2.116856 -0.890684,-0.917666 -1.765096,-2.251208 -1.147459,-3.556972 1.065888,-2.356168 3.036193,-4.135512 4.815615,-5.954368 1.575011,-1.452213 3.137878,-3.121981 5.23126,-3.78782 0.245896,-0.05909 0.499236,-0.0885 0.751953,-0.06641 z" />
    <path
       id="path9232"
       style="fill:#ffffff;fill-rule:evenodd;stroke:none;stroke-width:2.5;stroke-linecap:round;stroke-miterlimit:4;stroke-dasharray:none;paint-order:stroke markers fill"
       d="m 72.873047,76.916016 c -2.705886,0.192574 -4.845099,2.108201 -6.816935,3.783327 -3.004076,2.762509 -5.956681,5.617398 -8.493272,8.822878 -1.426965,1.839938 -2.774811,4.238988 -1.975841,6.625706 0.873594,2.463361 3.520545,4.477223 6.209876,3.916523 2.777689,-0.610609 4.903702,-2.676099 6.965585,-4.501368 2.872817,-2.75053 5.785291,-5.512688 8.135978,-8.73691 1.285466,-1.784196 2.272755,-4.17765 1.294275,-6.327237 -0.932858,-2.007139 -3.013767,-3.714187 -5.319666,-3.582919 z" />
    <path
       id="path9234"
       style="fill:#ffffff;fill-rule:evenodd;stroke:none;stroke-width:2.5;stroke-linecap:round;stroke-miterlimit:4;stroke-dasharray:none;paint-order:stroke markers fill"
       d="m 104.53516,38.509766 c -3.65381,0.06659 -6.747438,2.357088 -9.429008,4.614122 -3.24217,2.866465 -6.342946,5.924274 -9.035353,9.318858 -2.000066,2.586479 -3.796177,5.768388 -3.28514,9.157078 0.530929,3.437208 3.041605,6.117776 5.55286,8.330135 2.225266,1.975638 5.252121,3.341803 8.269359,2.734299 3.680492,-0.727163 6.633152,-3.264294 9.349282,-5.697902 3.25566,-3.091589 6.53858,-6.245187 9.01159,-10.021044 1.64678,-2.510877 2.62799,-5.719115 1.59851,-8.6586 -1.05015,-3.03058 -3.39331,-5.402157 -5.82412,-7.396003 -1.76422,-1.397187 -3.91776,-2.413324 -6.20798,-2.380943 z m -1.44336,9.394531 c 1.57635,0.290982 2.69393,1.618292 3.69257,2.773515 0.76334,0.854951 1.09415,2.121368 0.5086,3.165938 -1.25983,2.456515 -3.35597,4.341551 -5.28945,6.262702 -1.45851,1.289765 -2.919436,2.811492 -4.874614,3.280267 -1.541044,0.175563 -2.697314,-1.123782 -3.688478,-2.116856 -0.891613,-0.918186 -1.761439,-2.252711 -1.147459,-3.556972 1.067657,-2.355565 3.03718,-4.134132 4.815615,-5.954368 1.57783,-1.457155 3.146086,-3.126163 5.244936,-3.793679 0.24156,-0.05697 0.49058,-0.08011 0.73828,-0.06055 z" />
    <path
       id="path9236"
       style="fill:#ffffff;fill-rule:evenodd;stroke:none;stroke-width:2.5;stroke-linecap:round;stroke-miterlimit:4;stroke-dasharray:none;paint-order:stroke markers fill"
       d="m 95.935547,53.853516 c -2.705505,0.192442 -4.844558,2.107091 -6.814881,3.783444 -2.983824,2.736495 -5.906404,5.573527 -8.435926,8.742314 -1.426987,1.839753 -2.810256,4.208782 -2.065069,6.610705 0.828031,2.480549 3.455999,4.537657 6.152111,4.025773 2.718978,-0.545642 4.81808,-2.540497 6.832228,-4.312239 2.946787,-2.795629 5.915324,-5.620365 8.331537,-8.900779 1.295423,-1.794091 2.305773,-4.199789 1.319663,-6.366299 -0.93137,-2.008554 -3.014021,-3.713807 -5.319663,-3.582919 z" />
    <path
       id="path9238"
       style="fill:#ffffff;fill-rule:evenodd;stroke:none;stroke-width:2.5;stroke-linecap:round;stroke-miterlimit:4;stroke-dasharray:none;paint-order:stroke markers fill"
       d="m 127.59766,15.447266 c -3.65367,0.06702 -6.74793,2.356553 -9.42901,4.614122 -3.21767,2.842219 -6.29179,5.876916 -8.97129,9.237019 -2.02699,2.60318 -3.86231,5.808331 -3.34873,9.231293 0.52574,3.440834 3.04119,6.125887 5.55469,8.339296 2.22676,1.976261 5.2568,3.342256 8.2748,2.730464 3.67759,-0.728285 6.62726,-3.263966 9.34154,-5.695604 3.25762,-3.092248 6.54055,-6.248271 9.0155,-10.02495 1.62148,-2.485405 2.60961,-5.643839 1.62334,-8.558912 -1.02341,-3.080475 -3.40368,-5.479287 -5.85719,-7.497091 -1.76478,-1.393273 -3.91539,-2.408168 -6.20365,-2.375637 z m -1.44532,9.392578 c 1.57377,0.293205 2.69144,1.615105 3.68982,2.768709 0.76693,0.856367 1.10074,2.124965 0.51331,3.172697 -1.26001,2.455715 -3.35494,4.341269 -5.28751,6.262691 -1.46113,1.286946 -2.92073,2.811308 -4.87655,3.280278 -1.5815,0.171196 -2.75299,-1.175871 -3.7629,-2.19926 -0.86534,-0.8983 -1.67159,-2.212479 -1.07304,-3.474568 1.05398,-2.324723 2.98922,-4.088635 4.74469,-5.885821 1.59881,-1.479122 3.18305,-3.178406 5.31,-3.860273 0.24268,-0.05893 0.49297,-0.08067 0.74218,-0.06445 z" />
    <path
       id="path9240"
       style="fill:#ffffff;fill-rule:evenodd;stroke:none;stroke-width:2.5;stroke-linecap:round;stroke-miterlimit:4;stroke-dasharray:none;paint-order:stroke markers fill"
       d="m 118.99805,30.791016 c -2.70551,0.192609 -4.84447,2.107286 -6.81488,3.783444 -2.98386,2.736465 -5.90634,5.573593 -8.43593,8.742314 -1.42777,1.839317 -2.80781,4.209165 -2.06507,6.610705 0.82851,2.478767 3.45629,4.540538 6.15211,4.02382 2.7199,-0.542364 4.81796,-2.539268 6.8322,-4.310324 2.86805,-2.718138 5.75094,-5.467434 8.13254,-8.632974 1.35507,-1.796862 2.49318,-4.201041 1.59551,-6.449407 -0.87505,-2.095627 -3.03333,-3.90359 -5.39648,-3.767578 z" />
    <path
       id="path9242"
       style="fill:#ffffff;fill-rule:evenodd;stroke:none;stroke-width:2.5;stroke-linecap:round;stroke-miterlimit:4;stroke-dasharray:none;paint-order:stroke markers fill"
       d="m 142.06055,7.7285156 c -2.70481,0.1927729 -4.84373,2.106698 -6.81499,3.7813744 -2.98155,2.740981 -5.90748,5.576321 -8.43765,8.746431 -1.42817,1.841152 -2.80632,4.211169 -2.06303,6.614451 0.83592,2.47262 3.45634,4.53706 6.1519,4.018027 2.68649,-0.533186 4.76612,-2.495907 6.75855,-4.242674 2.87,-2.716385 5.75399,-5.463071 8.14757,-8.619601 1.38036,-1.81523 2.56496,-4.246073 1.65413,-6.53043 -0.87428,-2.0970217 -3.03322,-3.9029069 -5.39648,-3.7675784 z" />
  </g>
  <g
     inkscape:groupmode="layer"
     id="layer1"
     inkscape:label="Image 1"
     sodipodi:insensitive="true"
     style="display:inline">
    <path
       id="path3246"
       style="fill:#767272;fill-rule:evenodd;stroke:#d0cac6;stroke-width:2.5;stroke-linecap:round;stroke-miterlimit:4;stroke-dasharray:none;paint-order:stroke markers fill"
       d="m 114.8129,113.3129 c -5.89622,5.89622 -4.63612,10.06482 4.18091,18.88185 8.81703,8.81702 12.98563,10.07713 18.88186,4.18091 5.89622,-5.89623 4.63611,-10.06482 -4.18092,-18.88185 -8.81703,-8.81703 -12.98562,-10.07714 -18.88185,-4.18091 z m 4.10035,4.10034 c 3.79969,-3.79969 6.48604,-2.98784 12.16798,2.6941 5.68193,5.68193 6.49378,8.36828 2.69409,12.16797 -3.79969,3.79969 -6.48604,2.98785 -12.16798,-2.69409 -5.68194,-5.68194 -6.49379,-8.36829 -2.69409,-12.16798 z" />
    <path
       id="path3246-1"
       style="fill:#767272;fill-rule:evenodd;stroke:#d0cac6;stroke-width:2.5;stroke-linecap:round;stroke-miterlimit:4;stroke-dasharray:none;paint-order:stroke markers fill"
       d="m 127.66228,126.16228 c -2.44205,2.44205 -1.04482,5.04389 5.45028,11.53899 6.49509,6.49509 9.09693,7.89232 11.53898,5.45027 2.44206,-2.44205 1.04483,-5.0439 -5.45027,-11.53899 -6.49509,-6.49509 -9.09693,-7.89233 -11.53899,-5.45027 z"
       sodipodi:nodetypes="sssss" />
    <path
       id="path3246-8"
       style="fill:#767272;fill-rule:evenodd;stroke:#d0cac6;stroke-width:2.5;stroke-linecap:round;stroke-miterlimit:4;stroke-dasharray:none;paint-order:stroke markers fill"
       d="m 91.750135,90.25013 c -5.896223,5.896228 -4.636118,10.06482 4.180914,18.88185 8.817031,8.81703 12.985621,10.07714 18.881851,4.18092 5.89622,-5.89623 4.63611,-10.06483 -4.18091,-18.881856 C 101.81496,85.614012 97.646363,84.353907 91.750135,90.25013 Z m 4.100348,4.100348 c 3.79969,-3.799694 6.486037,-2.987847 12.167977,2.694092 5.68194,5.68194 6.49378,8.36829 2.69409,12.16798 -3.79969,3.79969 -6.48604,2.98784 -12.167975,-2.69409 -5.681939,-5.68194 -6.493786,-8.368292 -2.694092,-12.167982 z" />
    <path
       id="path3246-1-0"
       style="fill:#767272;fill-rule:evenodd;stroke:#d0cac6;stroke-width:2.5;stroke-linecap:round;stroke-miterlimit:4;stroke-dasharray:none;paint-order:stroke markers fill"
       d="m 104.59952,103.09951 c -2.44206,2.44205 -1.04482,5.0439 5.45027,11.53899 6.49509,6.4951 9.09694,7.89233 11.53899,5.45027 2.44205,-2.44205 1.04482,-5.04389 -5.45027,-11.53898 -6.4951,-6.4951 -9.09694,-7.89233 -11.53899,-5.45028 z"
       sodipodi:nodetypes="sssss" />
    <path
       id="path3246-80"
       style="fill:#767272;fill-rule:evenodd;stroke:#d0cac6;stroke-width:2.5;stroke-linecap:round;stroke-miterlimit:4;stroke-dasharray:none;paint-order:stroke markers fill"
       d="m 68.68737,67.187365 c -5.896223,5.896228 -4.636118,10.064825 4.180914,18.881852 8.817027,8.817027 12.985624,10.077137 18.881851,4.180913 C 97.646359,84.353903 96.386249,80.185306 87.569222,71.368279 78.752194,62.551247 74.583598,61.291142 68.68737,67.187365 Z m 4.100348,4.100348 c 3.799689,-3.799695 6.486039,-2.987847 12.167978,2.694092 5.681939,5.681939 6.493782,8.368288 2.694092,12.167978 -3.79969,3.79969 -6.486039,2.987847 -12.167978,-2.694092 -5.681939,-5.681939 -6.493787,-8.368288 -2.694092,-12.167978 z" />
    <path
       id="path3246-1-00"
       style="fill:#767272;fill-rule:evenodd;stroke:#d0cac6;stroke-width:2.5;stroke-linecap:round;stroke-miterlimit:4;stroke-dasharray:none;paint-order:stroke markers fill"
       d="m 81.536752,80.036747 c -2.442052,2.442048 -1.044822,5.043894 5.450273,11.538989 6.495095,6.495094 9.096936,7.892325 11.538988,5.450272 2.442057,-2.442052 1.044822,-5.043893 -5.450272,-11.538988 -6.495095,-6.495095 -9.096936,-7.892325 -11.538989,-5.450273 z"
       sodipodi:nodetypes="sssss" />
    <path
       id="path3246-89"
       style="fill:#767272;fill-rule:evenodd;stroke:#d0cac6;stroke-width:2.5;stroke-linecap:round;stroke-miterlimit:4;stroke-dasharray:none;paint-order:stroke markers fill"
       d="m 45.624605,44.1246 c -5.896223,5.896228 -4.636118,10.064824 4.180914,18.881852 8.817027,8.817027 12.985623,10.077137 18.881851,4.180913 C 74.583593,61.291138 73.323484,57.122541 64.506457,48.305514 55.689429,39.488482 51.520833,38.228377 45.624605,44.1246 Z m 4.100348,4.100348 c 3.799689,-3.799695 6.486039,-2.987847 12.167978,2.694092 5.681938,5.681939 6.493782,8.368288 2.694092,12.167978 -3.79969,3.79969 -6.486039,2.987846 -12.167978,-2.694092 -5.681939,-5.681939 -6.493787,-8.368289 -2.694092,-12.167978 z" />
    <path
       id="path3246-1-4"
       style="fill:#767272;fill-rule:evenodd;stroke:#d0cac6;stroke-width:2.5;stroke-linecap:round;stroke-miterlimit:4;stroke-dasharray:none;paint-order:stroke markers fill"
       d="m 58.473987,56.973982 c -2.442053,2.442048 -1.044822,5.043894 5.450273,11.538989 6.495094,6.495094 9.096936,7.892325 11.538988,5.450272 C 77.905301,71.521191 76.50807,68.91935 70.012975,62.424255 63.517881,55.92916 60.91604,54.53193 58.473987,56.973982 Z"
       sodipodi:nodetypes="sssss" />
    <path
       id="path3246-4"
       style="fill:#767272;fill-rule:evenodd;stroke:#d0cac6;stroke-width:2.5;stroke-linecap:round;stroke-miterlimit:4;stroke-dasharray:none;paint-order:stroke markers fill"
       d="m 22.56184,21.061835 c -5.896223,5.896228 -4.636118,10.064824 4.180913,18.881852 8.817028,8.817027 12.985624,10.077136 18.881852,4.180913 C 51.520828,38.228372 50.260719,34.059776 41.443692,25.242749 32.626664,16.425717 28.458068,15.165612 22.56184,21.061835 Z m 4.100347,4.100347 c 3.79969,-3.799694 6.48604,-2.987846 12.167978,2.694093 5.681939,5.681938 6.493782,8.368288 2.694093,12.167978 -3.79969,3.79969 -6.48604,2.987846 -12.167978,-2.694093 -5.681939,-5.681938 -6.493787,-8.368288 -2.694093,-12.167978 z" />
    <path
       id="path3246-1-8"
       style="fill:#767272;fill-rule:evenodd;stroke:#d0cac6;stroke-width:2.5;stroke-linecap:round;stroke-miterlimit:4;stroke-dasharray:none;paint-order:stroke markers fill"
       d="m 35.411222,33.911217 c -2.442053,2.442048 -1.044822,5.043894 5.450273,11.538988 6.495094,6.495095 9.096936,7.892326 11.538988,5.450273 2.442053,-2.442052 1.044822,-5.043894 -5.450273,-11.538988 -6.495094,-6.495095 -9.096935,-7.892326 -11.538988,-5.450273 z"
       sodipodi:nodetypes="sssss" />
    <path
       id="path3246-1-1"
       style="fill:#767272;fill-rule:evenodd;stroke:#d0cac6;stroke-width:2.5;stroke-linecap:round;stroke-miterlimit:4;stroke-dasharray:none;paint-order:stroke markers fill"
       d="m 12.348457,10.848452 c -2.4420528,2.442048 -1.044822,5.043894 5.450273,11.538988 6.495094,6.495095 9.096935,7.892326 11.538988,5.450273 C 31.779771,25.39566 30.38254,22.793819 23.887445,16.298725 17.392351,9.8036301 14.790509,8.4063993 12.348457,10.848452 Z"
       sodipodi:nodetypes="sssss" />
    <path
       id="path3246-5"
       style="fill:#767272;fill-rule:evenodd;stroke:#d0cac6;stroke-width:2.5;stroke-linecap:round;stroke-miterlimit:4;stroke-dasharray:none;paint-order:stroke markers fill"
       d="m 42.187101,113.3129 c 5.896223,5.89622 4.636118,10.06482 -4.180914,18.88185 -8.817027,8.81702 -12.985624,10.07713 -18.881852,4.18091 -5.896223,-5.89623 -4.636113,-10.06482 4.180914,-18.88185 8.817027,-8.81703 12.985624,-10.07714 18.881852,-4.18091 z m -4.100348,4.10034 c -3.79969,-3.79969 -6.486039,-2.98784 -12.167978,2.6941 -5.681939,5.68193 -6.493782,8.36828 -2.694092,12.16797 3.79969,3.79969 6.486039,2.98785 12.167978,-2.69409 5.681939,-5.68194 6.493786,-8.36829 2.694092,-12.16798 z" />
    <path
       id="path3246-1-04"
       style="fill:#767272;fill-rule:evenodd;stroke:#d0cac6;stroke-width:2.5;stroke-linecap:round;stroke-miterlimit:4;stroke-dasharray:none;paint-order:stroke markers fill"
       d="m 29.337719,126.16228 c 2.442052,2.44205 1.044821,5.04389 -5.450273,11.53899 -6.495095,6.49509 -9.096936,7.89232 -11.538989,5.45027 -2.4420522,-2.44205 -1.044821,-5.0439 5.450273,-11.53899 6.495095,-6.49509 9.096936,-7.89233 11.538989,-5.45027 z"
       sodipodi:nodetypes="sssss" />
    <path
       id="path3246-8-2"
       style="fill:#767272;fill-rule:evenodd;stroke:#d0cac6;stroke-width:2.5;stroke-linecap:round;stroke-miterlimit:4;stroke-dasharray:none;paint-order:stroke markers fill"
       d="m 65.249866,90.25013 c 5.896223,5.896228 4.636118,10.06482 -4.180914,18.88185 -8.817027,8.81703 -12.985624,10.07714 -18.881851,4.18092 -5.896224,-5.89623 -4.636114,-10.06483 4.180913,-18.881856 8.817027,-8.817032 12.985624,-10.077137 18.881852,-4.180914 z m -4.100348,4.100348 c -3.79969,-3.799694 -6.486039,-2.987847 -12.167978,2.694092 -5.681939,5.68194 -6.493782,8.36829 -2.694092,12.16798 3.79969,3.79969 6.486039,2.98784 12.167978,-2.69409 5.681939,-5.68194 6.493786,-8.368292 2.694092,-12.167982 z" />
    <path
       id="path3246-1-0-0"
       style="fill:#767272;fill-rule:evenodd;stroke:#d0cac6;stroke-width:2.5;stroke-linecap:round;stroke-miterlimit:4;stroke-dasharray:none;paint-order:stroke markers fill"
       d="m 52.400484,103.09951 c 2.442052,2.44205 1.044821,5.0439 -5.450273,11.53899 -6.495095,6.4951 -9.096936,7.89233 -11.538989,5.45027 -2.442052,-2.44205 -1.044821,-5.04389 5.450273,-11.53898 6.495095,-6.4951 9.096936,-7.89233 11.538989,-5.45028 z"
       sodipodi:nodetypes="sssss" />
    <path
       id="path3246-80-2"
       style="fill:#767272;fill-rule:evenodd;stroke:#d0cac6;stroke-width:2.5;stroke-linecap:round;stroke-miterlimit:4;stroke-dasharray:none;paint-order:stroke markers fill"
       d="M 88.312631,67.187365 C 94.208854,73.083593 92.948749,77.25219 84.131717,86.069217 75.31469,94.886244 71.146093,96.146354 65.249866,90.25013 59.353642,84.353903 60.613752,80.185306 69.430779,71.368279 78.247807,62.551247 82.416403,61.291142 88.312631,67.187365 Z m -4.100348,4.100348 c -3.799689,-3.799695 -6.486039,-2.987847 -12.167978,2.694092 -5.681939,5.681939 -6.493782,8.368288 -2.694092,12.167978 3.79969,3.79969 6.486039,2.987847 12.167978,-2.694092 5.681939,-5.681939 6.493787,-8.368288 2.694092,-12.167978 z" />
    <path
       id="path3246-1-00-2"
       style="fill:#767272;fill-rule:evenodd;stroke:#d0cac6;stroke-width:2.5;stroke-linecap:round;stroke-miterlimit:4;stroke-dasharray:none;paint-order:stroke markers fill"
       d="m 75.463249,80.036747 c 2.442052,2.442048 1.044822,5.043894 -5.450273,11.538989 -6.495095,6.495094 -9.096936,7.892325 -11.538988,5.450272 -2.442053,-2.442052 -1.044822,-5.043893 5.450272,-11.538988 6.495095,-6.495095 9.096936,-7.892325 11.538989,-5.450273 z"
       sodipodi:nodetypes="sssss" />
    <path
       id="path3246-89-6"
       style="fill:#767272;fill-rule:evenodd;stroke:#d0cac6;stroke-width:2.5;stroke-linecap:round;stroke-miterlimit:4;stroke-dasharray:none;paint-order:stroke markers fill"
       d="m 111.3754,44.1246 c 5.89622,5.896228 4.63611,10.064824 -4.18092,18.881852 C 98.377455,71.823479 94.208859,73.083589 88.312631,67.187365 82.416408,61.291138 83.676517,57.122541 92.493544,48.305514 101.31057,39.488482 105.47917,38.228377 111.3754,44.1246 Z m -4.10035,4.100348 c -3.79969,-3.799695 -6.48604,-2.987847 -12.16798,2.694092 -5.681938,5.681939 -6.493782,8.368288 -2.694092,12.167978 3.79969,3.79969 6.486039,2.987846 12.167982,-2.694092 5.68194,-5.681939 6.49378,-8.368289 2.69409,-12.167978 z" />
    <path
       id="path3246-1-4-5"
       style="fill:#767272;fill-rule:evenodd;stroke:#d0cac6;stroke-width:2.5;stroke-linecap:round;stroke-miterlimit:4;stroke-dasharray:none;paint-order:stroke markers fill"
       d="m 98.526014,56.973982 c 2.442056,2.442048 1.044822,5.043894 -5.450273,11.538989 -6.495094,6.495094 -9.096936,7.892325 -11.538988,5.450272 C 79.0947,71.521191 80.491931,68.91935 86.987026,62.424255 93.48212,55.92916 96.083961,54.53193 98.526014,56.973982 Z"
       sodipodi:nodetypes="sssss" />
    <path
       id="path3246-4-5"
       style="fill:#767272;fill-rule:evenodd;stroke:#d0cac6;stroke-width:2.5;stroke-linecap:round;stroke-miterlimit:4;stroke-dasharray:none;paint-order:stroke markers fill"
       d="m 134.43816,21.061835 c 5.89622,5.896228 4.63612,10.064824 -4.18091,18.881852 -8.81703,8.817027 -12.98563,10.077136 -18.88185,4.180913 -5.89623,-5.896228 -4.63612,-10.064824 4.18091,-18.881851 8.81703,-8.817032 12.98562,-10.077137 18.88185,-4.180914 z m -4.10035,4.100347 c -3.79969,-3.799694 -6.48604,-2.987846 -12.16797,2.694093 -5.68194,5.681938 -6.49379,8.368288 -2.6941,12.167978 3.79969,3.79969 6.48604,2.987846 12.16798,-2.694093 5.68194,-5.681938 6.49379,-8.368288 2.69409,-12.167978 z" />
    <path
       id="path3246-1-8-5"
       style="fill:#767272;fill-rule:evenodd;stroke:#d0cac6;stroke-width:2.5;stroke-linecap:round;stroke-miterlimit:4;stroke-dasharray:none;paint-order:stroke markers fill"
       d="m 121.58878,33.911217 c 2.44205,2.442048 1.04482,5.043894 -5.45027,11.538988 -6.4951,6.495095 -9.09694,7.892326 -11.53899,5.450273 -2.44205,-2.442052 -1.04482,-5.043894 5.45027,-11.538988 6.4951,-6.495095 9.09694,-7.892326 11.53899,-5.450273 z"
       sodipodi:nodetypes="sssss" />
    <path
       id="path3246-1-1-5"
       style="fill:#767272;fill-rule:evenodd;stroke:#d0cac6;stroke-width:2.5;stroke-linecap:round;stroke-miterlimit:4;stroke-dasharray:none;paint-order:stroke markers fill"
       d="m 144.65154,10.848452 c 2.44206,2.442048 1.04483,5.043894 -5.45027,11.538988 -6.49509,6.495095 -9.09693,7.892326 -11.53899,5.450273 -2.44205,-2.442053 -1.04482,-5.043894 5.45028,-11.538988 6.49509,-6.4950949 9.09693,-7.8923257 11.53898,-5.450273 z"
       sodipodi:nodetypes="sssss" />
  </g>
</svg>
