<?xml version="1.0" encoding="UTF-8" standalone="no"?>
<!-- Created with Inkscape (http://www.inkscape.org/) -->

<svg
   width="210mm"
   height="297mm"
   viewBox="0 0 210 297"
   version="1.1"
   id="svg5"
   inkscape:version="1.1 (c68e22c387, 2021-05-23)"
   sodipodi:docname="blite-icons.svg"
   xmlns:inkscape="http://www.inkscape.org/namespaces/inkscape"
   xmlns:sodipodi="http://sodipodi.sourceforge.net/DTD/sodipodi-0.dtd"
   xmlns="http://www.w3.org/2000/svg"
   xmlns:svg="http://www.w3.org/2000/svg">
  <sodipodi:namedview
     id="namedview7"
     pagecolor="#ffffff"
     bordercolor="#666666"
     borderopacity="1.0"
     inkscape:pageshadow="2"
     inkscape:pageopacity="0.0"
     inkscape:pagecheckerboard="0"
     inkscape:document-units="mm"
     showgrid="false"
     inkscape:snap-nodes="false"
     inkscape:zoom="0.48640572"
     inkscape:cx="786.38055"
     inkscape:cy="724.70364"
     inkscape:window-width="1360"
     inkscape:window-height="705"
     inkscape:window-x="-8"
     inkscape:window-y="-8"
     inkscape:window-maximized="1"
     inkscape:current-layer="layer1" />
  <defs
     id="defs2">
    <inkscape:path-effect
       effect="powerstroke"
       id="path-effect6575"
       is_visible="true"
       lpeversion="1"
       offset_points="0.19673662,1.5681915 | 0.83143757,1.0688838"
       not_jump="true"
       sort_points="true"
       interpolator_type="CentripetalCatmullRom"
       interpolator_beta="0.75"
       start_linecap_type="peak"
       linejoin_type="spiro"
       miter_limit="4"
       scale_width="1"
       end_linecap_type="peak" />
    <inkscape:path-effect
       effect="simplify"
       id="path-effect6573"
       is_visible="true"
       lpeversion="1"
       steps="1"
       threshold="0.0032025118"
       smooth_angles="0"
       helper_size="0"
       simplify_individual_paths="false"
       simplify_just_coalesce="false"
       step="1" />
    <inkscape:path-effect
       effect="powerstroke"
       id="path-effect6568"
       is_visible="true"
       lpeversion="1"
       offset_points="0.42744987,1.5531995"
       not_jump="true"
       sort_points="true"
       interpolator_type="CentripetalCatmullRom"
       interpolator_beta="0.75"
       start_linecap_type="zerowidth"
       linejoin_type="spiro"
       miter_limit="4"
       scale_width="1"
       end_linecap_type="zerowidth" />
    <inkscape:path-effect
       effect="simplify"
       id="path-effect6566"
       is_visible="true"
       lpeversion="1"
       steps="1"
       threshold="0.0032025118"
       smooth_angles="0"
       helper_size="0"
       simplify_individual_paths="false"
       simplify_just_coalesce="false"
       step="1" />
    <inkscape:path-effect
       effect="powerstroke"
       id="path-effect6561"
       is_visible="true"
       lpeversion="1"
       offset_points="0.35171572,1.5497587"
       not_jump="true"
       sort_points="true"
       interpolator_type="CentripetalCatmullRom"
       interpolator_beta="0.75"
       start_linecap_type="zerowidth"
       linejoin_type="spiro"
       miter_limit="4"
       scale_width="1"
       end_linecap_type="zerowidth" />
    <inkscape:path-effect
       effect="simplify"
       id="path-effect6559"
       is_visible="true"
       lpeversion="1"
       steps="1"
       threshold="0.0032025118"
       smooth_angles="0"
       helper_size="0"
       simplify_individual_paths="false"
       simplify_just_coalesce="false"
       step="1" />
    <inkscape:path-effect
       effect="powerstroke"
       id="path-effect6554"
       is_visible="true"
       lpeversion="1"
       offset_points="0.37396064,0.61425998"
       not_jump="true"
       sort_points="true"
       interpolator_type="CentripetalCatmullRom"
       interpolator_beta="0.75"
       start_linecap_type="zerowidth"
       linejoin_type="spiro"
       miter_limit="4"
       scale_width="1"
       end_linecap_type="zerowidth" />
    <inkscape:path-effect
       effect="simplify"
       id="path-effect6552"
       is_visible="true"
       lpeversion="1"
       steps="1"
       threshold="0.0032025118"
       smooth_angles="0"
       helper_size="0"
       simplify_individual_paths="false"
       simplify_just_coalesce="false"
       step="1" />
    <inkscape:path-effect
       effect="powerstroke"
       id="path-effect5969"
       is_visible="true"
       lpeversion="1"
       offset_points="0.2165019,1.8375907"
       not_jump="true"
       sort_points="true"
       interpolator_type="CentripetalCatmullRom"
       interpolator_beta="0.75"
       start_linecap_type="peak"
       linejoin_type="spiro"
       miter_limit="4"
       scale_width="1"
       end_linecap_type="peak" />
    <inkscape:path-effect
       effect="simplify"
       id="path-effect5967"
       is_visible="true"
       lpeversion="1"
       steps="1"
       threshold="0.0032025118"
       smooth_angles="0"
       helper_size="0"
       simplify_individual_paths="false"
       simplify_just_coalesce="false"
       step="1" />
    <inkscape:path-effect
       effect="powerstroke"
       id="path-effect5962"
       is_visible="true"
       lpeversion="1"
       offset_points="0.4426525,1.8526371"
       not_jump="true"
       sort_points="true"
       interpolator_type="CentripetalCatmullRom"
       interpolator_beta="0.75"
       start_linecap_type="peak"
       linejoin_type="spiro"
       miter_limit="4"
       scale_width="1"
       end_linecap_type="peak" />
    <inkscape:path-effect
       effect="simplify"
       id="path-effect5960"
       is_visible="true"
       lpeversion="1"
       steps="1"
       threshold="0.0032025118"
       smooth_angles="0"
       helper_size="0"
       simplify_individual_paths="false"
       simplify_just_coalesce="false"
       step="1" />
    <inkscape:path-effect
       effect="powerstroke"
       id="path-effect5588"
       is_visible="true"
       lpeversion="1"
       offset_points="0.37547275,2.6582408 | 2.5592184,3.7629575"
       not_jump="false"
       sort_points="true"
       interpolator_type="CentripetalCatmullRom"
       interpolator_beta="0.75"
       start_linecap_type="round"
       linejoin_type="spiro"
       miter_limit="4"
       scale_width="1"
       end_linecap_type="peak" />
    <inkscape:path-effect
       effect="simplify"
       id="path-effect5584"
       is_visible="true"
       lpeversion="1"
       steps="1"
       threshold="0.0032025118"
       smooth_angles="0"
       helper_size="0"
       simplify_individual_paths="false"
       simplify_just_coalesce="false"
       step="1" />
    <inkscape:path-effect
       effect="powerstroke"
       id="path-effect5414"
       is_visible="true"
       lpeversion="1"
       offset_points="0.35764212,2.2879222 | 2.5592184,3.8249706"
       not_jump="true"
       sort_points="true"
       interpolator_type="CentripetalCatmullRom"
       interpolator_beta="0.75"
       start_linecap_type="round"
       linejoin_type="spiro"
       miter_limit="4"
       scale_width="1"
       end_linecap_type="peak" />
    <inkscape:path-effect
       effect="simplify"
       id="path-effect5412"
       is_visible="true"
       lpeversion="1"
       steps="1"
       threshold="0.0032025118"
       smooth_angles="0"
       helper_size="0"
       simplify_individual_paths="false"
       simplify_just_coalesce="false"
       step="1" />
    <inkscape:path-effect
       effect="powerstroke"
       id="path-effect5196"
       is_visible="true"
       lpeversion="1"
       offset_points="0.11565371,1.1526237"
       not_jump="true"
       sort_points="true"
       interpolator_type="CentripetalCatmullRom"
       interpolator_beta="0.75"
       start_linecap_type="round"
       linejoin_type="spiro"
       miter_limit="4"
       scale_width="1"
       end_linecap_type="round" />
    <inkscape:path-effect
       effect="simplify"
       id="path-effect5194"
       is_visible="true"
       lpeversion="1"
       steps="1"
       threshold="0.0032025118"
       smooth_angles="0"
       helper_size="0"
       simplify_individual_paths="false"
       simplify_just_coalesce="false"
       step="1" />
    <inkscape:path-effect
       effect="powerstroke"
       id="path-effect5189"
       is_visible="true"
       lpeversion="1"
       offset_points="0.32542147,1.2482483"
       not_jump="true"
       sort_points="true"
       interpolator_type="CentripetalCatmullRom"
       interpolator_beta="0.75"
       start_linecap_type="round"
       linejoin_type="spiro"
       miter_limit="4"
       scale_width="1"
       end_linecap_type="round" />
    <inkscape:path-effect
       effect="simplify"
       id="path-effect5187"
       is_visible="true"
       lpeversion="1"
       steps="1"
       threshold="0.0032025118"
       smooth_angles="0"
       helper_size="0"
       simplify_individual_paths="false"
       simplify_just_coalesce="false"
       step="1" />
    <inkscape:path-effect
       effect="powerstroke"
       id="path-effect5182"
       is_visible="true"
       lpeversion="1"
       offset_points="0.27449675,1.0193038"
       not_jump="true"
       sort_points="true"
       interpolator_type="CentripetalCatmullRom"
       interpolator_beta="0.75"
       start_linecap_type="round"
       linejoin_type="spiro"
       miter_limit="4"
       scale_width="1"
       end_linecap_type="round" />
    <inkscape:path-effect
       effect="simplify"
       id="path-effect5180"
       is_visible="true"
       lpeversion="1"
       steps="1"
       threshold="0.0032025118"
       smooth_angles="0"
       helper_size="0"
       simplify_individual_paths="false"
       simplify_just_coalesce="false"
       step="1" />
    <inkscape:path-effect
       effect="powerstroke"
       id="path-effect5175"
       is_visible="true"
       lpeversion="1"
       offset_points="0.29983219,0.96810199 | 1.4906431,1.0932563"
       not_jump="true"
       sort_points="true"
       interpolator_type="CentripetalCatmullRom"
       interpolator_beta="0.75"
       start_linecap_type="round"
       linejoin_type="spiro"
       miter_limit="4"
       scale_width="1"
       end_linecap_type="round" />
    <inkscape:path-effect
       effect="simplify"
       id="path-effect5173"
       is_visible="true"
       lpeversion="1"
       steps="1"
       threshold="0.0032025118"
       smooth_angles="0"
       helper_size="0"
       simplify_individual_paths="false"
       simplify_just_coalesce="false"
       step="1" />
    <inkscape:path-effect
       effect="powerstroke"
       id="path-effect5168"
       is_visible="true"
       lpeversion="1"
       offset_points="0.21813009,0.5563819"
       not_jump="true"
       sort_points="true"
       interpolator_type="CentripetalCatmullRom"
       interpolator_beta="0.75"
       start_linecap_type="round"
       linejoin_type="spiro"
       miter_limit="4"
       scale_width="1"
       end_linecap_type="round" />
    <inkscape:path-effect
       effect="simplify"
       id="path-effect5166"
       is_visible="true"
       lpeversion="1"
       steps="1"
       threshold="0.0032025118"
       smooth_angles="0"
       helper_size="0"
       simplify_individual_paths="false"
       simplify_just_coalesce="false"
       step="1" />
    <inkscape:path-effect
       effect="powerstroke"
       id="path-effect4655"
       is_visible="true"
       lpeversion="1"
       offset_points="0.33294383,1.4235741"
       not_jump="true"
       sort_points="true"
       interpolator_type="CentripetalCatmullRom"
       interpolator_beta="0.75"
       start_linecap_type="round"
       linejoin_type="spiro"
       miter_limit="4"
       scale_width="1"
       end_linecap_type="round" />
    <inkscape:path-effect
       effect="simplify"
       id="path-effect4653"
       is_visible="true"
       lpeversion="1"
       steps="1"
       threshold="0.0032025118"
       smooth_angles="0"
       helper_size="0"
       simplify_individual_paths="false"
       simplify_just_coalesce="false"
       step="1" />
    <inkscape:path-effect
       effect="powerstroke"
       id="path-effect4648"
       is_visible="true"
       lpeversion="1"
       offset_points="0.54202104,1.9684307 | 2.8579086,1.757809"
       not_jump="true"
       sort_points="true"
       interpolator_type="CentripetalCatmullRom"
       interpolator_beta="0.75"
       start_linecap_type="round"
       linejoin_type="spiro"
       miter_limit="4"
       scale_width="1"
       end_linecap_type="round" />
    <inkscape:path-effect
       effect="simplify"
       id="path-effect4646"
       is_visible="true"
       lpeversion="1"
       steps="1"
       threshold="0.0032025118"
       smooth_angles="0"
       helper_size="0"
       simplify_individual_paths="false"
       simplify_just_coalesce="false"
       step="1" />
    <inkscape:path-effect
       effect="powerstroke"
       id="path-effect4641"
       is_visible="true"
       lpeversion="1"
       offset_points="1.3337125,0.85649326"
       not_jump="true"
       sort_points="true"
       interpolator_type="CentripetalCatmullRom"
       interpolator_beta="0.75"
       start_linecap_type="round"
       linejoin_type="spiro"
       miter_limit="4"
       scale_width="1"
       end_linecap_type="round" />
    <inkscape:path-effect
       effect="simplify"
       id="path-effect4639"
       is_visible="true"
       lpeversion="1"
       steps="1"
       threshold="0.0032025118"
       smooth_angles="0"
       helper_size="0"
       simplify_individual_paths="false"
       simplify_just_coalesce="false"
       step="1" />
    <inkscape:path-effect
       effect="powerstroke"
       id="path-effect4596"
       is_visible="true"
       lpeversion="1"
       offset_points="0.6760429,0.55896761 | 5.61937,0.58783776"
       not_jump="true"
       sort_points="true"
       interpolator_type="CentripetalCatmullRom"
       interpolator_beta="0.75"
       start_linecap_type="zerowidth"
       linejoin_type="spiro"
       miter_limit="4"
       scale_width="1"
       end_linecap_type="zerowidth" />
    <inkscape:path-effect
       effect="simplify"
       id="path-effect4592"
       is_visible="true"
       lpeversion="1"
       steps="1"
       threshold="0.0032025118"
       smooth_angles="0"
       helper_size="0"
       simplify_individual_paths="false"
       simplify_just_coalesce="false"
       step="1" />
    <inkscape:path-effect
       effect="powerstroke"
       id="path-effect4588"
       is_visible="true"
       lpeversion="1"
       offset_points="0.79051139,2.0827395 | 0.98653309,1.0777166 | 2.7753086,0.68479245"
       not_jump="false"
       sort_points="true"
       interpolator_type="CentripetalCatmullRom"
       interpolator_beta="0.75"
       start_linecap_type="round"
       linejoin_type="spiro"
       miter_limit="4"
       scale_width="1"
       end_linecap_type="zerowidth" />
    <inkscape:path-effect
       effect="simplify"
       id="path-effect4584"
       is_visible="true"
       lpeversion="1"
       steps="1"
       threshold="0.0032025118"
       smooth_angles="0"
       helper_size="0"
       simplify_individual_paths="false"
       simplify_just_coalesce="false"
       step="1" />
    <inkscape:path-effect
       effect="powerstroke"
       id="path-effect4580"
       is_visible="true"
       lpeversion="1"
       offset_points="0.87241293,1.3231293 | 6.1802802,2.2992699"
       not_jump="true"
       sort_points="true"
       interpolator_type="CentripetalCatmullRom"
       interpolator_beta="0.75"
       start_linecap_type="peak"
       linejoin_type="spiro"
       miter_limit="4"
       scale_width="1"
       end_linecap_type="round" />
    <inkscape:path-effect
       effect="simplify"
       id="path-effect4576"
       is_visible="true"
       lpeversion="1"
       steps="1"
       threshold="0.0032025118"
       smooth_angles="0"
       helper_size="0"
       simplify_individual_paths="false"
       simplify_just_coalesce="false"
       step="1" />
    <inkscape:path-effect
       effect="powerstroke"
       id="path-effect4572"
       is_visible="true"
       lpeversion="1"
       offset_points="0.74378214,1.6623482 | 2.3823595,1.4201455 | 5.11415,0.82426909"
       not_jump="false"
       sort_points="true"
       interpolator_type="CentripetalCatmullRom"
       interpolator_beta="0.75"
       start_linecap_type="round"
       linejoin_type="spiro"
       miter_limit="4"
       scale_width="1"
       end_linecap_type="zerowidth" />
    <inkscape:path-effect
       effect="simplify"
       id="path-effect4568"
       is_visible="true"
       lpeversion="1"
       steps="1"
       threshold="0.0032025118"
       smooth_angles="0"
       helper_size="0"
       simplify_individual_paths="false"
       simplify_just_coalesce="false"
       step="1" />
    <inkscape:path-effect
       effect="powerstroke"
       id="path-effect4564"
       is_visible="true"
       lpeversion="1"
       offset_points="0.5877325,1.8385737 | 2.5343999,2.4075328 | 3.9067951,1.9507297 | 4.511467,1.0374786 | 6.8786986,1.6189521 | 6.5436251,0.90614322 | 7.9411385,2.0387348"
       not_jump="false"
       sort_points="true"
       interpolator_type="CentripetalCatmullRom"
       interpolator_beta="0.75"
       start_linecap_type="round"
       linejoin_type="spiro"
       miter_limit="4"
       scale_width="1"
       end_linecap_type="round" />
    <inkscape:path-effect
       effect="simplify"
       id="path-effect4560"
       is_visible="true"
       lpeversion="1"
       steps="1"
       threshold="0.0032025118"
       smooth_angles="0"
       helper_size="0"
       simplify_individual_paths="false"
       simplify_just_coalesce="false"
       step="1" />
    <inkscape:path-effect
       effect="powerstroke"
       id="path-effect4488"
       is_visible="true"
       lpeversion="1"
       offset_points="0.5877325,1.8385737 | 2.5343999,2.4075328 | 3.9067951,1.9507297 | 6.3134099,1.7498509 | 7.9411385,2.0387348"
       not_jump="false"
       sort_points="true"
       interpolator_type="CentripetalCatmullRom"
       interpolator_beta="0.75"
       start_linecap_type="round"
       linejoin_type="spiro"
       miter_limit="4"
       scale_width="1"
       end_linecap_type="round" />
    <inkscape:path-effect
       effect="simplify"
       id="path-effect4484"
       is_visible="true"
       lpeversion="1"
       steps="1"
       threshold="0.0032025118"
       smooth_angles="0"
       helper_size="0"
       simplify_individual_paths="false"
       simplify_just_coalesce="false"
       step="1" />
    <inkscape:path-effect
       effect="powerstroke"
       id="path-effect4109"
       is_visible="true"
       lpeversion="1"
       offset_points="0.93740284,1.2778194 | 7.6557458,1.8438686 | 10.682762,1.4949415"
       not_jump="false"
       sort_points="true"
       interpolator_type="CentripetalCatmullRom"
       interpolator_beta="0.75"
       start_linecap_type="round"
       linejoin_type="spiro"
       miter_limit="4"
       scale_width="1"
       end_linecap_type="round" />
    <inkscape:path-effect
       effect="simplify"
       id="path-effect4105"
       is_visible="true"
       lpeversion="1"
       steps="1"
       threshold="0.0032025118"
       smooth_angles="0"
       helper_size="0"
       simplify_individual_paths="false"
       simplify_just_coalesce="false"
       step="1" />
    <inkscape:path-effect
       effect="powerstroke"
       id="path-effect4101"
       is_visible="true"
       lpeversion="1"
       offset_points="0.5877325,1.8385737 | 2.5343999,2.4075328 | 3.9067951,1.9507297 | 6.3134099,1.7498509 | 7.9411385,2.0387348"
       not_jump="false"
       sort_points="true"
       interpolator_type="CentripetalCatmullRom"
       interpolator_beta="0.75"
       start_linecap_type="round"
       linejoin_type="spiro"
       miter_limit="4"
       scale_width="1"
       end_linecap_type="round" />
    <inkscape:path-effect
       effect="simplify"
       id="path-effect4097"
       is_visible="true"
       lpeversion="1"
       steps="1"
       threshold="0.0032025118"
       smooth_angles="0"
       helper_size="0"
       simplify_individual_paths="false"
       simplify_just_coalesce="false"
       step="1" />
    <inkscape:path-effect
       effect="powerstroke"
       id="path-effect2354"
       is_visible="true"
       lpeversion="1"
       offset_points="0.6760429,0.55896761 | 5.61937,0.58783776"
       not_jump="true"
       sort_points="true"
       interpolator_type="CentripetalCatmullRom"
       interpolator_beta="0.75"
       start_linecap_type="zerowidth"
       linejoin_type="spiro"
       miter_limit="4"
       scale_width="1"
       end_linecap_type="zerowidth" />
    <inkscape:path-effect
       effect="simplify"
       id="path-effect2352"
       is_visible="true"
       lpeversion="1"
       steps="1"
       threshold="0.0032025118"
       smooth_angles="0"
       helper_size="0"
       simplify_individual_paths="false"
       simplify_just_coalesce="false"
       step="1" />
    <inkscape:path-effect
       effect="powerstroke"
       id="path-effect2347"
       is_visible="true"
       lpeversion="1"
       offset_points="0.79051139,2.0827395 | 0.98653309,1.0777166 | 2.7753086,0.68479245"
       not_jump="false"
       sort_points="true"
       interpolator_type="CentripetalCatmullRom"
       interpolator_beta="0.75"
       start_linecap_type="round"
       linejoin_type="spiro"
       miter_limit="4"
       scale_width="1"
       end_linecap_type="zerowidth" />
    <inkscape:path-effect
       effect="simplify"
       id="path-effect2345"
       is_visible="true"
       lpeversion="1"
       steps="1"
       threshold="0.0032025118"
       smooth_angles="0"
       helper_size="0"
       simplify_individual_paths="false"
       simplify_just_coalesce="false"
       step="1" />
    <inkscape:path-effect
       effect="powerstroke"
       id="path-effect2340"
       is_visible="true"
       lpeversion="1"
       offset_points="0.87241293,1.3231293 | 6.1802802,2.2992699"
       not_jump="true"
       sort_points="true"
       interpolator_type="CentripetalCatmullRom"
       interpolator_beta="0.75"
       start_linecap_type="peak"
       linejoin_type="spiro"
       miter_limit="4"
       scale_width="1"
       end_linecap_type="round" />
    <inkscape:path-effect
       effect="simplify"
       id="path-effect2338"
       is_visible="true"
       lpeversion="1"
       steps="1"
       threshold="0.0032025118"
       smooth_angles="0"
       helper_size="0"
       simplify_individual_paths="false"
       simplify_just_coalesce="false"
       step="1" />
    <inkscape:path-effect
       effect="powerstroke"
       id="path-effect2333"
       is_visible="true"
       lpeversion="1"
       offset_points="0.9169607,0.81451417 | 1.7344574,0.4517364"
       not_jump="true"
       sort_points="true"
       interpolator_type="CentripetalCatmullRom"
       interpolator_beta="0.75"
       start_linecap_type="round"
       linejoin_type="spiro"
       miter_limit="4"
       scale_width="1"
       end_linecap_type="round" />
    <inkscape:path-effect
       effect="simplify"
       id="path-effect2331"
       is_visible="true"
       lpeversion="1"
       steps="1"
       threshold="0.0032025118"
       smooth_angles="0"
       helper_size="0"
       simplify_individual_paths="false"
       simplify_just_coalesce="false"
       step="1" />
    <inkscape:path-effect
       effect="powerstroke"
       id="path-effect2326"
       is_visible="true"
       lpeversion="1"
       offset_points="0.74378214,1.6623482 | 2.3823595,1.4201455 | 5.11415,0.82426909"
       not_jump="false"
       sort_points="true"
       interpolator_type="CentripetalCatmullRom"
       interpolator_beta="0.75"
       start_linecap_type="round"
       linejoin_type="spiro"
       miter_limit="4"
       scale_width="1"
       end_linecap_type="zerowidth" />
    <inkscape:path-effect
       effect="simplify"
       id="path-effect2324"
       is_visible="true"
       lpeversion="1"
       steps="1"
       threshold="0.0032025118"
       smooth_angles="0"
       helper_size="0"
       simplify_individual_paths="false"
       simplify_just_coalesce="false"
       step="1" />
    <inkscape:path-effect
       effect="powerstroke"
       id="path-effect2319"
       is_visible="true"
       lpeversion="1"
       offset_points="0.7444407,0.86528127"
       not_jump="true"
       sort_points="true"
       interpolator_type="CentripetalCatmullRom"
       interpolator_beta="0.75"
       start_linecap_type="round"
       linejoin_type="spiro"
       miter_limit="4"
       scale_width="1"
       end_linecap_type="round" />
    <inkscape:path-effect
       effect="simplify"
       id="path-effect2317"
       is_visible="true"
       lpeversion="1"
       steps="1"
       threshold="0.0032025118"
       smooth_angles="0"
       helper_size="0"
       simplify_individual_paths="false"
       simplify_just_coalesce="false"
       step="1" />
    <inkscape:path-effect
       effect="powerstroke"
       id="path-effect2312"
       is_visible="true"
       lpeversion="1"
       offset_points="1.3738445,0.94836791 | 6.7728911,0.77238982"
       not_jump="true"
       sort_points="true"
       interpolator_type="CentripetalCatmullRom"
       interpolator_beta="0.75"
       start_linecap_type="round"
       linejoin_type="spiro"
       miter_limit="4"
       scale_width="1"
       end_linecap_type="round" />
    <inkscape:path-effect
       effect="simplify"
       id="path-effect2310"
       is_visible="true"
       lpeversion="1"
       steps="1"
       threshold="0.0032025118"
       smooth_angles="0"
       helper_size="0"
       simplify_individual_paths="false"
       simplify_just_coalesce="false"
       step="1" />
    <inkscape:path-effect
       effect="powerstroke"
       id="path-effect2192"
       is_visible="true"
       lpeversion="1"
       offset_points="1.4980833,1.2780999 | 8.0786912,2.0838369"
       not_jump="true"
       sort_points="true"
       interpolator_type="CentripetalCatmullRom"
       interpolator_beta="0.75"
       start_linecap_type="round"
       linejoin_type="spiro"
       miter_limit="4"
       scale_width="1"
       end_linecap_type="round" />
    <inkscape:path-effect
       effect="simplify"
       id="path-effect2188"
       is_visible="true"
       lpeversion="1"
       steps="1"
       threshold="0.0032025118"
       smooth_angles="0"
       helper_size="0"
       simplify_individual_paths="false"
       simplify_just_coalesce="false"
       step="1" />
    <inkscape:path-effect
       effect="powerstroke"
       id="path-effect2184"
       is_visible="true"
       lpeversion="1"
       offset_points="0.5877325,1.8385737 | 2.5343999,2.4075328 | 3.9067951,1.9507297 | 6.3134099,1.7498509 | 7.9411385,2.0387348"
       not_jump="false"
       sort_points="true"
       interpolator_type="CentripetalCatmullRom"
       interpolator_beta="0.75"
       start_linecap_type="round"
       linejoin_type="spiro"
       miter_limit="4"
       scale_width="1"
       end_linecap_type="round" />
    <inkscape:path-effect
       effect="simplify"
       id="path-effect2180"
       is_visible="true"
       lpeversion="1"
       steps="1"
       threshold="0.0032025118"
       smooth_angles="0"
       helper_size="0"
       simplify_individual_paths="false"
       simplify_just_coalesce="false"
       step="1" />
    <inkscape:path-effect
       effect="powerstroke"
       id="path-effect2151"
       is_visible="true"
       lpeversion="1"
       offset_points="0.93740284,1.2778194 | 7.6557458,1.8438686 | 10.682762,1.4949415"
       not_jump="false"
       sort_points="true"
       interpolator_type="CentripetalCatmullRom"
       interpolator_beta="0.75"
       start_linecap_type="round"
       linejoin_type="spiro"
       miter_limit="4"
       scale_width="1"
       end_linecap_type="round" />
    <inkscape:path-effect
       effect="simplify"
       id="path-effect2147"
       is_visible="true"
       lpeversion="1"
       steps="1"
       threshold="0.0032025118"
       smooth_angles="0"
       helper_size="0"
       simplify_individual_paths="false"
       simplify_just_coalesce="false"
       step="1" />
    <inkscape:path-effect
       effect="powerstroke"
       id="path-effect2143"
       is_visible="true"
       lpeversion="1"
       offset_points="0.5877325,1.8385737 | 2.5343999,2.4075328 | 3.9067951,1.9507297 | 6.3134099,1.7498509 | 7.9411385,2.0387348"
       not_jump="false"
       sort_points="true"
       interpolator_type="CentripetalCatmullRom"
       interpolator_beta="0.75"
       start_linecap_type="round"
       linejoin_type="spiro"
       miter_limit="4"
       scale_width="1"
       end_linecap_type="round" />
    <inkscape:path-effect
       effect="simplify"
       id="path-effect2139"
       is_visible="true"
       lpeversion="1"
       steps="1"
       threshold="0.0032025118"
       smooth_angles="0"
       helper_size="0"
       simplify_individual_paths="false"
       simplify_just_coalesce="false"
       step="1" />
    <inkscape:path-effect
       effect="powerstroke"
       id="path-effect1575"
       is_visible="true"
       lpeversion="1"
       offset_points="1.4980833,1.2780999 | 8.0786912,2.0838369"
       not_jump="true"
       sort_points="true"
       interpolator_type="CentripetalCatmullRom"
       interpolator_beta="0.75"
       start_linecap_type="round"
       linejoin_type="spiro"
       miter_limit="4"
       scale_width="1"
       end_linecap_type="round" />
    <inkscape:path-effect
       effect="simplify"
       id="path-effect1573"
       is_visible="true"
       lpeversion="1"
       steps="1"
       threshold="0.0032025118"
       smooth_angles="0"
       helper_size="0"
       simplify_individual_paths="false"
       simplify_just_coalesce="false"
       step="1" />
    <inkscape:path-effect
       effect="powerstroke"
       id="path-effect1280"
       is_visible="true"
       lpeversion="1"
       offset_points="0.71565786,2.2803314 | 5.9476327,0.96764934"
       not_jump="true"
       sort_points="true"
       interpolator_type="CentripetalCatmullRom"
       interpolator_beta="0.75"
       start_linecap_type="round"
       linejoin_type="spiro"
       miter_limit="4"
       scale_width="1"
       end_linecap_type="round" />
    <inkscape:path-effect
       effect="simplify"
       id="path-effect1278"
       is_visible="true"
       lpeversion="1"
       steps="1"
       threshold="0.0032025118"
       smooth_angles="0"
       helper_size="0"
       simplify_individual_paths="false"
       simplify_just_coalesce="false"
       step="1" />
    <inkscape:path-effect
       effect="powerstroke"
       id="path-effect1273"
       is_visible="true"
       lpeversion="1"
       offset_points="1.7041204,1.2952401 | 7.1069593,1.9245633"
       not_jump="true"
       sort_points="true"
       interpolator_type="CentripetalCatmullRom"
       interpolator_beta="0.75"
       start_linecap_type="round"
       linejoin_type="spiro"
       miter_limit="4"
       scale_width="1"
       end_linecap_type="round" />
    <inkscape:path-effect
       effect="simplify"
       id="path-effect1271"
       is_visible="true"
       lpeversion="1"
       steps="1"
       threshold="0.0032025118"
       smooth_angles="0"
       helper_size="0"
       simplify_individual_paths="false"
       simplify_just_coalesce="false"
       step="1" />
    <inkscape:path-effect
       effect="powerstroke"
       id="path-effect1266"
       is_visible="true"
       lpeversion="1"
       offset_points="0.71184356,0.88474562 | 5.4483498,1.3907462"
       not_jump="true"
       sort_points="true"
       interpolator_type="CentripetalCatmullRom"
       interpolator_beta="0.75"
       start_linecap_type="round"
       linejoin_type="spiro"
       miter_limit="4"
       scale_width="1"
       end_linecap_type="round" />
    <inkscape:path-effect
       effect="simplify"
       id="path-effect1264"
       is_visible="true"
       lpeversion="1"
       steps="1"
       threshold="0.0032025118"
       smooth_angles="0"
       helper_size="0"
       simplify_individual_paths="false"
       simplify_just_coalesce="false"
       step="1" />
    <inkscape:path-effect
       effect="powerstroke"
       id="path-effect1259"
       is_visible="true"
       lpeversion="1"
       offset_points="1.6005215,0.44716082 | 3.7757509,0.51528606 | 5.8886399,0.1909286 | 7.0539902,0.67695639 | 8.5056302,0.61159103"
       not_jump="true"
       sort_points="true"
       interpolator_type="CentripetalCatmullRom"
       interpolator_beta="0.75"
       start_linecap_type="round"
       linejoin_type="spiro"
       miter_limit="4"
       scale_width="1"
       end_linecap_type="round" />
    <inkscape:path-effect
       effect="simplify"
       id="path-effect1257"
       is_visible="true"
       lpeversion="1"
       steps="1"
       threshold="0.0032025118"
       smooth_angles="0"
       helper_size="0"
       simplify_individual_paths="false"
       simplify_just_coalesce="false"
       step="1" />
    <inkscape:path-effect
       effect="powerstroke"
       id="path-effect1252"
       is_visible="true"
       lpeversion="1"
       offset_points="0.5877325,1.8385737 | 2.5343999,2.4075328 | 3.9067951,1.9507297 | 6.3134099,1.7498509 | 7.9411385,2.0387348"
       not_jump="false"
       sort_points="true"
       interpolator_type="CentripetalCatmullRom"
       interpolator_beta="0.75"
       start_linecap_type="round"
       linejoin_type="spiro"
       miter_limit="4"
       scale_width="1"
       end_linecap_type="round" />
    <inkscape:path-effect
       effect="simplify"
       id="path-effect1250"
       is_visible="true"
       lpeversion="1"
       steps="1"
       threshold="0.0032025118"
       smooth_angles="0"
       helper_size="0"
       simplify_individual_paths="false"
       simplify_just_coalesce="false"
       step="1" />
    <inkscape:path-effect
       effect="powerstroke"
       id="path-effect972"
       is_visible="true"
       lpeversion="1"
       offset_points="0.97114226,1.2918992 | 6.150125,1.7274504"
       not_jump="true"
       sort_points="true"
       interpolator_type="CentripetalCatmullRom"
       interpolator_beta="0.75"
       start_linecap_type="round"
       linejoin_type="spiro"
       miter_limit="4"
       scale_width="1"
       end_linecap_type="round" />
    <inkscape:path-effect
       effect="simplify"
       id="path-effect970"
       is_visible="true"
       lpeversion="1"
       steps="1"
       threshold="0.0032025118"
       smooth_angles="0"
       helper_size="0"
       simplify_individual_paths="false"
       simplify_just_coalesce="false"
       step="1" />
    <inkscape:path-effect
       effect="powerstroke"
       id="path-effect965"
       is_visible="true"
       lpeversion="1"
       offset_points="0.8412145,0.9893302 | 5.9041152,1.1297931"
       not_jump="true"
       sort_points="true"
       interpolator_type="CentripetalCatmullRom"
       interpolator_beta="0.75"
       start_linecap_type="round"
       linejoin_type="spiro"
       miter_limit="4"
       scale_width="1"
       end_linecap_type="round" />
    <inkscape:path-effect
       effect="simplify"
       id="path-effect963"
       is_visible="true"
       lpeversion="1"
       steps="1"
       threshold="0.0032025118"
       smooth_angles="0"
       helper_size="0"
       simplify_individual_paths="false"
       simplify_just_coalesce="false"
       step="1" />
    <inkscape:path-effect
       effect="powerstroke"
       id="path-effect958"
       is_visible="true"
       lpeversion="1"
       offset_points="0.75852845,1.7002875"
       not_jump="true"
       sort_points="true"
       interpolator_type="CentripetalCatmullRom"
       interpolator_beta="0.75"
       start_linecap_type="round"
       linejoin_type="spiro"
       miter_limit="4"
       scale_width="1"
       end_linecap_type="round" />
    <inkscape:path-effect
       effect="simplify"
       id="path-effect956"
       is_visible="true"
       lpeversion="1"
       steps="1"
       threshold="0.0032025118"
       smooth_angles="0"
       helper_size="0"
       simplify_individual_paths="false"
       simplify_just_coalesce="false"
       step="1" />
    <inkscape:path-effect
       effect="powerstroke"
       id="path-effect951"
       is_visible="true"
       lpeversion="1"
       offset_points="0.61881263,1.9279768"
       not_jump="true"
       sort_points="true"
       interpolator_type="CentripetalCatmullRom"
       interpolator_beta="0.75"
       start_linecap_type="round"
       linejoin_type="spiro"
       miter_limit="4"
       scale_width="1"
       end_linecap_type="round" />
    <inkscape:path-effect
       effect="simplify"
       id="path-effect949"
       is_visible="true"
       lpeversion="1"
       steps="1"
       threshold="0.0032025118"
       smooth_angles="0"
       helper_size="0"
       simplify_individual_paths="false"
       simplify_just_coalesce="false"
       step="1" />
    <inkscape:path-effect
       effect="powerstroke"
       id="path-effect944"
       is_visible="true"
       lpeversion="1"
       offset_points="1.1188855,1.1099656 | 5.4949692,0.95061938"
       not_jump="true"
       sort_points="true"
       interpolator_type="CentripetalCatmullRom"
       interpolator_beta="0.75"
       start_linecap_type="round"
       linejoin_type="spiro"
       miter_limit="4"
       scale_width="1"
       end_linecap_type="round" />
    <inkscape:path-effect
       effect="simplify"
       id="path-effect942"
       is_visible="true"
       lpeversion="1"
       steps="1"
       threshold="0.0032025118"
       smooth_angles="0"
       helper_size="0"
       simplify_individual_paths="false"
       simplify_just_coalesce="false"
       step="1" />
    <inkscape:path-effect
       effect="powerstroke"
       id="path-effect937"
       is_visible="true"
       lpeversion="1"
       offset_points="1.0444716,0.96173149 | 2.6344015,0.8633203 | 5.8616641,1.897473"
       not_jump="true"
       sort_points="true"
       interpolator_type="CentripetalCatmullRom"
       interpolator_beta="0.75"
       start_linecap_type="round"
       linejoin_type="spiro"
       miter_limit="4"
       scale_width="1"
       end_linecap_type="round" />
    <inkscape:path-effect
       effect="simplify"
       id="path-effect935"
       is_visible="true"
       lpeversion="1"
       steps="1"
       threshold="0.0032025118"
       smooth_angles="0"
       helper_size="0"
       simplify_individual_paths="false"
       simplify_just_coalesce="false"
       step="1" />
    <inkscape:path-effect
       effect="powerstroke"
       id="path-effect930"
       is_visible="true"
       lpeversion="1"
       offset_points="0.30980824,1.5354215 | 1.7684648,1.9146132 | 2.6313785,1.0496842"
       not_jump="true"
       sort_points="true"
       interpolator_type="CentripetalCatmullRom"
       interpolator_beta="0.75"
       start_linecap_type="round"
       linejoin_type="spiro"
       miter_limit="4"
       scale_width="1"
       end_linecap_type="round" />
    <inkscape:path-effect
       effect="simplify"
       id="path-effect928"
       is_visible="true"
       lpeversion="1"
       steps="1"
       threshold="0.0032025118"
       smooth_angles="0"
       helper_size="0"
       simplify_individual_paths="false"
       simplify_just_coalesce="false"
       step="1" />
    <inkscape:path-effect
       effect="powerstroke"
       id="path-effect923"
       is_visible="true"
       lpeversion="1"
       offset_points="1.125432,0.89222632 | 9.7207739,1.9472959"
       not_jump="true"
       sort_points="true"
       interpolator_type="CentripetalCatmullRom"
       interpolator_beta="0.75"
       start_linecap_type="round"
       linejoin_type="spiro"
       miter_limit="4"
       scale_width="1"
       end_linecap_type="round" />
    <inkscape:path-effect
       effect="simplify"
       id="path-effect921"
       is_visible="true"
       lpeversion="1"
       steps="1"
       threshold="0.0032025118"
       smooth_angles="0"
       helper_size="0"
       simplify_individual_paths="false"
       simplify_just_coalesce="false"
       step="1" />
    <inkscape:path-effect
       effect="powerstroke"
       id="path-effect916"
       is_visible="true"
       lpeversion="1"
       offset_points="0.68967228,0.7957761 | 3.6048405,0.88874017"
       not_jump="true"
       sort_points="true"
       interpolator_type="CentripetalCatmullRom"
       interpolator_beta="0.75"
       start_linecap_type="round"
       linejoin_type="spiro"
       miter_limit="4"
       scale_width="1"
       end_linecap_type="round" />
    <inkscape:path-effect
       effect="simplify"
       id="path-effect914"
       is_visible="true"
       lpeversion="1"
       steps="1"
       threshold="0.0032025118"
       smooth_angles="0"
       helper_size="0"
       simplify_individual_paths="false"
       simplify_just_coalesce="false"
       step="1" />
    <inkscape:path-effect
       effect="powerstroke"
       id="path-effect876"
       is_visible="true"
       lpeversion="1"
       offset_points="4.0658145,0.38949405 | 4.4292072,0.63984339"
       not_jump="true"
       sort_points="true"
       interpolator_type="CentripetalCatmullRom"
       interpolator_beta="0.75"
       start_linecap_type="round"
       linejoin_type="spiro"
       miter_limit="4"
       scale_width="1"
       end_linecap_type="round" />
    <inkscape:path-effect
       effect="simplify"
       id="path-effect874"
       is_visible="true"
       lpeversion="1"
       steps="1"
       threshold="0.0032025118"
       smooth_angles="0"
       helper_size="0"
       simplify_individual_paths="false"
       simplify_just_coalesce="false"
       step="1" />
    <inkscape:path-effect
       effect="powerstroke"
       id="path-effect867"
       is_visible="true"
       lpeversion="1"
       offset_points="2.7256469,0.50155933 | 10.955773,1.6961477"
       not_jump="true"
       sort_points="true"
       interpolator_type="CentripetalCatmullRom"
       interpolator_beta="0.75"
       start_linecap_type="round"
       linejoin_type="spiro"
       miter_limit="4"
       scale_width="1"
       end_linecap_type="round" />
    <inkscape:path-effect
       effect="simplify"
       id="path-effect865"
       is_visible="true"
       lpeversion="1"
       steps="1"
       threshold="0.0032025118"
       smooth_angles="0"
       helper_size="0"
       simplify_individual_paths="false"
       simplify_just_coalesce="false"
       step="1" />
    <inkscape:path-effect
       effect="powerstroke"
       id="path-effect860"
       is_visible="true"
       lpeversion="1"
       offset_points="1.3141913,0.64986608 | 6.3663597,0.77478655"
       not_jump="true"
       sort_points="true"
       interpolator_type="CentripetalCatmullRom"
       interpolator_beta="0.75"
       start_linecap_type="round"
       linejoin_type="spiro"
       miter_limit="4"
       scale_width="1"
       end_linecap_type="round" />
    <inkscape:path-effect
       effect="simplify"
       id="path-effect858"
       is_visible="true"
       lpeversion="1"
       steps="1"
       threshold="0.0032025118"
       smooth_angles="0"
       helper_size="0"
       simplify_individual_paths="false"
       simplify_just_coalesce="false"
       step="1" />
  </defs>
  <g
     inkscape:label="Layer 1"
     inkscape:groupmode="layer"
     id="layer1">
    <path
       id="path-1-0"
       style="fill:#342f2f;fill-rule:nonzero;stroke:none;stroke-width:3.77953px;stroke-linecap:butt;stroke-linejoin:miter;stroke-opacity:1"
       d="m 780.41602,217.47266 c -3.08948,0.006 -6.15409,0.22868 -9.18946,0.58398 -1.44606,0.16927 -2.89852,0.36959 -4.36914,0.5957 -5.79799,0.89145 -11.76172,2.1883 -17.72656,3.17774 l 0.0723,-0.01 c -2.61224,0.45413 -5.13603,0.90492 -7.59765,1.10157 -2.38865,0.19081 -4.61128,0.13177 -6.69727,-0.35547 l 0.0547,0.0156 c -1.56089,-0.19143 -2.99092,-0.75839 -4.10742,-1.5625 -0.60325,-0.43446 -1.21044,-0.87768 -1.89649,-1.16406 -0.68604,-0.28638 -1.46713,-0.39814 -2.17773,-0.17969 -0.3553,0.10923 -0.68783,0.29848 -0.95898,0.55274 -0.27116,0.25425 -0.48066,0.57342 -0.61524,0.91992 -0.13458,0.34649 -0.19405,0.7182 -0.20117,1.08984 -0.007,0.37164 0.0392,0.74257 0.0859,1.11133 0.14108,1.1122 0.29409,2.20895 0.46289,3.29297 0.35426,2.27502 0.79875,4.62371 1.35937,6.99414 -5.41646,-0.16948 -12.99838,0.2795 -21.84375,2.92578 -5.65346,1.69135 -11.77815,4.27904 -17.875,8.08398 -1.75933,1.09798 -3.62961,2.36765 -5.55469,3.83204 -8.37623,6.35398 -17.08723,15.42701 -24.14062,27.82617 -5.64426,9.92206 -10.06566,21.74447 -12.01562,34.83398 -0.003,0.0204 -0.005,0.0421 -0.008,0.0625 -1.18887,8.36878 -0.9807,16.49282 -1.12304,24.83789 -0.0666,3.90126 -0.21325,7.7206 -0.63282,11.44922 -0.40998,3.64351 -1.07731,7.17378 -2.16992,10.58594 -0.008,0.0262 -0.0151,0.0539 -0.0234,0.0801 -1.31399,4.12396 -3.37978,8.0175 -6.05273,11.54687 -2.67162,3.52761 -5.90163,6.62762 -9.47266,9.1836 -0.0644,0.0461 -0.12662,0.0956 -0.18554,0.14843 -0.0589,0.0529 -0.1199,0.10337 -0.1836,0.15039 -1.31407,0.97011 -3.27591,2.12366 -5.47461,3.72071 -1.13467,0.82418 -2.35445,1.79953 -3.51953,2.97461 -1.22374,1.23424 -2.38146,2.68139 -3.33984,4.40625 -0.0834,0.15008 -0.15967,0.30394 -0.22461,0.46289 -0.0649,0.15894 -0.12491,0.32058 -0.1875,0.48047 -0.44186,1.12865 -0.7179,2.27952 -0.8418,3.42968 -0.12724,1.18114 -0.0888,2.30584 0.0605,3.35157 0.31019,2.17264 1.09275,3.98898 1.82812,5.33789 0.8071,1.48045 1.73886,2.72241 2.45899,3.61132 0.80312,0.99136 1.67524,1.94338 2.13281,2.44922 0.0218,0.0241 0.0463,0.0465 0.0703,0.0684 0.024,0.0218 0.0459,0.043 0.0684,0.0664 0.5688,0.5914 1.10357,1.11579 1.57617,1.5625 3.12626,2.95495 6.58314,5.3033 7.40039,5.90625 1.27068,0.91421 2.7647,1.46823 4.32422,1.60351 5.19358,2.72061 12.55384,6.22619 21.58985,8.54493 6.26155,1.60678 11.9124,2.22314 15.78515,2.00195 0.34681,0.91656 0.70968,1.82658 1.10352,2.72461 1.99796,4.55575 4.58032,8.84597 7.61133,12.83594 2.2143,2.91487 4.66869,5.67129 7.31054,8.25195 4.21697,4.11928 9.05072,7.91309 14.34961,11.21484 11.40919,7.15186 24.04546,12.43705 37.61914,16.21289 13.0312,3.62494 26.47822,5.73472 39.77344,6.91407 14.58568,1.40501 29.1197,0.63735 42.91406,-2.16993 14.95475,-3.04342 28.48511,-8.36179 40.27149,-15.35742 2.1529,-1.19959 4.20786,-2.46568 6.16406,-3.77929 9.32362,-6.26094 16.83306,-13.80677 22.73438,-21.34571 8.0082,-10.23049 14.07269,-21.73699 18.16992,-33.44336 4.53968,-13.18011 7.52973,-28.16414 7.7207,-44.24023 0.0131,-1.10308 0.0142,-2.21741 0,-3.3418 -0.18762,-14.87268 -2.83963,-31.24577 -9.39844,-47.43359 -8.59356,-21.37662 -24.87739,-37.46237 -42.64843,-46.89453 -13.5276,-7.35973 -26.85047,-11.05069 -37.74024,-12.94141 -0.5817,-0.101 -1.15986,-0.18063 -1.74023,-0.27344 -0.70591,-3.18148 -1.99481,-8.30599 -4.19727,-13.4375 -1.06433,-2.47978 -2.32417,-4.93256 -3.82422,-7.28515 -1.47644,-2.31559 -3.28271,-4.69398 -5.5039,-6.95703 l -0.0312,-0.0332 c -3.06486,-3.13413 -6.84729,-5.71996 -11.21485,-7.58593 -3.95429,-1.68942 -8.29608,-2.74514 -12.78125,-3.08399 -1.86981,-0.16989 -3.73225,-0.24395 -5.58593,-0.24023 z M 778.69531,228.5 c 2.08723,0.0194 4.12812,0.14623 6.14063,0.4043 3.31884,0.44989 6.37686,1.39448 9.04883,2.70703 2.94986,1.44905 5.3216,3.28804 7.15039,5.3164 0.0104,0.0116 0.0226,0.0218 0.0332,0.0332 1.50427,1.62039 2.75757,3.34677 3.81641,5.08008 1.07173,1.75441 2.01522,3.623 2.85351,5.58984 1.02306,2.40034 1.82562,4.82991 2.45313,7.00586 -18.64675,-1.08804 -33.46716,1.90869 -41.1875,3.89453 -3.67291,0.99252 -5.86474,4.75415 -4.91722,8.43892 0.94753,3.68477 4.68207,5.92245 8.37815,5.02006 7.69389,-1.97903 23.38606,-5.32982 42.88868,-3.07031 2.48249,0.28762 4.97993,0.6608 7.48437,1.12696 9.71901,1.80901 21.36235,5.39018 32.9668,12.16406 14.69743,8.70584 27.22981,22.82828 33.49804,40.26562 0.009,0.0242 0.0183,0.0482 0.0273,0.0723 5.32494,14.07836 7.40255,28.29357 7.55273,41.31055 0.0113,0.98183 0.0118,1.95574 0.002,2.91992 -0.14296,14.03345 -2.47332,27.27913 -6.09375,39.0039 -3.10972,10.22522 -7.77866,20.3954 -14.20704,29.4336 -4.74094,6.66569 -10.81819,13.24308 -18.47265,18.63476 -1.61023,1.13422 -3.30017,2.22676 -5.07227,3.26172 -0.0591,0.0345 -0.11762,0.0675 -0.17578,0.10352 -10.26542,6.36342 -22.25407,11.32477 -35.71289,14.24218 -12.37247,2.68194 -25.52476,3.52774 -38.80078,2.36524 -0.0181,-0.002 -0.0365,-0.002 -0.0547,-0.004 -12.71576,-1.00876 -25.35052,-2.91789 -37.43359,-6.21484 -12.55231,-3.42499 -23.99044,-8.20713 -34.16406,-14.58594 -4.51916,-2.81691 -8.57869,-6.03368 -12.06055,-9.48047 -2.17935,-2.15739 -4.15985,-4.43558 -5.90625,-6.81054 -2.39145,-3.25218 -4.32882,-6.66076 -5.76367,-10.17188 -0.19273,-0.4716 -0.37446,-0.94315 -0.54883,-1.41797 5.04887,-1.03752 11.91139,-2.08049 21.01367,-5.15429 9.33496,-3.15239 18.72021,-7.73871 27.73633,-13.99219 5.5172,-3.68306 10.28548,-7.56591 12.83008,-10.45899 -0.94713,1.96118 -1.93601,4.28444 -2.61914,6.67774 -0.46433,1.62673 -0.9624,3.77817 -1.26172,6.23047 -0.003,0.0247 -10e-4,0.0493 0,0.0742 10e-4,0.0249 -8.6e-4,0.0498 -0.006,0.0742 -0.115,0.56096 -0.30986,1.67961 -0.25781,2.85938 0.024,0.54504 0.10244,1.18379 0.30273,1.85351 0.1911,0.63899 0.49651,1.32104 0.98242,1.97657 0.0591,0.0797 0.12825,0.15151 0.19531,0.22461 0.30728,0.33492 0.66267,0.62816 1.06446,0.86523 0.39432,0.23267 0.80744,0.39779 1.22656,0.50195 0.81501,0.20255 1.58522,0.16241 2.22266,0.041 0.62141,-0.11833 1.17863,-0.32644 1.63867,-0.53906 0.45834,-0.21184 0.86604,-0.44906 1.19922,-0.66407 0.0237,-0.0153 0.047,-0.031 0.0703,-0.0469 1.95687,-1.33268 3.6165,-2.92305 5.08008,-4.55273 1.4633,-1.62939 2.8012,-3.38192 3.99023,-4.93165 0.0142,-0.0185 0.029,-0.036 0.043,-0.0547 7.58145,-10.14547 13.34962,-20.76471 17.74609,-30.20703 2.53878,-5.70831 4.32132,-10.27657 5.63282,-14.70118 0.95385,-3.21803 1.64232,-6.39625 2.03711,-9.55273 -0.43112,-1.11483 -1.23605,-2.04782 -1.48438,-2.4668 -0.32912,0.35902 -1.32484,1.04326 -2.07617,1.85157 -0.68874,2.88253 -1.59928,5.78661 -2.69531,8.77343 -1.52562,4.1575 -3.38431,8.34287 -6.08985,13.87891 -4.53659,9.11132 -10.30101,19.24687 -17.66992,28.86914 -1.28536,1.56063 -2.52503,3.09509 -3.84375,4.50781 -1.28705,1.37879 -2.59376,2.58099 -4.01953,3.55078 -0.0242,0.015 -0.0466,0.0267 -0.0703,0.041 -0.11851,-0.58202 -0.17562,-1.27952 -0.27344,-1.98242 l -0.008,0.15039 c 0.0722,-2.18523 0.29052,-4.23203 0.46679,-5.79492 0.63741,-5.65135 0.90308,-9.98606 1.1504,-12.24805 0.3229,-1.06894 0.4723,-1.95835 0.64257,-2.45117 -0.9281,0.31416 -3.2063,0.49874 -5.5664,1.76172 -2.90235,1.55315 -8.0878,6.41245 -14.10743,10.90625 -8.37111,6.10814 -17.20783,10.71465 -26,13.52343 -8.64813,2.76277 -15.92789,3.33328 -20.33984,2.84375 -0.32027,-0.0179 -0.60923,-0.0726 -0.89453,-0.10937 -10.66707,0.73761 -14.66234,-4.69379 -22.70313,-6.74414 -7.25007,-1.74462 -13.58277,-3.9886 -18.18554,-5.98438 -0.45417,-0.56777 -0.97779,-1.0763 -1.5586,-1.51367 -0.65971,-0.48672 -3.87021,-3.00822 -6.14648,-4.88672 -0.36887,-0.30441 -0.78553,-0.64968 -1.22266,-1.02344 l 0.13868,0.13672 c -0.59985,-0.54498 -1.09404,-0.98642 -1.59961,-1.47265 -0.1207,-0.11609 -0.1568,-0.15555 -0.25977,-0.25977 0.22653,-0.23525 0.46673,-0.47741 0.76172,-0.74805 1.3189,-1.21001 3.28659,-2.64069 5.43945,-4.68359 4.38427,-3.54417 8.30696,-7.74652 11.51758,-12.47461 3.28432,-4.83662 5.7865,-10.17387 7.28711,-15.83789 1.26967,-4.45144 1.93432,-8.85438 2.27539,-13.10351 0.34661,-4.3181 0.36541,-8.59278 0.30859,-12.61915 -0.12642,-8.95853 -0.53868,-15.95495 0.29297,-23.4082 1.49478,-11.62076 5.21394,-22.21153 10.07617,-31.14062 6.07779,-11.16136 13.6761,-19.32568 20.98438,-25.02344 1.64259,-1.29897 3.23103,-2.41786 4.73242,-3.38477 5.20859,-3.35435 10.48407,-5.61391 15.35547,-7.07226 9.87944,-2.95762 17.83637,-2.60761 22.25391,-2.16406 1.05546,2.56139 2.29028,5.03449 3.73437,7.39257 1.08066,1.29376 2.09496,2.39381 3.15821,3.3711 1.50732,1.38545 2.73555,2.17356 3.63281,2.6914 -0.64627,-0.8109 -1.41572,-2.00388 -2.18946,-3.74414 -0.54587,-1.22775 -1.01353,-2.5377 -1.49023,-4.02343 -1.27268,-2.77733 -2.25653,-5.68569 -3.02344,-8.68165 l -1.06836,-4.97461 c -0.31794,-1.809 -0.56652,-3.61509 -0.76172,-5.40039 0.0932,0.0415 0.18502,0.0852 0.2793,0.125 0.009,0.004 0.0181,0.006 0.0273,0.008 0.009,0.002 0.0183,0.005 0.0273,0.008 3.15385,1.09109 6.3682,1.44347 9.39062,1.47656 3.02624,0.0331 6.08425,-0.2554 8.61329,-0.47656 0.0122,-0.001 0.0231,-0.004 0.0352,-0.006 0.0121,-0.002 0.025,-0.002 0.0371,-0.004 6.35818,-0.80545 12.30267,-1.86807 17.71484,-2.49023 1.37347,-0.15789 2.7045,-0.29097 4.00782,-0.39258 2.19531,-0.17114 4.32878,-0.2577 6.41601,-0.23828 z m 77.04883,141.12891 c -1.96936,0.24465 -6.5961,0.9765 -11.77734,1.57617 -2.07693,0.24038 -4.75189,0.50145 -7.75,0.77344 l -36.41797,2.77929 c -5.71589,0.38104 -11.06705,0.81409 -13.28125,0.90625 l -6.69336,7.27735 7.27344,6.6914 c 2.5714,-0.10696 7.35217,-0.21882 13.27148,-0.87109 2.2605,15.29314 9.50458,25.84156 17.75,25.84375 9.5362,-0.008 17.49989,-14.02171 18.375,-32.33594 3.44141,-0.66799 6.49899,-1.24438 8.80469,-1.62891 5.29043,-0.88225 9.50029,-1.2893 11.62109,-1.55273 l 4.14063,-5.31641 z m -110.07226,41.94921 c 0.007,0.009 0.0153,0.0186 0.0234,0.0274 -0.008,-0.008 -0.0154,-0.0177 -0.0234,-0.0274 z"
       transform="scale(0.26458333)"
       sodipodi:nodetypes="sssccsccsssssssscsscsscssscsssssssssssssssssccscssscscscsscssccscssccscssssssssccscsscscsscssscsssscssscsccssssssssssssscssccscccsccsccccsccscscccccsccscscscsscscssccscsccccsscssscssscsccccccccscccccccc" />
    <path
       id="path-1-4"
       style="fill:#767272;fill-rule:nonzero;stroke:none;stroke-width:3.77953px;stroke-linecap:butt;stroke-linejoin:miter;stroke-opacity:1"
       d="m 302.05273,554.17383 c -0.71061,0.0247 -1.40301,0.11665 -2.0664,0.26367 -0.82497,0.18293 -1.62346,0.45518 -2.38477,0.80664 -1.86553,0.86124 -3.48295,2.18635 -4.7539,3.83398 -12.54872,13.21418 -22.12237,28.74791 -28.79297,45.30469 -6.8853,17.08967 -10.60287,35.06655 -11.48438,52.60938 -0.001,0.0227 -0.003,0.0433 -0.004,0.0644 -0.40902,10.9813 0.0923,21.69053 1.83789,31.93555 1.95727,11.48762 5.3718,21.74253 10.21093,30.82422 l 0.002,0.002 c 0.008,0.0154 0.0152,0.0315 0.0234,0.0469 5.33967,10.19539 11.85083,18.50511 17.02735,24.47852 2.66007,3.06958 5.19488,5.77546 7.2832,7.94336 3.46409,3.59604 6.62835,6.65986 9.22071,9.12305 -0.79616,2.28479 -1.3971,4.66226 -1.78907,7.10742 -0.80213,5.00383 -0.74155,10.26436 0.21289,15.49414 0.68527,5.06101 2.09973,9.91819 4.1211,14.52734 1.99794,4.55575 4.57838,8.84597 7.60937,12.83594 2.21429,2.91487 4.6687,5.66933 7.31055,8.25 4.21695,4.11929 9.05071,7.91504 14.34961,11.2168 1.31899,0.82681 2.65646,1.62685 4.00781,2.40429 0.70125,0.95505 1.4741,1.87517 2.40625,2.70508 2.17884,1.96952 4.48881,3.31553 6.32617,4.24219 2.24426,1.13187 4.65277,2.04875 5.90235,2.52734 l 4.51757,0.2168 c 0.24867,-0.0664 0.64885,-0.21121 0.93555,-0.29688 4.39471,1.65043 8.89978,3.12788 13.52344,4.41407 13.03113,3.62493 26.47826,5.73471 39.77344,6.91406 14.58568,1.40501 29.11969,0.6354 42.91406,-2.17187 14.95474,-3.04343 28.48706,-8.35985 40.27344,-15.35547 2.1529,-1.1996 4.20591,-2.46569 6.16211,-3.7793 9.32361,-6.26094 16.83501,-13.80677 22.73632,-21.3457 8.00821,-10.23049 14.07074,-21.737 18.16797,-33.44336 4.53969,-13.18012 7.53169,-28.16415 7.72266,-44.24024 0.0131,-1.10307 0.0122,-2.21741 -0.002,-3.34179 -0.18762,-14.87268 -2.83963,-31.24577 -9.39844,-47.4336 -8.59357,-21.37664 -24.8774,-37.46237 -42.64844,-46.89453 -6.10803,-3.32309 -12.17079,-5.89341 -17.99023,-7.89258 -1.96972,-3.7596 -4.44226,-8.10866 -7.23633,-12.09179 -2.12398,-3.0279 -4.71716,-6.29585 -7.85156,-9.39454 -2.09897,-2.07499 -4.49201,-4.12592 -7.21875,-6.00586 -0.84643,-0.58354 -1.74639,-1.16404 -2.70118,-1.73437 -3.09781,-1.82672 -6.54147,-3.26059 -10.45117,-4.23828 -3.35542,-0.83906 -6.89533,-1.30492 -10.67773,-1.4668 -6.7742,-0.28989 -13.26766,0.40263 -20.40821,1.08789 -0.0461,0.004 -0.0926,0.0119 -0.13867,0.0156 -9.64993,1.16942 -20.50049,0.86094 -31.18554,-2.42774 -0.0415,-0.0113 -0.0833,-0.0238 -0.125,-0.0351 -7.31363,-2.10841 -13.419,-4.79746 -21.64844,-7.82422 -0.62768,-0.23093 -1.26493,-0.45565 -1.92774,-0.54492 -0.6628,-0.0892 -1.34668,-0.0397 -1.98047,0.17382 -0.63377,0.21355 -1.20648,0.58631 -1.6914,1.04688 -0.48492,0.46057 -0.8829,1.00395 -1.27344,1.54687 -0.7084,0.9848 -1.17923,2.04904 -1.45312,3.12696 -0.26843,1.05645 -0.33243,2.0624 -0.29883,2.95312 0.0333,0.88316 0.16418,1.70201 0.32031,2.41211 0.15628,0.71074 0.35306,1.37815 0.54297,1.96485 0.18123,0.55984 0.36274,1.06681 0.5332,1.53711 -5.84148,-3.78152 -11.12993,-8.30517 -16.01367,-13.19336 -7.10598,-7.11247 -13.53083,-15.18662 -19.37305,-22.83204 -0.54254,-1.68245 -1.41328,-3.21762 -2.61523,-4.5039 -1.75002,-1.8728 -3.96314,-2.96127 -6.21289,-3.33008 -0.73793,-0.12094 -1.46712,-0.16333 -2.17774,-0.13867 z m 1.69336,13.44726 c 2.1e-4,-9e-5 -0.0575,0.0933 -0.25195,0.21485 0.0197,-0.0267 0.0351,-0.0568 0.0586,-0.0801 0.0565,-0.0559 0.12363,-0.0962 0.19336,-0.13477 z m -2.13867,2.35547 c 6.06364,7.87635 13.1475,16.76236 21.19336,24.69922 7.78036,7.67497 16.9154,14.94503 27.88281,20.10352 0.25592,0.12056 0.51765,0.22865 0.78711,0.31445 1.2255,0.3902 2.76554,0.70176 4.44532,0.5293 0.86123,-0.0884 1.77286,-0.30522 2.67773,-0.71485 0.90928,-0.41147 1.7242,-0.97823 2.41602,-1.66992 0.68157,-0.68145 1.18334,-1.42191 1.54687,-2.14062 0.35853,-0.70885 0.58597,-1.40071 0.73242,-2.01954 0.284,-1.19991 0.31131,-2.33143 0.26758,-3.2246 -0.0447,-0.91318 -0.17442,-1.78722 -0.32617,-2.55664 -0.15273,-0.77447 -0.34302,-1.51699 -0.53516,-2.1875 -0.19219,-0.67064 -0.39582,-1.29803 -0.58398,-1.84376 -0.0702,-0.20343 -0.12921,-0.35803 -0.19531,-0.54101 4.08435,1.39349 8.20259,2.72926 12.52343,3.81055 12.53147,3.49802 24.90436,3.4807 35.54297,1.94531 7.24536,-0.842 12.95929,-1.5358 18.84961,-1.38477 3.22983,0.0828 6.09862,0.42566 8.70899,1.03711 3.02483,0.70851 5.60348,1.75427 7.85937,3.05469 0.74162,0.43442 1.4678,0.89637 2.15234,1.36133 2.20543,1.49782 4.16996,3.15814 5.92774,4.88281 2.63131,2.5818 4.86209,5.36926 6.74414,8.05469 0.64174,0.91567 1.206,1.88957 1.81055,2.84179 -2.22557,-0.50095 -4.40308,-0.94799 -6.46875,-1.30664 -2.81774,-0.48922 -5.61988,-0.88338 -8.40039,-1.18554 -21.78966,-2.36788 -39.26479,1.12694 -47.89063,3.3457 -3.71714,0.95625 -5.95527,4.74478 -4.99902,8.46191 0.95625,3.71714 4.74477,5.95528 8.46191,4.99903 7.69389,-1.97904 23.38606,-5.32983 42.88867,-3.07031 2.4825,0.28761 4.97994,0.66079 7.48438,1.12695 5.60453,1.04318 11.84989,2.68167 18.35742,5.17578 1.08728,1.37037 2.61893,1.84406 4.09766,1.67188 3.47059,1.50634 6.99145,3.26265 10.50976,5.3164 14.69744,8.70585 27.22982,22.82827 33.49805,40.26563 0.009,0.0242 0.0202,0.0482 0.0293,0.0723 5.32494,14.07836 7.40254,28.29358 7.55273,41.31055 0.0113,0.98184 0.0118,1.95574 0.002,2.91992 -0.14295,14.03345 -2.47331,27.27913 -6.09375,39.00391 -3.10971,10.22522 -7.7806,20.3954 -14.20898,29.43359 -4.74095,6.66569 -10.81624,13.24308 -18.4707,18.63477 -1.61023,1.13421 -3.30017,2.22676 -5.07227,3.26171 -0.0591,0.0345 -0.11958,0.0675 -0.17773,0.10352 -10.26542,6.36342 -22.25408,11.32477 -35.71289,14.24219 -4.83455,1.04796 -9.78898,1.80991 -14.82227,2.28711 1.70055,-0.26862 3.41502,-0.6672 5.12305,-1.3125 3.62793,-1.37066 7.23979,-3.653 10.20117,-6.90625 0.0654,-0.0719 0.12924,-0.14408 0.1914,-0.21875 1.41728,-1.70246 2.50249,-3.57334 3.30079,-5.54492 0.76361,-1.88593 1.25112,-3.83132 1.53515,-5.76368 0.51487,-3.50274 0.3701,-7.01773 -0.0234,-10.21484 -0.0263,-5.26353 -0.71875,-10.74736 -2.2832,-16.12109 -1.54817,-5.31782 -3.96562,-10.57145 -7.4668,-15.33399 l -0.0312,-0.041 c -4.74457,-6.5427 -10.93658,-11.66903 -17.83203,-15.4668 -6.80883,-3.75007 -14.31172,-6.2117 -21.83007,-7.48633 -4.32719,-0.72262 -8.73376,-1.11216 -13.1543,-1.14844 -4.42055,-0.0363 -8.85458,0.28064 -13.23438,0.97071 -8.80258,1.3869 -17.39202,4.28278 -25.18359,8.84961 -5.50299,3.20067 -10.47187,7.44023 -14.43164,12.44922 -4.03915,5.10938 -7.03612,11.02922 -8.5,17.48828 -1.06924,4.35464 -1.36947,8.65605 -1.23242,12.70898 0.0688,2.03617 0.25697,4.03039 0.51367,5.96875 -1.16704,-1.00422 -2.29076,-2.03193 -3.35352,-3.08398 -2.17933,-2.1574 -4.1579,-4.43559 -5.90429,-6.81055 -2.39144,-3.25218 -4.32884,-6.66076 -5.76368,-10.17188 -1.47198,-3.602 -2.41099,-7.29941 -2.78515,-11.07031 -0.009,-0.0867 -0.0251,-0.17126 -0.0352,-0.25781 -0.43451,-3.72419 -0.19064,-7.33534 0.5625,-10.62695 0.71112,-3.10797 1.8671,-5.90441 3.32617,-8.35938 0.19989,-0.33632 0.40942,-0.67322 0.62891,-1.00781 0.0505,-0.077 0.0967,-0.15571 0.14453,-0.23438 1.65516,-2.72321 3.41683,-5.22328 5.46485,-8.21875 2.98132,-4.36053 4.51924,-6.888 5.95703,-9.57226 2.00904,-3.75166 0.59638,-8.42162 -3.15528,-10.43066 -3.75165,-2.00905 -8.42162,-0.59639 -10.43066,3.15527 -1.04711,1.9549 -2.33423,3.98295 -5.15235,8.04883 -1.32354,1.90956 -2.80011,4.03129 -4.2207,6.26562 -2.0095,-1.94485 -4.15764,-4.03116 -6.42578,-6.42187 -1.97261,-2.0792 -4.3139,-4.64593 -6.75391,-7.55469 -4.78541,-5.70471 -10.51051,-13.36917 -15.07617,-22.5586 -0.008,-0.0151 -0.0171,-0.0345 -0.0254,-0.0488 -4.02633,-7.90942 -6.87854,-16.96471 -8.44531,-27.32618 -1.39828,-9.24718 -1.70199,-19.06509 -1.15234,-29.34375 0.97292,-16.14254 4.53928,-32.60242 10.9375,-48.1582 5.97141,-14.51809 14.32033,-28.00394 25.0039,-39.51172 z m 165.17969,120.26758 c -1.02542,0.0114 -2.10001,0.0622 -3.2168,0.1582 -6.53145,0.0576 -12.95635,1.39307 -19.06054,3.76758 -6.00108,2.3344 -11.30878,5.52044 -15.80665,8.95313 -0.005,0.004 -0.0118,0.009 -0.0176,0.0117 -0.006,0.003 -0.0104,0.006 -0.0156,0.01 -5.51034,4.23622 -9.61284,8.60717 -12.67187,12.44141 -1.21396,1.52159 -2.21819,2.89921 -3.04102,4.06445 -3.50376,4.96185 -5.70034,9.03066 -6.60547,11.04883 -1.95403,4.35787 -0.006,9.47566 4.35156,11.42969 4.35787,1.95403 9.47566,0.004 11.42969,-4.35352 0.58866,-1.31253 1.78582,-4.34861 4.57422,-7.63477 0.65454,-0.77136 1.49142,-1.65923 2.51172,-2.61132 2.56638,-2.39482 6.09128,-4.99342 10.5625,-7.21875 l -0.0332,0.0215 c 3.63111,-1.77859 7.54059,-3.10881 11.49609,-3.76172 3.99815,-0.65995 7.59187,-0.55766 10.75391,0.0762 2.03822,0.78575 3.42292,1.60165 4.43164,2.07813 1.49865,0.70791 2.73758,1.0026 3.24609,1.25586 l 19.38477,-6.49609 -6.4961,-19.38477 c -1.3457,-0.67022 -4.17857,-2.30435 -8.15234,-3.16406 -1.92469,-0.4164 -4.54875,-0.72548 -7.625,-0.69141 z m -138.78125,6.55859 c -8.34791,0.0491 -16.65307,2.37448 -23.86914,6.62696 l 0.0742,-0.0508 c -0.654,-0.12332 -1.20524,-0.18341 -1.5,-0.12891 -0.45923,0.0849 -0.62742,0.44507 -0.75196,0.53516 l -3.1875,19.85937 19.85938,3.1875 c 0.0606,-0.0438 0.30611,0.0159 0.36328,-0.25976 0.0365,-0.17588 -0.003,-0.59094 -0.0625,-1.10938 -4.8e-4,-0.004 -6e-4,-0.008 0,-0.0117 6e-4,-0.004 9.1e-4,-0.008 0.004,-0.0117 0.003,-0.003 0.006,-0.006 0.01,-0.008 0.004,-0.002 0.009,-0.004 0.0137,-0.004 0.008,-7.3e-4 0.0172,1.9e-4 0.0254,-0.002 0.004,-10e-4 0.008,-0.002 0.0117,-0.004 0.004,-0.002 0.007,-0.005 0.01,-0.008 3.74212,-3.34942 8.79861,-5.63812 14.10156,-5.89062 0.013,-6.2e-4 0.0262,-3.1e-4 0.0391,0.002 0.0129,0.002 0.026,0.004 0.0391,0.004 5.83815,0.0463 10.95068,2.26059 14.57422,4.74804 1.25203,0.85949 2.30004,1.7317 3.14453,2.52344 4.23311,3.96871 5.84478,8.15945 6.50976,9.91406 1.96644,5.189 7.76804,7.80043 12.95703,5.83399 5.189,-1.96643 7.80043,-7.76608 5.83399,-12.95508 -1.24307,-3.27994 -4.40771,-10.1131 -11.13281,-17.04102 -1.34338,-1.38389 -2.99382,-2.94623 -4.97852,-4.54101 -5.56445,-4.47124 -14.128,-9.44675 -25.16602,-10.71484 -2.29575,-0.34271 -4.61055,-0.50774 -6.92187,-0.49415 z M 390.24414,768.5 c 3.68665,0.0137 7.37615,0.3214 11.00977,0.91211 3.75375,0.61692 7.46202,1.5921 10.99804,2.91797 -0.0364,0.18118 -0.0611,0.3645 -0.0742,0.54883 -0.0504,1.08907 -0.14345,3.31687 -0.17968,6.48632 -0.0444,3.88617 0.1487,12.40894 0.26172,21.19336 0.11673,9.07352 -0.14495,15.3432 -0.66602,20.42383 -2.19589,-1.11508 -4.46392,-2.21556 -6.86133,-3.1582 -4.25396,-1.83076 -8.4976,-2.7118 -12.47851,-2.91211 0.0179,-0.20284 0.0362,-0.40249 0.0527,-0.61719 0.001,-0.0172 0.003,-0.0335 0.004,-0.0508 0.47837,-7.27065 -0.12097,-14.63607 -0.61328,-20.91016 -0.76081,-9.33924 -1.64147,-17.01885 -2.01954,-21.20703 -0.12118,-1.34251 -0.2235,-2.5364 -0.31054,-3.62109 0.29217,-0.003 0.5847,-0.007 0.87695,-0.006 z m -10.28125,0.74609 c 0.0898,1.11957 0.19171,2.34718 0.31641,3.72852 0.3861,4.27725 1.27556,12.05091 2.01367,21.11133 0.50183,6.39533 1.02788,13.0524 0.60547,19.51172 -0.0662,0.85628 -0.14356,1.55609 -0.22461,2.14453 -6.42817,1.40163 -12.26924,3.98934 -16.20508,5.79101 -0.51208,-3.85236 -1.12224,-8.47918 -1.75195,-13.04882 -1.85134,-13.47078 -3.61907,-21.58284 -5.73438,-28.63282 -0.29533,-0.9843 -0.58615,-1.89555 -0.87304,-2.76758 0.26839,-0.16774 0.53392,-0.34071 0.80664,-0.50195 6.16345,-3.65226 13.07741,-6.04994 20.34179,-7.22851 0.23451,-0.038 0.47004,-0.072 0.70508,-0.10743 z m 40.80664,7.19532 c 4.58619,2.78817 8.52138,6.27306 11.55274,10.42578 0.0128,0.0175 0.0261,0.0334 0.0391,0.0508 2.49002,3.335 4.29525,7.13322 5.48828,11.1543 1.23516,4.16307 1.80073,8.5195 1.81055,12.78906 6.8e-4,0.29614 0.0179,0.59338 0.0586,0.88672 0.36101,2.60209 0.44183,4.96377 0.15234,7.0039 -0.14844,1.04612 -0.38718,1.94824 -0.69726,2.72266 -0.30041,0.75026 -0.67323,1.39265 -1.11719,1.94922 -1.42119,1.52595 -3.18774,2.64048 -4.98437,3.3125 -2.12896,0.79632 -4.15493,0.93016 -5.85157,0.66211 -0.97964,-0.14879 -1.91742,-0.36445 -2.82812,-0.625 -0.72523,-0.20749 -1.45237,-0.44893 -2.1836,-0.72071 -0.77368,-0.28755 -1.54916,-0.61218 -2.33007,-0.95703 0.81616,-6.12319 1.23831,-13.41393 1.09375,-24.65039 -0.11518,-8.95229 -0.30444,-17.24331 -0.26172,-20.98047 0.0133,-1.16054 0.0347,-2.14061 0.0586,-3.02343 z m -69.13867,5.72265 c 1.95695,6.54223 3.6473,14.23146 5.45312,27.3711 0.74985,5.44138 1.48966,11.10465 2.05469,15.3164 -2.86055,1.24774 -5.07501,2.12264 -6.91992,2.80078 -7.33319,3.39757 -7.87924,-1.95649 -8.09014,-5.10742 -0.54475,-1.71073 -0.21476,-3.19115 -0.78877,-6.06445 -0.0131,-0.0654 -0.0262,-0.13024 -0.041,-0.19531 -0.7112,-3.13352 -1.22612,-6.3468 -1.3711,-9.5293 -0.13814,-3.03267 0.0609,-6.01713 0.73438,-8.89258 0.0105,-0.045 0.0215,-0.0896 0.0312,-0.13476 0.91748,-4.24673 2.88886,-8.32392 5.75391,-12.00391 0.9701,-1.24604 2.03634,-2.43657 3.18359,-3.56055 z m 41.05273,46.98438 c 2.15121,0.0719 4.4697,0.47862 6.84571,1.37695 0.0663,0.0251 0.13051,0.0544 0.19726,0.0781 3.66266,1.30267 6.58082,2.91623 11.30274,5.1582 2.0059,0.9524 4.24904,1.9596 6.63281,2.81055 1.00981,0.36047 2.06357,0.69974 3.15625,1 1.37158,0.37689 2.86257,0.7076 4.46094,0.9375 0.95078,0.13808 1.92654,0.21331 2.91601,0.23437 -6.44047,0.39013 -12.99071,0.30873 -19.57226,-0.26758 -0.0181,-0.002 -0.0365,-0.002 -0.0547,-0.004 -11.97652,-0.95012 -23.87671,-2.71508 -35.31641,-5.66993 4.05715,-1.88488 8.71053,-3.96174 13.47266,-5 0.0398,-0.009 0.0797,-0.0153 0.11914,-0.0254 1.70473,-0.43772 3.68864,-0.70076 5.83984,-0.6289 z"
       transform="scale(0.26458333)"
       sodipodi:nodetypes="ssscsccscccsscscssscccscccscscsscsscccssscssccccssssssssscscssssssscsssscssssssscccsscssscsssscsscccscsscssscscssssscsccscsscscscsssssssssscscscssccscscscssccsscssssccscscccsssccssccssscscsscsccssssssscsccccscccccccscccsccccssccsccscssscscscsscssccccccsccscscsscsssccsccccscccccccss" />
    <path
       id="path-1-4-4"
       style="fill:#342f2f;fill-rule:nonzero;stroke:none;stroke-width:3.77953px;stroke-linecap:butt;stroke-linejoin:miter;stroke-opacity:1"
       d="M 302.05273 202.17383 C 301.34212 202.19853 300.64972 202.29044 299.98633 202.4375 C 299.16137 202.62038 298.36287 202.89268 297.60156 203.24414 C 295.73603 204.10536 294.11861 205.4285 292.84766 207.07617 C 280.29896 220.29025 270.7253 235.82417 264.05469 252.38086 C 257.16938 269.47044 253.45182 287.4494 252.57031 304.99219 C 252.56924 305.01344 252.5672 305.03538 252.56641 305.05664 C 252.15739 316.03788 252.65873 326.74525 254.4043 336.99023 C 256.36157 348.47778 259.7761 358.73283 264.61523 367.81445 C 264.61523 367.81445 264.61719 367.81641 264.61719 367.81641 C 264.62539 367.83179 264.63242 367.8479 264.64062 367.86328 C 269.98031 378.0587 276.49144 386.36837 281.66797 392.3418 C 284.32804 395.41137 286.86285 398.11924 288.95117 400.28711 C 292.30047 403.76398 295.60424 406.97197 298.16992 409.41406 C 297.37478 411.69707 296.77445 414.07255 296.38281 416.51562 C 295.58068 421.51946 295.64126 426.77998 296.5957 432.00977 C 297.28097 437.07077 298.69543 441.92795 300.7168 446.53711 C 302.71474 451.09286 305.29518 455.38307 308.32617 459.37305 C 310.54046 462.28792 312.99487 465.04238 315.63672 467.62305 C 319.85367 471.74234 324.68743 475.53808 329.98633 478.83984 C 341.39545 485.9917 354.03184 491.27494 367.60547 495.05078 C 380.65447 498.68069 394.12061 500.79229 407.43359 501.9707 C 422.00094 503.36854 436.51582 502.59869 450.29297 499.79492 C 465.24771 496.7515 478.78003 491.43508 490.56641 484.43945 C 492.7193 483.23986 494.77232 481.97377 496.72852 480.66016 C 506.05212 474.39922 513.56353 466.85338 519.46484 459.31445 C 527.47305 449.08397 533.53558 437.57549 537.63281 425.86914 C 542.1725 412.68906 545.16449 397.70692 545.35547 381.63086 C 545.36857 380.52779 545.3677 379.41344 545.35352 378.28906 C 545.1659 363.41642 542.51391 347.04326 535.95508 330.85547 C 527.3615 309.4789 511.07763 293.39302 493.30664 283.96094 C 487.2017 280.63955 481.14096 278.06904 475.32422 276.07031 C 473.35473 272.31104 470.87398 267.95945 468.08008 263.97656 C 465.9561 260.94869 463.36293 257.68069 460.22852 254.58203 C 458.12958 252.50704 455.7365 250.45805 453.00977 248.57812 C 452.16335 247.99457 451.26337 247.41214 450.30859 246.8418 C 447.21078 245.01508 443.7671 243.58314 439.85742 242.60547 C 436.502 241.7664 432.96207 241.30057 429.17969 241.13867 C 422.40549 240.84871 415.91204 241.53934 408.77148 242.22461 C 408.7253 242.22904 408.67887 242.23661 408.63281 242.24219 C 398.98288 243.41159 388.13232 243.10312 377.44727 239.81445 C 377.40575 239.80168 377.364 239.79133 377.32227 239.7793 C 370.00864 237.67088 363.90325 234.97987 355.67383 231.95312 C 355.04615 231.72227 354.4089 231.49941 353.74609 231.41016 C 353.08329 231.3209 352.39941 231.36851 351.76562 231.58203 C 351.13184 231.79555 350.55914 232.17029 350.07422 232.63086 C 349.5893 233.09143 349.19132 233.63483 348.80078 234.17773 C 348.09238 235.16251 347.62155 236.22481 347.34766 237.30273 C 347.07922 238.35917 347.01521 239.36707 347.04883 240.25781 C 347.08216 241.14095 347.213 241.95785 347.36914 242.66797 C 347.52541 243.37869 347.72218 244.04612 347.91211 244.63281 C 348.09334 245.19265 348.27485 245.69963 348.44531 246.16992 C 342.60388 242.38845 337.31534 237.86665 332.43164 232.97852 C 325.32566 225.86609 318.90081 217.78993 313.05859 210.14453 C 312.51604 208.4621 311.64532 206.9269 310.44336 205.64062 C 308.69334 203.76784 306.48021 202.68132 304.23047 202.3125 C 303.49255 202.19153 302.76334 202.14913 302.05273 202.17383 z M 303.74609 215.61914 C 303.74624 215.61906 303.68952 215.71347 303.49805 215.83398 C 303.51708 215.80844 303.5301 215.77833 303.55273 215.75586 C 303.6092 215.69979 303.67637 215.6575 303.74609 215.61914 z M 301.60547 217.97656 C 307.66929 225.85314 314.75456 234.73862 322.80078 242.67578 C 330.58114 250.35069 339.71619 257.62087 350.68359 262.7793 C 350.93948 262.89965 351.20125 263.00796 351.4707 263.09375 C 352.69619 263.48393 354.23625 263.79551 355.91602 263.62305 C 356.77724 263.53462 357.68888 263.31769 358.59375 262.9082 C 359.50303 262.49672 360.31795 261.92998 361.00977 261.23828 C 361.69135 260.55681 362.19311 259.81638 362.55664 259.09766 C 362.91518 258.3888 363.14261 257.69694 363.28906 257.07812 C 363.57304 255.87822 363.60037 254.74671 363.55664 253.85352 C 363.51193 252.94033 363.38222 252.0663 363.23047 251.29688 C 363.07773 250.52243 362.88746 249.77987 362.69531 249.10938 C 362.50312 248.4387 362.29949 247.81135 362.11133 247.26562 C 362.04117 247.06216 361.98212 246.90759 361.91602 246.72461 C 366.00038 248.11809 370.11861 249.4539 374.43945 250.53516 L 374.3125 250.5 C 386.88732 254.03367 399.30792 254.02102 409.98242 252.48047 C 417.22779 251.63848 422.94171 250.94273 428.83203 251.09375 C 432.06186 251.17656 434.93065 251.52137 437.54102 252.13281 C 440.56584 252.84134 443.14451 253.8871 445.40039 255.1875 C 446.14201 255.62191 446.86816 256.08194 447.55273 256.54688 C 449.75814 258.04469 451.72269 259.70501 453.48047 261.42969 C 456.11179 264.01146 458.34257 266.79899 460.22461 269.48438 C 460.87838 270.41722 461.51182 271.37715 462.12695 272.34766 C 459.86877 271.83765 457.66049 271.38311 455.56641 271.01953 C 452.74868 270.53031 449.94653 270.13809 447.16602 269.83594 C 425.37638 267.46808 407.90123 270.9629 399.27539 273.18164 A 6.94894 6.94894 0 0 0 402.73828 286.64062 C 410.43217 284.6616 426.12434 281.31082 445.62695 283.57031 C 448.10945 283.85792 450.60689 284.23111 453.11133 284.69727 C 458.74208 285.74532 465.0201 287.39433 471.56055 289.9082 A 4.8295536 4.8295536 0 0 0 475.49219 291.51367 C 478.98674 293.02709 482.53282 294.79297 486.07617 296.86133 C 500.77358 305.56711 513.306 319.6897 519.57422 337.12695 C 519.58291 337.15113 519.59443 337.17519 519.60352 337.19922 C 524.92847 351.27752 527.00607 365.49283 527.15625 378.50977 C 527.16758 379.4916 527.16803 380.46551 527.1582 381.42969 C 527.01524 395.4631 524.68489 408.70885 521.06445 420.43359 C 517.95474 430.6588 513.28385 440.829 506.85547 449.86719 C 502.11452 456.53288 496.03922 463.11027 488.38477 468.50195 C 486.77454 469.63617 485.08459 470.72871 483.3125 471.76367 C 483.25341 471.79818 483.19292 471.83114 483.13477 471.86719 C 472.86935 478.23061 460.88069 483.19196 447.42188 486.10938 C 435.0494 488.79131 421.89907 489.63711 408.62305 488.47461 C 408.60491 488.47302 408.5865 488.47214 408.56836 488.4707 C 395.85264 487.46194 383.21583 485.55281 371.13281 482.25586 C 358.58056 478.83087 347.14231 474.04873 336.96875 467.66992 C 332.44959 464.85301 328.39005 461.63624 324.9082 458.18945 C 322.72887 456.03206 320.7503 453.75387 319.00391 451.37891 C 316.61247 448.12673 314.67507 444.71815 313.24023 441.20703 C 311.76825 437.60502 310.82924 433.90762 310.45508 430.13672 C 310.44647 430.05001 310.43002 429.96546 310.41992 429.87891 C 309.98541 426.15471 310.22928 422.54357 310.98242 419.25195 C 311.69354 416.14399 312.84952 413.34754 314.30859 410.89258 C 314.50848 410.55626 314.71801 410.21936 314.9375 409.88477 C 314.98799 409.8078 315.03422 409.72905 315.08203 409.65039 C 316.73719 406.92718 318.49886 404.4271 320.54688 401.43164 C 323.21021 397.53621 324.70841 395.10699 326.02539 392.71875 C 326.79391 392.63748 327.60416 392.58001 328.47852 392.59375 C 338.89045 394.64588 344.52633 402.00474 350.74609 408.71484 C 352.86456 409.56863 355.01564 409.92571 355.91211 410.41992 C 356.34279 408.9092 359.07573 405.167 357.64062 400.7832 C 357.50366 400.36477 357.31728 399.91446 357.08398 399.4375 C 356.94441 399.15216 356.78794 398.85643 356.61328 398.55273 C 358.26606 393.7393 359.14698 388.12966 359.15039 382.39648 C 359.15014 365.93661 352.0687 352.59398 343.33398 352.5957 C 334.60003 352.59602 327.51978 365.93805 327.51953 382.39648 C 327.52253 384.85497 327.68743 387.30327 328.00977 389.68555 C 327.70167 389.84821 327.40277 390.01469 327.11328 390.18359 A 7.7054544 7.7054544 0 0 0 312.91797 384.58203 C 311.87086 386.53693 310.58374 388.56694 307.76562 392.63281 C 306.43757 394.54888 304.95431 396.67716 303.5293 398.91992 C 301.53946 396.99255 299.35709 394.83545 297.11914 392.47656 C 295.14653 390.39735 292.80524 387.83062 290.36523 384.92188 C 285.57982 379.21716 279.85473 371.5527 275.28906 362.36328 C 275.28098 362.34701 275.27192 362.3326 275.26367 362.31641 C 271.23735 354.40703 268.38513 345.34969 266.81836 334.98828 C 265.42008 325.74115 265.11637 315.92506 265.66602 305.64648 C 266.63893 289.50398 270.20529 273.04397 276.60352 257.48828 C 282.57471 242.97081 290.92248 229.484 301.60547 217.97656 z M 350.4707 254.20312 C 350.46997 254.22304 350.47813 254.2838 350.47656 254.29883 C 350.46219 254.43621 350.46079 254.34642 350.4707 254.20312 z M 437.58398 351.11523 C 428.56629 351.11585 421.25612 364.4578 421.25586 380.91602 C 421.25631 387.04125 422.29088 393.01746 424.21875 398.03125 C 421.1075 402.2853 421.46351 407.16223 421.14062 408.96094 C 422.65283 408.3386 426.28384 408.1985 429.81836 407.11719 C 439.41253 400.48547 443.10644 398.70401 451.91797 395.16016 C 458.21768 392.24215 463.94715 390.61258 467.73242 390.26953 C 464.69497 389.55163 459.78453 388.06926 453.47656 387.6875 C 453.7632 385.46818 453.90934 383.19616 453.91211 380.91602 C 453.91185 364.45779 446.60167 351.11584 437.58398 351.11523 z "
       transform="scale(0.26458333)" />
    <path
       d="m 8.8740157,73.295216 c 2.0356743,-0.523617 6.1876123,-1.410077 11.3476803,-0.812252 0.656827,0.0761 1.317745,0.174991 1.980377,0.298327 2.57149,0.478632 5.651797,1.426077 8.722143,3.218322 3.888686,2.303404 7.204497,6.040021 8.86297,10.65363 0.0023,0.0064 0.005,0.01265 0.0074,0.01901 1.408891,3.724885 1.958627,7.485914 1.998362,10.929977 0.003,0.259777 0.0031,0.51728 5.02e-4,0.772384 -0.03783,3.713009 -0.654207,7.217689 -1.612111,10.319859 -0.82278,2.70541 -2.058553,5.39657 -3.759395,7.78792 -1.254376,1.76364 -2.861847,3.50376 -4.887087,4.93031 -0.426038,0.30009 -0.873226,0.58898 -1.342092,0.86281 -0.01563,0.009 -0.03143,0.018 -0.04682,0.0275 -2.71606,1.68365 -5.888109,2.99619 -9.449087,3.76809 -3.27355,0.7096 -6.753076,0.93367 -10.265691,0.62609 -0.0048,-4.2e-4 -0.0096,-8.8e-4 -0.01439,-0.001 -3.3643693,-0.26691 -6.7077788,-0.77198 -9.90474473,-1.6443 -3.32111697,-0.9062 -6.34740277,-2.17163 -9.03915817,-3.85935 -1.1956933,-0.74531 -2.2697791,-1.59612 -3.1910181,-2.50808 -0.576616,-0.57081 -1.100199,-1.17374 -1.562265,-1.80212 -0.632734,-0.86047 -1.145392,-1.7621 -1.525027,-2.69109 -0.389462,-0.95303 -0.637828,-1.93125 -0.736827,-2.92897 -0.0023,-0.0229 -0.0067,-0.0456 -0.0093,-0.0685 -0.114965,-0.98536 -0.05037,-1.94067 0.148895,-2.81157 0.188151,-0.82232 0.493945,-1.56246 0.879991,-2.212 0.05289,-0.089 0.108292,-0.17783 0.166367,-0.26636 0.01336,-0.0204 0.02551,-0.0415 0.03816,-0.0623 0.437926,-0.72052 0.904246,-1.38185 1.446117,-2.1744 0.78881,-1.15372 1.195435,-1.82236 1.575849,-2.53257 a 2.0387348,2.0387348 90 0 0 -3.594326,-1.925244 c -0.277048,0.517233 -0.6177,1.054254 -1.363326,2.130014 -0.497698,0.71806 -1.078786,1.54515 -1.579933,2.41803 -0.07994,0.12934 -0.155949,0.25882 -0.228189,0.38817 -0.597614,1.07008 -1.002756,2.25806 -1.203857,3.51256 -0.212232,1.32393 -0.195917,2.71574 0.05661,4.09946 0.18131,1.33905 0.555332,2.62431 1.090152,3.84381 0.528622,1.20538 1.211677,2.34053 2.013626,3.39621 0.585863,0.77123 1.235288,1.50018 1.934277,2.18298 1.115735,1.0899 2.39465,2.09397 3.796649,2.96756 3.0186637,1.89226 6.3620666,3.29038 9.95342366,4.28941 3.45254854,0.96041 7.01531364,1.51913 10.53770834,1.83091 l -0.01439,-0.001 c 3.859129,0.37174 7.704559,0.1683 11.354319,-0.57446 3.956778,-0.80524 7.537042,-2.21228 10.655522,-4.06321 0.56962,-0.31739 1.112941,-0.65226 1.630517,-0.99982 2.466869,-1.65654 4.454038,-3.6528 6.015428,-5.64747 2.118837,-2.70682 3.72324,-5.75167 4.807302,-8.84897 1.201122,-3.48723 1.992399,-7.45154 2.042928,-11.704992 0.0035,-0.291855 0.0034,-0.586609 -3.22e-4,-0.884102 -0.04971,-3.940882 -0.752915,-8.280157 -2.493907,-12.569372 l 0.0074,0.019 C 41.847612,79.337655 37.539132,75.081623 32.837227,72.586053 29.258048,70.638804 25.733017,69.662243 22.851766,69.161993 22.106242,69.032554 21.36462,68.928704 20.628942,68.848759 14.863766,68.222261 10.240247,69.14695 7.9579955,69.733992 a 1.8385737,1.8385737 90 0 0 0.9160202,3.561224 z"
       id="path-1-4-4-4"
       inkscape:path-effect="#path-effect4484;#path-effect4488"
       inkscape:original-d="m 8.4160056,71.514604 c 11.5716204,-3.055483 26.4192004,0.43885 32.4353804,11.91466 6.47113,12.34364 3.5079,31.880336 -8.49417,39.767256 -6.39767,4.20411 -13.61531,5.83352 -21.13266,5.35389 -16.4214144,-1.04774 -29.150944,-8.17875 -28.702064,-19.37304 0.14985,-3.73711 2.75833,-5.98135 4.38409,-9.00567"
       style="fill:#342f2f;fill-rule:nonzero;stroke:none;stroke-width:1px;stroke-linecap:butt;stroke-linejoin:miter;stroke-opacity:1"
       sodipodi:nodetypes="cssssc" />
    <path
       id="path-1-0-7"
       style="fill:#767272;fill-rule:nonzero;stroke:none;stroke-width:3.77953px;stroke-linecap:butt;stroke-linejoin:miter;stroke-opacity:1"
       d="m 782.47266,566.97461 c -3.08947,0.006 -6.15409,0.22868 -9.18946,0.58398 -1.44606,0.16927 -2.90047,0.3696 -4.37109,0.59571 -5.79799,0.89144 -11.76172,2.1883 -17.72656,3.17773 l 0.0723,-0.01 c -2.61224,0.45413 -5.13603,0.90491 -7.59765,1.10156 -2.38865,0.19081 -4.60933,0.13176 -6.69532,-0.35547 l 0.0547,0.0176 c -1.5609,-0.19144 -2.99093,-0.76034 -4.10742,-1.56446 -0.60325,-0.43447 -1.21239,-0.87573 -1.89844,-1.1621 -0.68605,-0.28639 -1.46713,-0.39815 -2.17773,-0.17969 -0.3553,0.10923 -0.68588,0.29848 -0.95703,0.55273 -0.27116,0.25425 -0.48066,0.57148 -0.61524,0.91797 -0.13458,0.3465 -0.19405,0.72015 -0.20117,1.0918 -0.007,0.37164 0.0372,0.74062 0.084,1.10937 0.14108,1.1122 0.29605,2.21091 0.46485,3.29492 0.35426,2.27501 0.7968,4.62177 1.35742,6.99219 -5.41646,-0.16948 -12.99838,0.28146 -21.84375,2.92774 -5.65346,1.69135 -11.77816,4.27707 -17.875,8.08203 -1.75933,1.09797 -3.62961,2.36764 -5.55469,3.83203 -8.37623,6.35398 -17.08723,15.42701 -24.14062,27.82617 -5.64427,9.92206 -10.06371,21.74643 -12.01367,34.83594 -0.003,0.0204 -0.007,0.0402 -0.01,0.0605 -1.18888,8.36878 -0.97875,16.49283 -1.12109,24.8379 -0.0666,3.90125 -0.21325,7.72255 -0.63282,11.45117 -0.40998,3.6435 -1.07927,7.17182 -2.17187,10.58398 -0.008,0.0262 -0.0151,0.0539 -0.0234,0.0801 -1.314,4.12396 -3.37978,8.01751 -6.05273,11.54687 -2.67162,3.52761 -5.90164,6.62762 -9.47266,9.1836 -0.0644,0.0461 -0.12466,0.0956 -0.18359,0.14844 -0.0589,0.0529 -0.1199,0.10337 -0.1836,0.15039 -1.31406,0.9701 -3.27591,2.12365 -5.47461,3.7207 -1.13467,0.82418 -2.35445,1.79953 -3.51953,2.97461 -1.22374,1.23424 -2.38146,2.68334 -3.33984,4.4082 -0.0834,0.15009 -0.16162,0.30395 -0.22656,0.46289 -0.065,0.15895 -0.12296,0.31863 -0.18555,0.47852 -0.44186,1.12865 -0.71985,2.27953 -0.84375,3.42969 -0.12724,1.18114 -0.0868,2.30584 0.0625,3.35156 0.31019,2.17265 1.0908,3.99094 1.82617,5.33984 0.80709,1.48046 1.74081,2.72047 2.46094,3.60938 0.80312,0.99135 1.67524,1.94337 2.13281,2.44922 0.0218,0.0241 0.0443,0.0465 0.0684,0.0684 0.024,0.0218 0.0478,0.045 0.0703,0.0684 0.5688,0.59139 1.10161,1.11578 1.57422,1.5625 3.12626,2.95494 6.58509,5.30134 7.40235,5.90429 1.27123,0.91454 2.76597,1.46858 4.32617,1.60352 5.19348,2.72048 12.55287,6.22643 21.58789,8.54492 5.25293,1.34796 10.07284,1.99832 13.77734,2.04297 0.32855,1.38843 0.68384,2.77657 1.0918,4.16211 3.27736,11.13068 8.6466,20.40876 14.58008,27.36328 2.25393,2.72507 4.53559,5.06423 6.6875,7.01953 1.19881,1.08928 2.47828,2.11722 3.8164,3.09766 -1.58573,5.38637 -3.18318,9.64659 -4.64843,11.53515 l 8.57421,-8.89062 c 4.52249,2.82273 9.50784,5.27778 14.48243,7.71679 0.93103,0.45648 1.92941,0.93386 2.99414,1.42579 8.77338,4.05347 20.71547,8.39684 36.02734,10.58398 12.53635,1.96696 25.23275,2.18552 37.99414,-0.10742 14.21893,-2.65084 26.22762,-6.37097 35.18164,-9.45313 0.28796,-0.0991 0.57506,-0.20328 0.86328,-0.30273 l 20.5918,14.32812 c 0,0 -0.97146,-9.64386 -2.09961,-20.99609 6.12199,-2.35095 11.80297,-4.73067 16.52344,-7.08594 l -0.0859,0.0488 c 1.84649,-0.87849 3.79104,-1.90939 5.8125,-3.13086 7.42372,-4.48578 14.81868,-10.62686 21.59766,-18.625 7.2038,-8.49937 13.3201,-18.6437 17.83593,-29.95508 5.61149,-14.21359 8.94193,-29.4842 9.75,-45.0039 0.0587,-1.12769 0.10352,-2.26749 0.13477,-3.41797 0.41386,-15.23458 -1.67267,-32.05972 -7.67578,-48.85156 v -0.002 c -7.49202,-20.95542 -21.8925,-37.67266 -38.83985,-47.99609 -13.93279,-8.7437 -28.0392,-13.23548 -39.5625,-15.5918 -1.80704,-0.36951 -3.60731,-0.68534 -5.40429,-0.97461 -0.70576,-3.18123 -1.99604,-8.30628 -4.19922,-13.43945 -1.06433,-2.47979 -2.32222,-4.93452 -3.82227,-7.28711 -1.47603,-2.31493 -3.28358,-4.69258 -5.5039,-6.95508 l -0.002,-0.002 c -3.07014,-3.14789 -6.86237,-5.7471 -11.24414,-7.61914 -3.95429,-1.68942 -8.29607,-2.74515 -12.78125,-3.08399 -1.8698,-0.16988 -3.73225,-0.24395 -5.58593,-0.24023 z M 780.75,578.00195 c 2.08723,0.0194 4.13008,0.14623 6.14258,0.4043 3.31887,0.44989 6.37491,1.39644 9.04687,2.70898 2.94986,1.44906 5.32356,3.28609 7.15235,5.31446 0.0104,0.0116 0.0206,0.0237 0.0312,0.0351 1.50427,1.6204 2.75756,3.34483 3.8164,5.07813 1.07174,1.75442 2.01718,3.623 2.85547,5.58984 1.02325,2.4008 1.82557,4.83157 2.45313,7.00781 -18.57142,-1.09049 -33.39001,1.88808 -41.1875,3.89258 -3.6639,0.99952 -5.84668,4.75538 -4.90136,8.43363 0.94531,3.67826 4.66853,5.91626 8.36034,5.02536 8.1528,-2.09585 24.99217,-5.63218 45.70508,-2.72657 2.63573,0.36975 5.28578,0.8388 7.93555,1.41211 10.27063,2.22219 22.53669,6.49676 34.42187,14.43165 13.72448,9.29141 24.7518,23.81647 30.2207,41.17773 0.006,0.0188 0.0114,0.036 0.0176,0.0547 4.86911,14.67432 6.45658,29.33157 6.08008,42.67382 -0.0284,1.00573 -0.0675,2.00187 -0.11719,2.98829 -0.68495,13.58736 -3.5091,26.97342 -8.24023,39.47461 -3.64746,9.71186 -8.54041,18.44502 -14.20703,25.89843 -5.32481,7.00382 -11.06389,12.5371 -16.79688,16.91211 -1.5577,1.18874 -3.06105,2.27091 -4.46484,3.23828 -0.0137,0.009 -0.028,0.0161 -0.043,0.0234 -0.0149,0.007 -0.0293,0.016 -0.043,0.0254 -3.39562,2.33845 -6.89437,4.78314 -10.64062,7.22852 -1.60801,-16.4237 -3.222,-33.48605 -3.3125,-36.67774 -0.18308,-6.4512 -28.28516,22.08203 -28.28516,22.08203 l -8.14648,-33.99218 c 0,0 -29.65809,28.69939 -35.79102,34.40625 -6.13289,5.70682 -23.79883,-33.74414 -23.79883,-33.74414 l -19.22265,32.08984 -20.04688,-25.14258 c 0,0 -2.99017,17.51265 -6.71484,33.56055 -1.1631,-1.43933 -2.34887,-2.96359 -3.54492,-4.67774 -4.32044,-6.3157 -8.34655,-14.06549 -10.76563,-23.32226 -0.35883,-1.37309 -0.65625,-2.74108 -0.92578,-4.10742 0.0155,-0.003 0.0294,-0.006 0.0449,-0.01 5.10035,-1.08355 12.1721,-2.08242 21.65039,-5.2832 9.33496,-3.15238 18.71825,-7.73871 27.73438,-13.99219 5.51452,-3.68127 10.28259,-7.56245 12.82812,-10.45508 -0.94656,1.96036 -1.93255,4.28211 -2.61523,6.67383 -0.46433,1.62673 -0.96239,3.77817 -1.26172,6.23047 -0.003,0.0247 -0.003,0.0493 -0.002,0.0742 10e-4,0.0249 -8.6e-4,0.0498 -0.006,0.0742 -0.115,0.56096 -0.30986,1.68157 -0.25782,2.86132 0.024,0.54504 0.10245,1.18184 0.30274,1.85157 0.1911,0.63898 0.49846,1.32103 0.98437,1.97656 0.0591,0.0797 0.1263,0.15151 0.19336,0.22461 0.30727,0.33492 0.66462,0.62816 1.06641,0.86523 0.39432,0.23267 0.80744,0.3978 1.22656,0.50196 0.81501,0.20255 1.58522,0.1624 2.22266,0.041 0.62141,-0.11833 1.17863,-0.32644 1.63867,-0.53906 0.45834,-0.21184 0.86604,-0.44905 1.19922,-0.66406 0.0237,-0.0153 0.047,-0.031 0.0703,-0.0469 1.95687,-1.33268 3.61651,-2.92304 5.08008,-4.55273 1.4633,-1.62939 2.8012,-3.38191 3.99023,-4.93164 0.0142,-0.0185 0.029,-0.036 0.043,-0.0547 7.58146,-10.14547 13.34765,-20.76465 17.74414,-30.20703 2.53877,-5.70828 4.32132,-10.27657 5.63281,-14.70117 0.95386,-3.21804 1.64233,-6.39625 2.03711,-9.55274 -0.43112,-1.11484 -1.23604,-2.04782 -1.48437,-2.46679 -0.32912,0.35901 -1.32288,1.04323 -2.07422,1.85156 -0.68874,2.88253 -1.60124,5.78662 -2.69727,8.77344 -1.52561,4.15749 -3.38431,8.34484 -6.08984,13.88085 -4.53647,9.11097 -10.30142,19.24742 -17.66992,28.86915 -1.28537,1.56063 -2.52503,3.09315 -3.84375,4.50585 -1.28705,1.37879 -2.59376,2.581 -4.01953,3.55079 -0.0244,0.0151 -0.0465,0.0266 -0.0703,0.041 -0.11714,-0.57604 -0.17547,-1.26558 -0.27148,-1.96094 0.0769,-2.13044 0.28663,-4.13787 0.45898,-5.66601 0.63704,-5.64808 0.90125,-9.98103 1.14844,-12.24414 0.32373,-1.07069 0.47406,-1.96166 0.64453,-2.45508 -0.9281,0.31416 -3.20826,0.50069 -5.56836,1.76367 -2.90234,1.55316 -8.0878,6.4105 -14.10742,10.9043 -8.37111,6.10815 -17.20783,10.71661 -26,13.52539 -8.64813,2.76277 -15.92594,3.33132 -20.33789,2.8418 -0.24388,-0.0204 -0.45004,-0.0453 -0.65039,-0.0723 -5.17857,-1.52015 -10.59196,-1.39663 -15.44726,-5.17969 -2.27842,-0.45104 -4.83864,-0.95872 -7.50196,-1.59961 -7.24958,-1.74449 -13.58089,-3.9887 -18.18359,-5.98437 -0.45404,-0.56846 -0.97767,-1.07765 -1.5586,-1.51563 -0.6597,-0.48672 -3.87021,-3.00626 -6.14648,-4.88476 -0.36887,-0.30441 -0.78749,-0.65164 -1.22461,-1.02539 l 0.13867,0.13672 c -0.59984,-0.54498 -1.09404,-0.98448 -1.59961,-1.47071 -0.12056,-0.11595 -0.15688,-0.15564 -0.25976,-0.25976 0.22695,-0.23578 0.46791,-0.47866 0.76367,-0.75 1.3189,-1.21001 3.28659,-2.64069 5.43945,-4.6836 4.38427,-3.54417 8.30696,-7.74652 11.51758,-12.47461 3.28397,-4.83609 5.7845,-10.1726 7.28516,-15.83593 1.26967,-4.45145 1.93432,-8.85634 2.27539,-13.10547 0.34661,-4.3181 0.36736,-8.59278 0.31054,-12.61914 -0.12641,-8.95853 -0.54064,-15.95495 0.29102,-23.40821 1.49478,-11.62076 5.21589,-22.21152 10.07813,-31.14062 6.07778,-11.16136 13.67609,-19.32567 20.98437,-25.02344 1.6426,-1.29897 3.23103,-2.41591 4.73242,-3.38281 5.20859,-3.35435 10.48408,-5.61587 15.35547,-7.07422 9.87944,-2.95761 17.83637,-2.60761 22.25391,-2.16406 1.05546,2.56139 2.28833,5.03645 3.73242,7.39453 1.08066,1.29374 2.09495,2.39186 3.1582,3.36914 1.50733,1.38545 2.73751,2.17356 3.63477,2.69141 -0.64627,-0.81091 -1.41767,-2.00389 -2.19141,-3.74414 -0.54587,-1.22776 -1.01158,-2.53576 -1.48828,-4.02149 -1.27238,-2.77666 -2.2566,-5.68642 -3.02344,-8.68164 l -1.07031,-4.97852 c -0.31765,-1.80775 -0.56469,-3.6124 -0.75977,-5.39648 0.0924,0.0411 0.18387,0.0835 0.27735,0.12305 0.009,0.004 0.0181,0.006 0.0273,0.008 0.009,0.002 0.0183,0.005 0.0274,0.008 3.15384,1.09108 6.37015,1.44543 9.39257,1.47852 3.02624,0.0331 6.08229,-0.25736 8.61133,-0.47852 0.0122,-0.001 0.0251,-0.002 0.0371,-0.004 0.0121,-0.002 0.023,-0.004 0.0352,-0.006 6.35818,-0.80545 12.30463,-1.86808 17.71679,-2.49024 1.37347,-0.15789 2.7045,-0.28902 4.00782,-0.39062 2.19531,-0.17115 4.32683,-0.25966 6.41406,-0.24024 z m 16.88477,114.47852 -2.43555,9.59765 c 1.30297,2.18906 4.34796,7.26598 8.65234,13.84376 2.22787,3.40451 5.41578,8.16272 9.55664,13.99218 -7.86239,8.33248 -15.62078,16.6279 -18.79492,20.20703 l 0.58789,9.80469 9.80469,-0.58789 c 2.86851,-3.2345 9.65308,-10.50013 16.82031,-18.10547 3.41367,4.35455 7.34212,9.01103 11.6543,13.21485 0.0482,0.047 0.097,0.0931 0.14648,0.13867 1.10762,1.01922 2.55339,2.36413 4.15235,3.57226 1.71661,1.29703 3.72219,2.52903 6.09375,3.35157 0.016,0.006 0.0328,0.0122 0.0488,0.0176 1.68511,0.57082 3.52159,0.76497 5.31445,0.48828 1.10505,-0.17053 2.15199,-0.51366 3.10937,-1.01171 1.30111,-0.67687 2.2426,-1.53716 2.89649,-2.30469 l -0.79102,-9.8711 -4.92214,0.11448 c -1.34273,0.16306 -2.39255,-0.66977 -3.30836,-1.95824 -0.93474,-0.70627 -1.84303,-1.53789 -3.03515,-2.63477 -4.2544,-4.15767 -8.14754,-8.89318 -11.61914,-13.41602 3.92943,-4.14048 7.49012,-7.87668 9.91406,-10.40234 5.00558,-5.21566 8.02799,-8.40243 10.24609,-10.75391 l -0.28711,-9.81836 -9.8164,0.28711 c -2.18897,2.32059 -5.18435,5.47732 -10.16407,10.66602 -2.06416,2.15079 -4.96602,5.19294 -8.23242,8.63086 -3.24884,-4.63217 -5.80048,-8.45315 -7.65625,-11.28906 -4.15422,-6.34831 -7.0867,-11.2391 -8.33593,-13.33789 z m -53.35352,113.51367 25.99609,27.45898 27.18555,-21.17187 21.89649,15.23437 c -7.88693,3.21432 -17.93589,6.64103 -29.5918,9.21876 -11.6944,2.9028 -24.12888,3.03798 -35.96094,0.88085 -0.0169,-0.003 -0.0338,-0.005 -0.0508,-0.008 -14.61471,-2.27325 -26.00304,-6.86184 -33.80274,-11.29883 -0.95325,-0.54228 -1.838,-1.0741 -2.65429,-1.58789 -4.28695,-2.69828 -7.70088,-5.84527 -10.72461,-9.07422 l 6.03516,-6.25976 9.88671,16.45898 z"
       transform="scale(0.26458333)"
       sodipodi:nodetypes="sssccsccsssssssscsscsscssscssssssssssssssscsccscscscccssccscccccsscsscccscssssscsscsscssccscsscscsscssssccsccscccccsccsccssssssssssssssssccscccsccscccsccscscccsccsccscscscsscscssccscsccccsssssscsssccccccccsssscsscccsccscccscscccccccscsscccccc" />
  </g>
</svg>
